<svg width="400" height="300" viewBox="0 0 400 300" fill="none" xmlns="http://www.w3.org/2000/svg">
<path d="M65.2534 200.527H0.114746V174.774L61.7826 78.4759H91.2188V177.158H113.568V200.527H91.2188V231.686H65.2534V200.527ZM65.2534 115.265H64.8163L26.5173 177.158H65.2534V115.265Z" fill="#FEB425"/>
<path d="M350.983 200.527H285.857V174.774L347.525 78.4759H376.962V177.158H399.244V200.527H376.962V231.686H350.983V200.527ZM355.514 115.265H355.076L316.777 177.158H355.514V115.265Z" fill="#FEB425"/>
<path d="M195.014 86.1202C181.404 86.1176 168.1 90.1501 156.782 97.7078C145.464 105.266 136.641 116.009 131.428 128.581C126.215 141.152 124.846 154.987 127.495 168.336C130.143 181.686 136.69 193.95 146.308 203.579C155.926 213.208 168.182 219.769 181.528 222.433C194.874 225.097 208.711 223.744 221.288 218.546C233.866 213.347 244.619 204.537 252.19 193.227C259.761 181.918 263.809 168.618 263.822 155.008C263.832 145.966 262.06 137.01 258.607 128.652C255.154 120.295 250.087 112.7 243.696 106.302C237.306 99.904 229.717 94.8285 221.364 91.3656C213.01 87.9027 204.056 86.1202 195.014 86.1202Z" fill="white" stroke="#231F20" stroke-width="1.36451" stroke-linecap="round" stroke-linejoin="round"/>
<path d="M231.089 137.283C232.845 137.283 234.268 135.165 234.268 132.553C234.268 129.941 232.845 127.824 231.089 127.824C229.333 127.824 227.909 129.941 227.909 132.553C227.909 135.165 229.333 137.283 231.089 137.283Z" fill="#231F20"/>
<path d="M114.175 134.554L275.797 98.7846L244.002 89.5112C244.002 89.5112 226.78 60.9623 222.183 60.3662C217.586 59.77 134.047 77.5882 134.047 77.5882L128.748 117.808L114.175 134.554Z" fill="#231F20"/>
<path d="M168.24 169.276C168.24 169.276 209.308 152.863 227.272 183.438Z" fill="white"/>
<path d="M227.279 184.126C227.16 184.125 227.044 184.093 226.941 184.033C226.839 183.972 226.755 183.886 226.696 183.782C209.223 154.067 168.897 169.753 168.499 169.912C168.324 169.98 168.128 169.976 167.955 169.9C167.783 169.825 167.647 169.683 167.579 169.508C167.51 169.332 167.514 169.136 167.59 168.964C167.666 168.791 167.807 168.655 167.983 168.587C168.407 168.428 209.806 152.305 227.875 183.04C227.964 183.198 227.989 183.383 227.945 183.558C227.9 183.734 227.79 183.885 227.637 183.981C227.533 184.061 227.41 184.112 227.279 184.126Z" fill="#231F20"/>
<path d="M147.824 231.395L129.555 202.515L209.412 188.856L214.897 216.531L223.004 191.042L263.86 199.11L255.554 231.395H147.824Z" fill="#231F20"/>
<path d="M250.156 168.77L257.518 167.751L261.321 195.23C261.448 196.149 261.205 197.08 260.645 197.82C260.085 198.56 259.255 199.047 258.336 199.174L257.903 199.234C256.984 199.361 256.052 199.118 255.313 198.558C254.573 197.998 254.086 197.168 253.959 196.249L250.156 168.77Z" fill="white"/>
<path d="M257.432 199.945C256.428 199.942 255.459 199.577 254.702 198.918C253.945 198.259 253.452 197.348 253.311 196.355L249.509 168.866C249.487 168.692 249.534 168.516 249.641 168.377C249.748 168.238 249.905 168.147 250.079 168.124L257.432 167.104C257.518 167.092 257.606 167.098 257.69 167.121C257.774 167.144 257.853 167.183 257.922 167.236C257.992 167.287 258.05 167.353 258.094 167.428C258.137 167.503 258.164 167.587 258.173 167.673L261.949 195.149C262.027 195.691 261.997 196.242 261.861 196.772C261.724 197.302 261.484 197.8 261.154 198.236C260.823 198.672 260.41 199.038 259.937 199.314C259.464 199.589 258.941 199.767 258.399 199.839L257.975 199.905C257.795 199.93 257.613 199.944 257.432 199.945ZM250.914 169.342L254.623 196.169C254.728 196.912 255.123 197.584 255.721 198.038C256.319 198.492 257.071 198.692 257.816 198.593H258.253C258.995 198.488 259.666 198.093 260.118 197.495C260.57 196.897 260.766 196.144 260.664 195.401L256.955 168.574L250.914 169.342Z" fill="#231F20"/>
<path d="M256.378 142.872L244.502 144.516L248.222 171.391L260.098 169.747L256.378 142.872Z" fill="white"/>
<path d="M248.219 172.071C248.077 172.067 247.938 172.021 247.822 171.938C247.751 171.888 247.691 171.823 247.648 171.748C247.604 171.672 247.578 171.588 247.57 171.501L243.848 144.608C243.834 144.523 243.837 144.435 243.858 144.351C243.878 144.267 243.915 144.187 243.967 144.118C244.076 143.983 244.232 143.893 244.404 143.866L256.327 142.223C256.413 142.21 256.501 142.215 256.586 142.237C256.671 142.259 256.75 142.297 256.819 142.35C256.888 142.404 256.946 142.47 256.989 142.546C257.032 142.622 257.059 142.706 257.069 142.793L260.791 169.673C260.814 169.847 260.767 170.022 260.66 170.161C260.553 170.301 260.396 170.392 260.222 170.415L248.299 172.057L248.219 172.071ZM245.252 145.085L248.789 170.653L259.387 169.196L255.85 143.628L245.252 145.085Z" fill="#231F20"/>
<path d="M258.476 188.949L254.999 189.43C252.679 189.751 251.06 191.891 251.381 194.211L256.688 232.555C257.009 234.874 259.149 236.494 261.468 236.173L264.945 235.692C267.265 235.371 268.884 233.23 268.563 230.911L263.256 192.567C262.935 190.248 260.795 188.628 258.476 188.949Z" fill="white"/>
<path d="M260.864 236.892C259.682 236.891 258.541 236.462 257.65 235.686C256.759 234.909 256.178 233.837 256.016 232.666L250.716 194.314C250.626 193.677 250.662 193.028 250.824 192.405C250.985 191.782 251.268 191.197 251.657 190.684C252.443 189.652 253.605 188.971 254.889 188.79L258.387 188.313C259.671 188.135 260.973 188.475 262.007 189.258C263.04 190.041 263.72 191.202 263.898 192.486L269.197 230.904C269.371 232.188 269.029 233.488 268.247 234.521C267.465 235.553 266.307 236.234 265.024 236.415L261.527 236.905L260.864 236.892ZM259.063 189.584C258.899 189.571 258.735 189.571 258.572 189.584L255.075 190.061C254.609 190.125 254.161 190.281 253.756 190.519C253.351 190.758 252.998 191.075 252.717 191.452C252.429 191.825 252.22 192.251 252.101 192.707C251.983 193.162 251.958 193.637 252.028 194.102L257.327 232.52C257.462 233.446 257.953 234.282 258.695 234.851C259.438 235.42 260.373 235.677 261.301 235.567L264.799 235.077C265.726 234.945 266.564 234.455 267.134 233.712C267.703 232.969 267.959 232.032 267.846 231.103L262.547 192.684C262.429 191.832 262.008 191.051 261.36 190.484C260.713 189.917 259.883 189.602 259.023 189.598L259.063 189.584Z" fill="#231F20"/>
<path d="M249.482 168.68C267.064 168.68 281.316 154.427 281.316 136.845C281.316 119.264 267.064 105.011 249.482 105.011C231.901 105.011 217.648 119.264 217.648 136.845C217.648 154.427 231.901 168.68 249.482 168.68Z" fill="white"/>
<path d="M249.467 169.342C243.228 169.34 237.121 167.541 231.876 164.163C226.631 160.784 222.469 155.967 219.887 150.287C217.304 144.607 216.411 138.305 217.313 132.131C218.216 125.957 220.875 120.174 224.975 115.471C229.075 110.767 234.441 107.343 240.434 105.607C246.427 103.87 252.792 103.895 258.771 105.678C264.75 107.461 270.09 110.927 274.153 115.662C278.216 120.397 280.831 126.201 281.685 132.381C282.856 140.911 280.6 149.557 275.411 156.427C270.222 163.297 262.522 167.832 253.997 169.038C252.496 169.24 250.982 169.342 249.467 169.342ZM249.467 105.66C248.027 105.659 246.588 105.756 245.161 105.952C239.051 106.796 233.329 109.434 228.718 113.53C224.106 117.627 220.814 123 219.256 128.968C217.698 134.936 217.945 141.232 219.966 147.06C221.987 152.888 225.69 157.985 230.608 161.708C235.526 165.431 241.438 167.612 247.596 167.975C253.753 168.338 259.88 166.866 265.201 163.747C270.522 160.628 274.799 156 277.49 150.45C280.182 144.9 281.166 138.677 280.321 132.567C279.279 125.128 275.592 118.314 269.935 113.372C264.279 108.431 257.031 105.693 249.52 105.66H249.467Z" fill="#231F20"/>
<path d="M249.482 162.705C263.764 162.705 275.342 151.127 275.342 136.845C275.342 122.563 263.764 110.986 249.482 110.986C235.201 110.986 223.623 122.563 223.623 136.845C223.623 151.127 235.201 162.705 249.482 162.705Z" fill="white"/>
<path d="M249.474 163.367C242.606 163.367 236.005 160.7 231.065 155.927C226.125 151.155 223.231 144.65 222.995 137.786C222.758 130.921 225.196 124.232 229.795 119.131C234.395 114.029 240.795 110.913 247.648 110.439C254.5 109.966 261.269 112.172 266.526 116.593C271.783 121.014 275.118 127.303 275.828 134.135C276.537 140.967 274.566 147.808 270.329 153.215C266.092 158.621 259.921 162.171 253.118 163.116C251.911 163.285 250.693 163.369 249.474 163.367ZM249.474 111.701C248.3 111.702 247.127 111.782 245.964 111.94C239.502 112.835 233.641 116.205 229.615 121.338C225.59 126.471 223.714 132.966 224.383 139.455C225.052 145.944 228.215 151.919 233.204 156.122C238.193 160.325 244.618 162.427 251.126 161.985C257.635 161.543 263.717 158.591 268.092 153.752C272.467 148.913 274.792 142.565 274.578 136.045C274.363 129.525 271.626 123.344 266.944 118.802C262.261 114.261 255.998 111.715 249.474 111.701Z" fill="#231F20"/>
<path d="M279.894 208.609C278.144 206.388 275.928 204.579 273.402 203.31C265.811 199.335 257.108 199.468 249.119 201.985C246.284 202.886 240.787 204.171 240.495 207.933C240.506 208.684 240.757 209.411 241.213 210.007C241.669 210.604 242.304 211.038 243.026 211.245C244.475 211.621 245.989 211.68 247.463 211.417C245.362 211.361 243.286 211.883 241.462 212.927C239.753 214.133 238.813 216.769 240.217 218.372C240.838 219.039 241.646 219.501 242.535 219.697C244.468 220.229 246.513 220.201 248.431 219.618C246.355 220.015 244.333 220.651 242.403 221.512C241.237 222.029 239.939 222.943 240.071 224.162C240.204 225.38 241.396 225.937 242.482 226.308C244.768 227.092 247.156 227.538 249.57 227.632C247.486 228.011 245.515 228.858 243.807 230.11C241.158 232.335 241.158 236.561 244.748 237.767C245.899 238.104 247.1 238.243 248.298 238.178C258.896 238.178 271.587 236.853 278.768 228.03C280.508 225.996 281.727 223.569 282.318 220.958C282.909 218.347 282.854 215.632 282.159 213.047C281.668 211.447 280.902 209.945 279.894 208.609Z" fill="white"/>
<path d="M248.218 238.8C246.975 238.861 245.73 238.713 244.535 238.363C243.743 238.122 243.032 237.671 242.477 237.057C241.921 236.444 241.543 235.691 241.382 234.879C241.231 233.899 241.334 232.897 241.682 231.969C242.03 231.041 242.611 230.218 243.369 229.58C244.223 228.871 245.191 228.311 246.231 227.924C244.88 227.695 243.551 227.354 242.257 226.904C240.495 226.294 239.607 225.394 239.408 224.254C239.21 223.115 240.23 221.737 242.058 220.876L242.998 220.479C242.757 220.434 242.518 220.376 242.283 220.306C241.264 220.092 240.338 219.564 239.634 218.796C239.311 218.4 239.074 217.941 238.94 217.448C238.805 216.955 238.775 216.44 238.852 215.935C238.954 215.231 239.197 214.556 239.566 213.948C239.934 213.34 240.421 212.813 240.998 212.398C241.41 212.108 241.855 211.868 242.323 211.682C241.569 211.375 240.925 210.848 240.474 210.17C240.022 209.492 239.785 208.694 239.792 207.88C240.097 204.012 244.88 202.581 248.033 201.614L248.88 201.362C257.73 198.567 266.54 199.057 273.667 202.687C276.287 204.014 278.581 205.905 280.383 208.225C281.441 209.612 282.253 211.172 282.781 212.835C283.515 215.525 283.578 218.354 282.966 221.074C282.354 223.795 281.085 226.324 279.27 228.441C271.759 237.621 258.75 238.814 248.258 238.827L248.218 238.8ZM246.959 220.532C245.488 220.905 244.052 221.406 242.667 222.029C242.045 222.307 240.627 223.062 240.733 224.042C240.839 225.023 241.846 225.367 242.694 225.645C244.917 226.423 247.243 226.87 249.596 226.97C249.755 226.972 249.907 227.033 250.025 227.141C250.142 227.248 250.215 227.395 250.232 227.553C250.25 227.711 250.21 227.871 250.12 228.002C250.03 228.133 249.896 228.228 249.741 228.268C247.755 228.636 245.873 229.437 244.23 230.613C243.643 231.096 243.191 231.724 242.919 232.435C242.647 233.146 242.565 233.915 242.68 234.667C242.796 235.249 243.07 235.789 243.472 236.226C243.874 236.663 244.388 236.98 244.959 237.144C246.037 237.463 247.163 237.588 248.284 237.515C258.498 237.515 271.123 236.376 278.277 227.619C279.955 225.673 281.131 223.345 281.704 220.84C282.276 218.335 282.228 215.728 281.562 213.245C281.075 211.73 280.332 210.309 279.363 209.046C277.686 206.878 275.545 205.113 273.097 203.879C266.275 200.369 257.836 199.905 249.318 202.554L248.456 202.819C245.648 203.667 241.382 204.952 241.144 207.92C241.169 208.526 241.384 209.108 241.76 209.584C242.136 210.06 242.653 210.405 243.237 210.569C244.002 210.814 244.807 210.913 245.608 210.861C246.231 210.795 246.84 210.755 247.423 210.715C247.595 210.711 247.763 210.771 247.893 210.883C248.022 210.996 248.105 211.154 248.125 211.324C248.137 211.497 248.081 211.668 247.97 211.801C247.859 211.934 247.701 212.02 247.529 212.04C246.933 212.04 246.31 212.172 245.674 212.186C244.314 212.274 242.998 212.702 241.846 213.431C241.415 213.743 241.051 214.138 240.776 214.593C240.5 215.048 240.319 215.554 240.243 216.08C240.191 216.404 240.207 216.734 240.289 217.051C240.371 217.368 240.518 217.664 240.72 217.922C241.259 218.475 241.951 218.853 242.707 219.008C244.001 219.357 245.352 219.448 246.681 219.273C247.211 219.141 247.754 219.021 248.284 218.915C248.451 218.883 248.623 218.916 248.766 219.007C248.909 219.099 249.012 219.241 249.053 219.406C249.091 219.57 249.066 219.744 248.982 219.891C248.899 220.038 248.763 220.148 248.602 220.2C248.065 220.356 247.515 220.467 246.959 220.532Z" fill="#231F20"/>
<path d="M206.029 137.349C206.029 137.349 222.164 161.592 212.401 161.937C202.637 162.281 201.803 159.724 201.803 159.724" fill="white"/>
<path d="M210.644 162.705C202.457 162.705 201.278 160.466 201.119 160.055C201.064 159.881 201.079 159.693 201.16 159.53C201.242 159.366 201.384 159.241 201.556 159.181C201.728 159.127 201.915 159.142 202.076 159.224C202.237 159.305 202.36 159.447 202.417 159.618C202.417 159.618 203.609 161.672 212.366 161.354C212.793 161.393 213.222 161.309 213.602 161.112C213.983 160.915 214.299 160.612 214.512 160.241C216.605 156.174 208.683 142.688 205.451 137.839C205.364 137.688 205.338 137.51 205.377 137.34C205.417 137.171 205.519 137.022 205.663 136.925C205.807 136.827 205.983 136.788 206.155 136.815C206.327 136.842 206.483 136.934 206.59 137.071C207.822 138.925 218.513 155.352 215.731 160.917C215.413 161.51 214.933 162.001 214.346 162.331C213.76 162.662 213.091 162.819 212.419 162.784L210.644 162.705Z" fill="#231F20"/>
<path d="M250.961 146.013C254.195 146.013 256.816 141.547 256.816 136.038C256.816 130.528 254.195 126.062 250.961 126.062C247.727 126.062 245.105 130.528 245.105 136.038C245.105 141.547 247.727 146.013 250.961 146.013Z" fill="#D1D3D4"/>
<path d="M179.299 144.106C181.765 144.106 183.764 140.494 183.764 136.038C183.764 131.582 181.765 127.97 179.299 127.97C176.834 127.97 174.835 131.582 174.835 136.038C174.835 140.494 176.834 144.106 179.299 144.106Z" fill="#231F20"/>
</svg>
