<svg width="152" height="65" viewBox="0 0 152 65" fill="none" xmlns="http://www.w3.org/2000/svg">
<path d="M150.741 56.0578H0.549157C0.497917 56.0578 0.448776 56.0374 0.412544 56.0012C0.376312 55.965 0.355957 55.9158 0.355957 55.8646C0.357029 55.8137 0.377728 55.7652 0.41373 55.7292C0.449733 55.6932 0.498254 55.6725 0.549157 55.6714H150.741C150.792 55.6725 150.84 55.6932 150.876 55.7292C150.912 55.7652 150.933 55.8137 150.934 55.8646C150.934 55.9158 150.914 55.965 150.878 56.0012C150.841 56.0374 150.792 56.0578 150.741 56.0578Z" fill="#D1D3D4"/>
<path d="M122.74 3.8098H50.7479C50.3397 3.7992 49.9342 3.87905 49.5604 4.04364C49.1867 4.20822 48.8541 4.45346 48.5863 4.76177C48.3185 5.07008 48.1223 5.43382 48.0117 5.82691C47.9011 6.22 47.8788 6.63269 47.9465 7.0354L54.8345 59.5354C54.9649 60.417 55.4027 61.2242 56.0706 61.8144C56.7384 62.4046 57.5933 62.7399 58.4843 62.761H130.476C130.885 62.7716 131.29 62.6917 131.664 62.5271C132.038 62.3625 132.37 62.1173 132.638 61.809C132.906 61.5007 133.102 61.1369 133.213 60.7439C133.323 60.3508 133.345 59.9381 133.278 59.5354L126.39 7.0354C126.259 6.15375 125.822 5.34656 125.154 4.75635C124.486 4.16615 123.631 3.8309 122.74 3.8098Z" fill="#231F20"/>
<path d="M130.475 62.9499H58.483C57.5479 62.9241 56.6516 62.5705 55.9507 61.951C55.2498 61.3315 54.7889 60.4854 54.6484 59.5605L47.7604 7.06052C47.6938 6.62822 47.7216 6.18662 47.842 5.7661C47.9623 5.34558 48.1724 4.95612 48.4576 4.62452C48.7454 4.3046 49.0989 4.05074 49.494 3.88037C49.8892 3.71 50.3165 3.62716 50.7466 3.63752H122.739C123.67 3.66216 124.562 4.01155 125.263 4.62518C125.963 5.23881 126.427 6.07804 126.573 6.99752L133.461 59.4975C133.528 59.9298 133.5 60.3714 133.38 60.7919C133.259 61.2124 133.049 61.6019 132.764 61.9335C132.479 62.2588 132.127 62.5181 131.732 62.6937C131.336 62.8692 130.908 62.9566 130.475 62.9499ZM50.7466 3.99452C50.3687 3.9865 49.9936 4.06044 49.6471 4.21125C49.3005 4.36206 48.9907 4.58615 48.739 4.86812C48.4909 5.1588 48.3078 5.49919 48.202 5.86647C48.0962 6.23374 48.0703 6.61939 48.1258 6.99752L55.0138 59.4975C55.1414 60.334 55.5586 61.0991 56.1926 61.6594C56.8266 62.2198 57.6372 62.5397 58.483 62.5635H130.475C130.853 62.5715 131.228 62.4976 131.575 62.3468C131.921 62.196 132.231 61.9719 132.483 61.6899C132.734 61.3978 132.919 61.0547 133.025 60.6842C133.131 60.3136 133.155 59.9245 133.096 59.5437L126.208 7.04372C126.08 6.20726 125.663 5.44213 125.029 4.8818C124.395 4.32147 123.585 4.0015 122.739 3.97772L50.7466 3.99452Z" fill="#231F20"/>
<path d="M44.4177 12.172H123.798L115.876 59.5396C115.707 60.4268 115.24 61.2298 114.553 61.8162C113.866 62.4026 112.999 62.7373 112.096 62.7652H39.1929C38.788 62.779 38.3854 62.7002 38.0156 62.5346C37.6459 62.3691 37.3189 62.1213 37.0596 61.8101C36.8002 61.4989 36.6154 61.1326 36.5193 60.7391C36.4232 60.3455 36.4182 59.9353 36.5049 59.5396L44.4177 12.172Z" fill="white"/>
<path d="M112.109 62.9584H39.1931C38.7666 62.9686 38.3433 62.8842 37.9533 62.7114C37.5634 62.5386 37.2165 62.2816 36.9377 61.9588C36.6595 61.6211 36.4596 61.2261 36.3521 60.802C36.2446 60.378 36.2323 59.9354 36.3161 59.506L44.2289 12.1426C44.2367 12.0981 44.2599 12.0578 44.2945 12.0286C44.329 11.9995 44.3727 11.9833 44.4179 11.983H123.798C123.826 11.9835 123.853 11.9897 123.878 12.0013C123.904 12.0128 123.926 12.0295 123.945 12.0502C123.962 12.072 123.974 12.097 123.982 12.1237C123.989 12.1504 123.991 12.1782 123.987 12.2056L116.066 59.569C115.884 60.4968 115.394 61.3362 114.676 61.9513C113.958 62.5663 113.054 62.9212 112.109 62.9584ZM44.5649 12.3652L36.6941 59.569C36.6204 59.9433 36.63 60.3292 36.7221 60.6994C36.8143 61.0696 36.9868 61.415 37.2275 61.711C37.4735 61.9865 37.7771 62.2046 38.1168 62.3497C38.4565 62.4949 38.8239 62.5636 39.1931 62.551H112.109C112.965 62.5207 113.785 62.2008 114.435 61.6438C115.085 61.0869 115.526 60.3257 115.688 59.485L123.563 12.3442L44.5649 12.3652Z" fill="#231F20"/>
<path d="M49.0416 3.80978H121.958C122.362 3.79593 122.765 3.87478 123.135 4.0403C123.505 4.20582 123.832 4.45364 124.091 4.76483C124.35 5.07603 124.535 5.44236 124.631 5.83588C124.727 6.22939 124.732 6.63966 124.646 7.03538L123.806 12.1678H44.4258L45.2658 7.03538C45.4344 6.14845 45.9004 5.34553 46.5869 4.75911C47.2733 4.1727 48.1392 3.83783 49.0416 3.80978Z" fill="#003C74"/>
<path d="M123.79 12.361H44.41C44.3816 12.3614 44.3535 12.3552 44.328 12.3428C44.3025 12.3304 44.2802 12.3122 44.263 12.2896C44.2439 12.269 44.2301 12.2442 44.2228 12.2171C44.2154 12.19 44.2148 12.1615 44.221 12.1342L45.061 7.00596C45.243 6.07556 45.7366 5.23494 46.4604 4.62264C47.1842 4.01033 48.0949 3.66289 49.0426 3.63756H121.959C122.386 3.62765 122.81 3.7121 123.2 3.88489C123.591 4.05767 123.938 4.31454 124.218 4.63716C124.496 4.97518 124.695 5.37038 124.802 5.79443C124.908 6.21848 124.92 6.66089 124.836 7.08996L123.996 12.2182C123.985 12.263 123.958 12.3022 123.92 12.3285C123.882 12.3549 123.836 12.3664 123.79 12.361ZM44.6452 11.9746H123.63L124.47 7.00596C124.545 6.63168 124.536 6.24554 124.444 5.87522C124.351 5.50489 124.178 5.15956 123.937 4.86396C123.691 4.58844 123.387 4.37038 123.048 4.22523C122.708 4.08007 122.34 4.01136 121.971 4.02396H49.0426C48.1879 4.05524 47.369 4.3755 46.7198 4.9324C46.0706 5.48929 45.6294 6.24991 45.4684 7.08996L44.6452 11.9746Z" fill="#231F20"/>
<path d="M51.2508 55.7176H51.2172C51.1926 55.7135 51.1691 55.7046 51.148 55.6914C51.1268 55.6782 51.1085 55.661 51.0941 55.6407C51.0796 55.6204 51.0694 55.5974 51.0638 55.5731C51.0583 55.5489 51.0576 55.5237 51.0618 55.4992L57.4206 17.4346C57.4298 17.3843 57.4582 17.3397 57.4997 17.3099C57.5412 17.2801 57.5926 17.2676 57.6432 17.275C57.6932 17.2842 57.7375 17.3127 57.7666 17.3544C57.7957 17.3961 57.8072 17.4475 57.7986 17.4976L51.4398 55.5622C51.4311 55.6059 51.4075 55.6453 51.373 55.6736C51.3386 55.7019 51.2954 55.7175 51.2508 55.7176Z" fill="#231F20"/>
<path d="M61.8858 55.7176H61.8522C61.8272 55.714 61.8032 55.7055 61.7816 55.6925C61.76 55.6795 61.7412 55.6623 61.7263 55.642C61.7115 55.6217 61.7008 55.5985 61.695 55.574C61.6892 55.5495 61.6884 55.524 61.6926 55.4992L68.0555 17.4346C68.0565 17.4072 68.0634 17.3802 68.0756 17.3557C68.0879 17.3311 68.1052 17.3094 68.1265 17.292C68.1477 17.2746 68.1725 17.262 68.199 17.255C68.2255 17.2479 68.2533 17.2466 68.2804 17.2511C68.3075 17.2556 68.3333 17.2659 68.3561 17.2811C68.3789 17.2964 68.3982 17.3164 68.4127 17.3397C68.4272 17.363 68.4366 17.3892 68.4401 17.4164C68.4437 17.4436 68.4415 17.4713 68.4335 17.4976L62.0705 55.5622C62.0627 55.6056 62.0399 55.6449 62.0062 55.6732C61.9725 55.7016 61.9298 55.7173 61.8858 55.7176Z" fill="#231F20"/>
<path d="M72.5163 55.7175H72.4869C72.462 55.7139 72.438 55.7054 72.4164 55.6924C72.3948 55.6794 72.376 55.6623 72.3611 55.6419C72.3462 55.6216 72.3356 55.5984 72.3298 55.5739C72.324 55.5494 72.3231 55.524 72.3273 55.4991L78.6861 17.4345C78.6954 17.3843 78.7237 17.3396 78.7652 17.3098C78.8067 17.2801 78.8582 17.2676 78.9087 17.2749C78.9337 17.279 78.9576 17.288 78.9791 17.3014C79.0005 17.3149 79.019 17.3326 79.0335 17.3533C79.048 17.3741 79.0582 17.3975 79.0635 17.4223C79.0687 17.4471 79.0689 17.4727 79.0641 17.4975L72.7053 55.5621C72.6966 55.6058 72.673 55.6452 72.6385 55.6735C72.6041 55.7019 72.5609 55.7174 72.5163 55.7175Z" fill="#231F20"/>
<path d="M83.1509 55.7175H83.1173C83.0925 55.714 83.0686 55.7055 83.0472 55.6924C83.0258 55.6794 83.0073 55.6622 82.9927 55.6417C82.9782 55.6213 82.968 55.5981 82.9627 55.5736C82.9574 55.5491 82.9571 55.5238 82.9619 55.4991L89.3207 17.4346C89.3217 17.4071 89.3286 17.3802 89.3408 17.3556C89.353 17.331 89.3704 17.3093 89.3916 17.292C89.4129 17.2746 89.4376 17.262 89.4642 17.2549C89.4907 17.2479 89.5185 17.2466 89.5455 17.2511C89.5726 17.2556 89.5984 17.2658 89.6213 17.2811C89.6441 17.2964 89.6634 17.3164 89.6779 17.3397C89.6924 17.363 89.7017 17.3891 89.7053 17.4164C89.7089 17.4436 89.7067 17.4713 89.6987 17.4976L83.3399 55.5621C83.3312 55.6059 83.3076 55.6453 83.2732 55.6736C83.2387 55.7019 83.1955 55.7174 83.1509 55.7175Z" fill="#231F20"/>
<path d="M93.7805 55.7176H93.7511C93.7261 55.714 93.7021 55.7055 93.6805 55.6925C93.6589 55.6795 93.6401 55.6623 93.6253 55.642C93.6104 55.6217 93.5997 55.5985 93.5939 55.574C93.5881 55.5495 93.5873 55.524 93.5915 55.4992L99.9545 17.4346C99.9555 17.4072 99.9623 17.3802 99.9745 17.3557C99.9868 17.3311 100.004 17.3094 100.025 17.292C100.047 17.2746 100.071 17.262 100.098 17.255C100.124 17.2479 100.152 17.2466 100.179 17.2511C100.206 17.2556 100.232 17.2659 100.255 17.2811C100.278 17.2964 100.297 17.3164 100.312 17.3397C100.326 17.363 100.335 17.3892 100.339 17.4164C100.343 17.4436 100.34 17.4713 100.332 17.4976L93.9695 55.5622C93.9608 55.6059 93.9372 55.6453 93.9027 55.6736C93.8683 55.7019 93.8251 55.7175 93.7805 55.7176Z" fill="#231F20"/>
<path d="M104.415 55.7176H104.381C104.357 55.7135 104.333 55.7046 104.312 55.6914C104.291 55.6782 104.273 55.661 104.258 55.6407C104.244 55.6204 104.233 55.5974 104.228 55.5732C104.222 55.5489 104.222 55.5237 104.226 55.4992L110.585 17.4346C110.586 17.4072 110.592 17.3802 110.605 17.3557C110.617 17.3311 110.634 17.3094 110.656 17.292C110.677 17.2746 110.702 17.262 110.728 17.255C110.755 17.2479 110.782 17.2466 110.809 17.2511C110.837 17.2556 110.862 17.2659 110.885 17.2811C110.908 17.2964 110.927 17.3164 110.942 17.3397C110.956 17.363 110.966 17.3892 110.969 17.4164C110.973 17.4436 110.971 17.4713 110.963 17.4976L104.625 55.5622C104.616 55.6097 104.589 55.652 104.55 55.6808C104.511 55.7095 104.463 55.7227 104.415 55.7176Z" fill="#231F20"/>
<path d="M51.2508 55.7176H51.2172C51.1926 55.7135 51.1691 55.7046 51.148 55.6914C51.1268 55.6782 51.1085 55.661 51.0941 55.6407C51.0796 55.6204 51.0694 55.5974 51.0638 55.5731C51.0583 55.5489 51.0576 55.5237 51.0618 55.4992L57.4206 17.4346C57.4298 17.3843 57.4582 17.3397 57.4997 17.3099C57.5412 17.2801 57.5926 17.2676 57.6432 17.275C57.6932 17.2842 57.7375 17.3127 57.7666 17.3544C57.7957 17.3961 57.8072 17.4475 57.7986 17.4976L51.4398 55.5622C51.4311 55.6059 51.4075 55.6453 51.373 55.6736C51.3386 55.7019 51.2954 55.7175 51.2508 55.7176Z" stroke="#D1D3D4" stroke-width="0.386399" stroke-linecap="round" stroke-linejoin="round"/>
<path d="M61.8858 55.7176H61.8522C61.8272 55.714 61.8032 55.7055 61.7816 55.6925C61.76 55.6795 61.7412 55.6624 61.7263 55.642C61.7115 55.6217 61.7008 55.5985 61.695 55.574C61.6892 55.5495 61.6884 55.524 61.6926 55.4992L68.0555 17.4346C68.0565 17.4072 68.0634 17.3802 68.0756 17.3557C68.0879 17.3311 68.1052 17.3094 68.1265 17.292C68.1477 17.2746 68.1725 17.262 68.199 17.255C68.2255 17.2479 68.2533 17.2466 68.2804 17.2511C68.3075 17.2556 68.3333 17.2659 68.3561 17.2811C68.3789 17.2964 68.3982 17.3164 68.4127 17.3397C68.4272 17.363 68.4366 17.3892 68.4401 17.4164C68.4437 17.4436 68.4415 17.4713 68.4335 17.4976L62.0705 55.5622C62.0627 55.6056 62.0399 55.6449 62.0062 55.6732C61.9725 55.7016 61.9298 55.7173 61.8858 55.7176Z" stroke="#D1D3D4" stroke-width="0.386399" stroke-linecap="round" stroke-linejoin="round"/>
<path d="M72.5163 55.7175H72.4869C72.462 55.7139 72.438 55.7054 72.4164 55.6924C72.3948 55.6794 72.376 55.6623 72.3611 55.6419C72.3462 55.6216 72.3356 55.5985 72.3298 55.5739C72.324 55.5494 72.3231 55.524 72.3273 55.4991L78.6861 17.4345C78.6954 17.3843 78.7237 17.3396 78.7652 17.3098C78.8067 17.2801 78.8582 17.2676 78.9087 17.2749C78.9337 17.279 78.9576 17.288 78.9791 17.3014C79.0005 17.3149 79.019 17.3326 79.0335 17.3533C79.048 17.3741 79.0582 17.3975 79.0635 17.4223C79.0687 17.4471 79.0689 17.4727 79.0641 17.4975L72.7053 55.5621C72.6966 55.6058 72.673 55.6452 72.6385 55.6735C72.6041 55.7019 72.5609 55.7174 72.5163 55.7175Z" stroke="#D1D3D4" stroke-width="0.386399" stroke-linecap="round" stroke-linejoin="round"/>
<path d="M83.1509 55.7175H83.1173C83.0925 55.714 83.0686 55.7055 83.0472 55.6924C83.0258 55.6794 83.0073 55.6622 82.9927 55.6417C82.9782 55.6213 82.968 55.5981 82.9627 55.5736C82.9574 55.5491 82.9571 55.5238 82.9619 55.4991L89.3207 17.4346C89.3217 17.4071 89.3286 17.3802 89.3408 17.3556C89.353 17.331 89.3704 17.3093 89.3916 17.292C89.4129 17.2746 89.4376 17.262 89.4642 17.2549C89.4907 17.2479 89.5185 17.2466 89.5456 17.2511C89.5726 17.2556 89.5984 17.2658 89.6213 17.2811C89.6441 17.2964 89.6634 17.3164 89.6779 17.3397C89.6924 17.363 89.7017 17.3891 89.7053 17.4164C89.7089 17.4436 89.7067 17.4713 89.6987 17.4976L83.3399 55.5622C83.3312 55.6059 83.3076 55.6453 83.2732 55.6736C83.2387 55.7019 83.1955 55.7174 83.1509 55.7175Z" stroke="#D1D3D4" stroke-width="0.386399" stroke-linecap="round" stroke-linejoin="round"/>
<path d="M93.7805 55.7176H93.7511C93.7261 55.714 93.7021 55.7055 93.6805 55.6925C93.6589 55.6795 93.6401 55.6624 93.6253 55.642C93.6104 55.6217 93.5997 55.5985 93.5939 55.574C93.5881 55.5495 93.5873 55.524 93.5915 55.4992L99.9545 17.4346C99.9555 17.4072 99.9623 17.3802 99.9745 17.3557C99.9868 17.3311 100.004 17.3094 100.025 17.292C100.047 17.2746 100.071 17.262 100.098 17.255C100.124 17.2479 100.152 17.2466 100.179 17.2511C100.206 17.2556 100.232 17.2659 100.255 17.2811C100.278 17.2964 100.297 17.3164 100.312 17.3397C100.326 17.363 100.335 17.3892 100.339 17.4164C100.343 17.4436 100.34 17.4713 100.332 17.4976L93.9695 55.5622C93.9608 55.6059 93.9372 55.6453 93.9027 55.6736C93.8683 55.7019 93.8251 55.7175 93.7805 55.7176Z" stroke="#D1D3D4" stroke-width="0.386399" stroke-linecap="round" stroke-linejoin="round"/>
<path d="M104.415 55.7176H104.381C104.357 55.7135 104.333 55.7046 104.312 55.6914C104.291 55.6782 104.273 55.661 104.258 55.6407C104.244 55.6204 104.233 55.5974 104.228 55.5732C104.222 55.5489 104.222 55.5237 104.226 55.4992L110.585 17.4346C110.586 17.4072 110.592 17.3802 110.605 17.3557C110.617 17.3311 110.634 17.3094 110.656 17.292C110.677 17.2746 110.702 17.262 110.728 17.255C110.755 17.2479 110.782 17.2466 110.809 17.2511C110.837 17.2556 110.862 17.2659 110.885 17.2811C110.908 17.2964 110.927 17.3164 110.942 17.3397C110.956 17.363 110.966 17.3892 110.969 17.4164C110.973 17.4436 110.971 17.4713 110.963 17.4976L104.625 55.5622C104.616 55.6097 104.589 55.652 104.55 55.6808C104.511 55.7095 104.463 55.7227 104.415 55.7176Z" stroke="#D1D3D4" stroke-width="0.386399" stroke-linecap="round" stroke-linejoin="round"/>
<path d="M117.38 26.4813H48.0546C48.0271 26.4854 47.9991 26.4835 47.9724 26.4758C47.9458 26.4681 47.9211 26.4547 47.9 26.4366C47.879 26.4184 47.8621 26.396 47.8506 26.3707C47.839 26.3455 47.833 26.318 47.833 26.2902C47.833 26.2625 47.839 26.235 47.8506 26.2098C47.8621 26.1845 47.879 26.1621 47.9 26.1439C47.9211 26.1258 47.9458 26.1124 47.9724 26.1047C47.9991 26.097 48.0271 26.0951 48.0546 26.0991H117.38C117.407 26.0951 117.435 26.097 117.462 26.1047C117.489 26.1124 117.513 26.1258 117.534 26.1439C117.555 26.1621 117.572 26.1845 117.584 26.2098C117.595 26.235 117.601 26.2625 117.601 26.2902C117.601 26.318 117.595 26.3455 117.584 26.3707C117.572 26.396 117.555 26.4184 117.534 26.4366C117.513 26.4547 117.489 26.4681 117.462 26.4758C117.435 26.4835 117.407 26.4854 117.38 26.4813Z" fill="#231F20"/>
<path d="M115.675 36.6873H46.3495C46.3221 36.6914 46.294 36.6895 46.2674 36.6818C46.2407 36.6741 46.216 36.6607 46.195 36.6426C46.1739 36.6244 46.1571 36.602 46.1455 36.5767C46.1339 36.5515 46.1279 36.524 46.1279 36.4962C46.1279 36.4685 46.1339 36.441 46.1455 36.4158C46.1571 36.3905 46.1739 36.3681 46.195 36.3499C46.216 36.3318 46.2407 36.3184 46.2674 36.3107C46.294 36.3029 46.3221 36.3011 46.3495 36.3051H115.675C115.702 36.3011 115.73 36.3029 115.757 36.3107C115.783 36.3184 115.808 36.3318 115.829 36.3499C115.85 36.3681 115.867 36.3905 115.879 36.4158C115.89 36.441 115.896 36.4685 115.896 36.4962C115.896 36.524 115.89 36.5515 115.879 36.5767C115.867 36.602 115.85 36.6244 115.829 36.6426C115.808 36.6607 115.783 36.6741 115.757 36.6818C115.73 36.6895 115.702 36.6914 115.675 36.6873Z" fill="#231F20"/>
<path d="M113.97 46.8976H44.6449C44.5936 46.8976 44.5445 46.8772 44.5082 46.841C44.472 46.8048 44.4517 46.7556 44.4517 46.7044C44.4517 46.6532 44.472 46.604 44.5082 46.5678C44.5445 46.5316 44.5936 46.5112 44.6449 46.5112H113.97C114.021 46.5112 114.07 46.5316 114.107 46.5678C114.143 46.604 114.163 46.6532 114.163 46.7044C114.163 46.7556 114.143 46.8048 114.107 46.841C114.07 46.8772 114.021 46.8976 113.97 46.8976Z" fill="#231F20"/>
<path d="M48.0557 26.2882H117.381" stroke="#D1D3D4" stroke-width="0.386399" stroke-linecap="round" stroke-linejoin="round"/>
<path d="M117.38 26.4813H48.0546C48.0271 26.4854 47.9991 26.4835 47.9724 26.4758C47.9458 26.4681 47.9211 26.4547 47.9 26.4366C47.879 26.4184 47.8621 26.396 47.8506 26.3707C47.839 26.3455 47.833 26.318 47.833 26.2902C47.833 26.2625 47.839 26.235 47.8506 26.2098C47.8621 26.1845 47.879 26.1621 47.9 26.1439C47.9211 26.1258 47.9458 26.1124 47.9724 26.1047C47.9991 26.097 48.0271 26.0951 48.0546 26.0991H117.38C117.407 26.0951 117.435 26.097 117.462 26.1047C117.489 26.1124 117.513 26.1258 117.534 26.1439C117.555 26.1621 117.572 26.1845 117.584 26.2098C117.595 26.235 117.601 26.2625 117.601 26.2902C117.601 26.318 117.595 26.3455 117.584 26.3707C117.572 26.396 117.555 26.4184 117.534 26.4366C117.513 26.4547 117.489 26.4681 117.462 26.4758C117.435 26.4835 117.407 26.4854 117.38 26.4813Z" stroke="#D1D3D4" stroke-width="0.386399" stroke-linecap="round" stroke-linejoin="round"/>
<path d="M46.3491 36.4984H115.674" stroke="#D1D3D4" stroke-width="0.386399" stroke-linecap="round" stroke-linejoin="round"/>
<path d="M115.675 36.6873H46.3495C46.3221 36.6914 46.294 36.6895 46.2674 36.6818C46.2407 36.6741 46.216 36.6607 46.195 36.6426C46.1739 36.6244 46.1571 36.602 46.1455 36.5767C46.1339 36.5515 46.1279 36.524 46.1279 36.4962C46.1279 36.4685 46.1339 36.441 46.1455 36.4158C46.1571 36.3905 46.1739 36.3681 46.195 36.3499C46.216 36.3318 46.2407 36.3184 46.2674 36.3107C46.294 36.3029 46.3221 36.3011 46.3495 36.3051H115.675C115.702 36.3011 115.73 36.3029 115.757 36.3107C115.783 36.3184 115.808 36.3318 115.829 36.3499C115.85 36.3681 115.867 36.3905 115.879 36.4158C115.89 36.441 115.896 36.4685 115.896 36.4962C115.896 36.524 115.89 36.5515 115.879 36.5767C115.867 36.602 115.85 36.6244 115.829 36.6426C115.808 36.6607 115.783 36.6741 115.757 36.6818C115.73 36.6895 115.702 36.6914 115.675 36.6873Z" stroke="#D1D3D4" stroke-width="0.386399" stroke-linecap="round" stroke-linejoin="round"/>
<path d="M44.645 46.7044H113.97" stroke="#D1D3D4" stroke-width="0.386399" stroke-linecap="round" stroke-linejoin="round"/>
<path d="M113.97 46.8976H44.6449C44.5936 46.8976 44.5445 46.8772 44.5082 46.841C44.472 46.8048 44.4517 46.7556 44.4517 46.7044C44.4517 46.6532 44.472 46.604 44.5082 46.5678C44.5445 46.5316 44.5936 46.5112 44.6449 46.5112H113.97C114.021 46.5112 114.07 46.5316 114.107 46.5678C114.143 46.604 114.163 46.6532 114.163 46.7044C114.163 46.7556 114.143 46.8048 114.107 46.841C114.07 46.8772 114.021 46.8976 113.97 46.8976Z" stroke="#D1D3D4" stroke-width="0.386399" stroke-linecap="round" stroke-linejoin="round"/>
<path d="M67.8116 34.558C67.7836 34.5586 67.7558 34.5529 67.7303 34.5413C67.7049 34.5296 67.6824 34.5124 67.6646 34.4908C67.6328 34.4515 67.6177 34.4015 67.6224 34.3512C67.6271 34.301 67.6513 34.2546 67.6898 34.222L75.1028 28.0522C75.142 28.0204 75.1921 28.0053 75.2423 28.01C75.2925 28.0147 75.3389 28.0389 75.3716 28.0774C75.4035 28.1173 75.4188 28.168 75.4141 28.219C75.4094 28.2699 75.3851 28.317 75.3464 28.3504L67.9376 34.516C67.9017 34.5441 67.8572 34.5589 67.8116 34.558Z" fill="#003C74"/>
<path d="M74.192 34.558C74.1652 34.558 74.1386 34.5524 74.114 34.5416C74.0894 34.5307 74.0674 34.5149 74.0492 34.495L68.6985 28.3252C68.6636 28.2892 68.644 28.241 68.644 28.1908C68.644 28.1406 68.6636 28.0924 68.6985 28.0564C68.7171 28.0394 68.7391 28.0263 68.763 28.0181C68.7869 28.0099 68.8122 28.0067 68.8374 28.0087C68.8626 28.0106 68.8871 28.0178 68.9094 28.0296C68.9318 28.0414 68.9515 28.0577 68.9673 28.0774L74.318 34.243C74.3529 34.279 74.3724 34.3272 74.3724 34.3774C74.3724 34.4276 74.3529 34.4758 74.318 34.5118C74.3012 34.5275 74.2814 34.5397 74.2597 34.5477C74.2381 34.5556 74.2151 34.5591 74.192 34.558Z" fill="#003C74"/>
<path d="M98.1946 45.3353C98.1664 45.3348 98.1386 45.3282 98.1132 45.3159C98.0878 45.3035 98.0654 45.2858 98.0476 45.2639C98.0314 45.2447 98.0191 45.2224 98.0116 45.1984C98.0041 45.1745 98.0014 45.1492 98.0038 45.1242C98.0061 45.0991 98.0134 45.0748 98.0253 45.0527C98.0371 45.0305 98.0533 45.0109 98.0728 44.9951L105.465 38.8295C105.484 38.8101 105.506 38.7949 105.531 38.7849C105.556 38.7748 105.583 38.7701 105.61 38.7711C105.637 38.772 105.664 38.7786 105.688 38.7904C105.712 38.8022 105.734 38.819 105.751 38.8396C105.768 38.8603 105.781 38.8843 105.789 38.9102C105.796 38.9361 105.798 38.9633 105.795 38.9901C105.791 39.0168 105.782 39.0425 105.768 39.0655C105.754 39.0885 105.735 39.1082 105.713 39.1235L98.3248 45.2891C98.2886 45.32 98.2422 45.3364 98.1946 45.3353Z" fill="#003C74"/>
<path d="M104.574 45.3352C104.547 45.3353 104.52 45.3293 104.495 45.3176C104.47 45.306 104.449 45.2891 104.431 45.268L99.0804 39.1024C99.0442 39.0662 99.0239 39.0171 99.0239 38.9659C99.0239 38.9148 99.0442 38.8657 99.0804 38.8294C99.1198 38.797 99.1702 38.781 99.2211 38.7849C99.272 38.7888 99.3194 38.8123 99.3534 38.8504L104.7 45.016C104.736 45.0523 104.756 45.1014 104.756 45.1525C104.756 45.2037 104.736 45.2528 104.7 45.289C104.664 45.3184 104.62 45.3347 104.574 45.3352Z" fill="#003C74"/>
<path d="M106.254 62.614L116.556 54.5542H110.597C109.76 54.5834 108.959 54.8962 108.324 55.4411C107.689 55.9861 107.258 56.7308 107.102 57.553L106.254 62.614Z" fill="white"/>
<path d="M106.255 62.8073C106.221 62.8075 106.188 62.7988 106.158 62.7821C106.125 62.7619 106.099 62.7324 106.083 62.6973C106.066 62.6622 106.06 62.623 106.066 62.5847L106.906 57.5195C107.072 56.6543 107.527 55.8711 108.196 55.298C108.865 54.725 109.709 54.3962 110.589 54.3653H116.549C116.589 54.3644 116.629 54.3767 116.661 54.4002C116.694 54.4237 116.718 54.4571 116.73 54.4955C116.744 54.5326 116.745 54.5732 116.734 54.6112C116.723 54.6491 116.699 54.6823 116.667 54.7055L106.368 62.7653C106.336 62.7911 106.296 62.8058 106.255 62.8073ZM110.598 54.7475C109.807 54.7754 109.049 55.0712 108.449 55.5863C107.848 56.1014 107.441 56.8053 107.292 57.5825L106.528 62.1605L116.003 54.7475H110.598Z" fill="#231F20"/>
<path d="M101.169 9.90395C101.021 9.90369 100.876 9.86458 100.749 9.79056C100.04 9.37811 99.4383 8.80546 98.9909 8.11849C98.5435 7.43152 98.2632 6.64931 98.1724 5.83453C98.0817 5.01975 98.183 4.19503 98.4683 3.42645C98.7535 2.65787 99.2149 1.96678 99.8152 1.40854C100.416 0.850294 101.138 0.440419 101.926 0.211739C102.713 -0.0169419 103.543 -0.0580723 104.349 0.0916462C105.155 0.241365 105.915 0.577769 106.567 1.07391C107.22 1.57006 107.747 2.21215 108.107 2.94876C108.205 3.14926 108.22 3.38049 108.147 3.59159C108.075 3.80268 107.921 3.97633 107.721 4.07436C107.52 4.17238 107.289 4.18674 107.078 4.11428C106.867 4.04181 106.693 3.88846 106.595 3.68796C106.242 2.96257 105.652 2.37843 104.924 2.03083C104.196 1.68323 103.371 1.59267 102.585 1.77393C101.798 1.95519 101.096 2.39757 100.594 3.02891C100.091 3.66026 99.817 4.44331 99.8165 5.25036C99.8174 5.87578 99.9818 6.49009 100.293 7.03234C100.605 7.57458 101.053 8.02592 101.593 8.34155C101.751 8.43509 101.873 8.57764 101.943 8.74746C102.012 8.91727 102.023 9.10502 101.976 9.28207C101.928 9.45911 101.824 9.61572 101.679 9.72801C101.534 9.84029 101.356 9.90208 101.173 9.90395H101.169Z" fill="#231F20"/>
<path d="M82.2727 9.90402C82.1251 9.90376 81.9803 9.86465 81.8527 9.79062C80.854 9.21081 80.0745 8.31794 79.6346 7.25027C79.1947 6.18259 79.1191 4.99968 79.4195 3.8847C79.7199 2.76973 80.3795 1.78489 81.2962 1.08269C82.2129 0.380487 83.3355 9.69732e-05 84.4903 0.000424442C85.4742 -0.00422224 86.4395 0.269311 87.2747 0.789485C88.11 1.30966 88.7812 2.05529 89.211 2.94042C89.3091 3.14093 89.3234 3.37216 89.251 3.58325C89.1785 3.79434 89.0252 3.968 88.8246 4.06602C88.6241 4.16405 88.3929 4.17841 88.1818 4.10594C87.9707 4.03348 87.7971 3.88013 87.699 3.67962C87.3453 2.95423 86.7562 2.3701 86.0279 2.0225C85.2995 1.6749 84.4749 1.58434 83.6884 1.7656C82.902 1.94686 82.2002 2.38924 81.6975 3.02058C81.1948 3.65192 80.9208 4.43498 80.9203 5.24202C80.9212 5.86794 81.0861 6.48269 81.3985 7.02504C81.711 7.5674 82.1601 8.01843 82.7011 8.33322C82.8587 8.42676 82.9815 8.56931 83.0506 8.73912C83.1196 8.90893 83.1313 9.09669 83.0837 9.27373C83.0361 9.45077 82.9319 9.60739 82.787 9.71967C82.642 9.83196 82.4644 9.89375 82.2811 9.89562L82.2727 9.90402Z" fill="#231F20"/>
<path d="M63.3769 9.90398C63.2291 9.90558 63.0838 9.86634 62.9569 9.79058C62.2474 9.37882 61.6444 8.80655 61.196 8.11967C60.7476 7.43279 60.4665 6.65041 60.375 5.83525C60.2836 5.0201 60.3844 4.19486 60.6694 3.4257C60.9544 2.65655 61.4157 1.96488 62.0163 1.40617C62.6169 0.847449 63.34 0.437229 64.1277 0.208398C64.9154 -0.0204328 65.7457 -0.0615073 66.5522 0.0884693C67.3586 0.238446 68.1187 0.5753 68.7715 1.07202C69.4242 1.56874 69.9515 2.21151 70.3111 2.94878C70.3635 3.0482 70.3955 3.15715 70.4051 3.26916C70.4148 3.38117 70.4018 3.49397 70.367 3.60088C70.3322 3.70778 70.2763 3.80662 70.2026 3.89152C70.1289 3.97643 70.0389 4.04568 69.938 4.09517C69.837 4.14465 69.7272 4.17337 69.6149 4.17963C69.5027 4.18588 69.3903 4.16954 69.2845 4.13156C69.1787 4.09359 69.0816 4.03476 68.9989 3.95857C68.9162 3.88237 68.8497 3.79036 68.8033 3.68798C68.4508 2.96023 67.8617 2.37368 67.1324 2.02438C66.4032 1.67507 65.5769 1.58369 64.7889 1.76519C64.001 1.94669 63.2979 2.39033 62.795 3.02348C62.292 3.65662 62.0189 4.44176 62.0203 5.25038C62.022 5.87612 62.1873 6.49054 62.4997 7.03275C62.812 7.57497 63.2606 8.02614 63.8011 8.34158C63.9587 8.43511 64.0815 8.57766 64.1506 8.74748C64.2197 8.91729 64.2313 9.10504 64.1837 9.28209C64.1361 9.45913 64.0319 9.61574 63.887 9.72803C63.7421 9.84031 63.5644 9.9021 63.3811 9.90398H63.3769Z" fill="#231F20"/>
<path d="M61.7837 2.57921C61.7472 2.57939 61.7112 2.57074 61.6787 2.55401C61.6301 2.52585 61.5944 2.47968 61.5795 2.42546C61.5645 2.37124 61.5715 2.31332 61.5989 2.26421C61.9998 1.65255 62.5585 1.16061 63.2159 0.840407C63.2412 0.824824 63.2694 0.814756 63.2988 0.810866C63.3282 0.806977 63.358 0.809356 63.3864 0.817842C63.4148 0.826329 63.4411 0.840731 63.4636 0.860104C63.486 0.879478 63.5041 0.903384 63.5166 0.930248C63.5292 0.957111 63.5359 0.986323 63.5363 1.01596C63.5367 1.0456 63.5309 1.075 63.5192 1.10222C63.5074 1.12945 63.49 1.15387 63.4682 1.1739C63.4463 1.19392 63.4205 1.20909 63.3923 1.21841C62.8157 1.50839 62.3239 1.94242 61.9643 2.47841C61.9455 2.50937 61.919 2.53492 61.8873 2.55258C61.8557 2.57025 61.82 2.57942 61.7837 2.57921Z" fill="white"/>
<path d="M80.925 2.57925C80.8883 2.57903 80.8522 2.56917 80.8205 2.55064C80.7887 2.53212 80.7624 2.50559 80.7441 2.47371C80.7258 2.44182 80.7163 2.40569 80.7163 2.36894C80.7164 2.33218 80.7261 2.29608 80.7444 2.26425C81.1455 1.65119 81.7059 1.15896 82.3656 0.840451C82.4158 0.817448 82.473 0.81513 82.5249 0.833994C82.5768 0.852859 82.6192 0.891391 82.6428 0.941253C82.6548 0.966009 82.6617 0.992909 82.6631 1.02037C82.6645 1.04783 82.6604 1.07529 82.651 1.10113C82.6416 1.12697 82.6271 1.15066 82.6084 1.17082C82.5897 1.19097 82.5671 1.20716 82.542 1.21845C81.9655 1.50844 81.4736 1.94246 81.114 2.47845C81.0945 2.51067 81.0666 2.53702 81.0334 2.55476C81.0001 2.57249 80.9627 2.58096 80.925 2.57925Z" fill="white"/>
<path d="M99.617 2.57925C99.5805 2.57896 99.5446 2.57033 99.512 2.55405C99.464 2.5252 99.4293 2.47872 99.4151 2.42456C99.401 2.37039 99.4086 2.31285 99.4364 2.26425C99.8361 1.65317 100.393 1.16127 101.049 0.840447C101.074 0.828404 101.101 0.821461 101.129 0.820016C101.157 0.818572 101.185 0.822655 101.211 0.832033C101.237 0.84141 101.261 0.855892 101.282 0.874641C101.302 0.893389 101.319 0.916031 101.331 0.94125C101.343 0.966005 101.349 0.992905 101.351 1.02036C101.352 1.04782 101.348 1.07529 101.339 1.10113C101.329 1.12697 101.315 1.15066 101.296 1.17081C101.277 1.19096 101.255 1.20716 101.23 1.21845C100.653 1.50843 100.161 1.94246 99.8018 2.47845C99.782 2.50946 99.7547 2.53496 99.7223 2.55258C99.69 2.57021 99.6538 2.57938 99.617 2.57925Z" fill="white"/>
<path d="M16.424 8.59758L6.75146 9.09265L9.20619 57.0527L18.8787 56.5576L16.424 8.59758Z" fill="white"/>
<path d="M9.21336 57.2464C9.16354 57.2464 9.11563 57.2272 9.07963 57.1928C9.04363 57.1584 9.02232 57.1114 9.02016 57.0616L6.56316 9.09761C6.56104 9.07258 6.56404 9.04738 6.57198 9.02355C6.57993 8.99972 6.59265 8.97776 6.60936 8.95901C6.64355 8.91976 6.69185 8.89561 6.74376 8.89181L16.4037 8.39621C16.4551 8.39496 16.5051 8.4134 16.5433 8.44775C16.5816 8.4821 16.6053 8.52977 16.6095 8.58101L19.0791 56.5576C19.0815 56.583 19.0782 56.6086 19.0695 56.6326C19.0608 56.6565 19.0469 56.6783 19.0287 56.6962C19.0125 56.7164 18.9921 56.7328 18.9689 56.7444C18.9457 56.756 18.9203 56.7625 18.8943 56.7634L9.23436 57.259L9.21336 57.2464ZM6.95796 9.27401L9.39816 56.8474L18.6843 56.3728L16.2441 8.79941L6.95796 9.27401Z" fill="#D1D3D4"/>
<path d="M7.95298 57.0429L9.24658 56.9782L6.84545 8.95544L5.55185 9.02012L7.95298 57.0429Z" fill="white"/>
<path d="M7.924 57.3093C7.87669 57.3087 7.83091 57.2925 7.7938 57.2631C7.75714 57.2275 7.73474 57.1797 7.7308 57.1287L5.27381 9.16893C5.27135 9.14324 5.27418 9.11731 5.28213 9.09275C5.29007 9.06819 5.30296 9.04552 5.32001 9.02614C5.35565 8.98948 5.40343 8.96707 5.45441 8.96314L6.74381 8.89593C6.79521 8.89468 6.84514 8.91312 6.8834 8.94748C6.92165 8.98183 6.94534 9.0295 6.94961 9.08073L9.4066 57.0405C9.40891 57.0922 9.39083 57.1427 9.35627 57.1812C9.32171 57.2197 9.27343 57.2431 9.2218 57.2463L7.9324 57.3093H7.924ZM5.66861 9.34114L8.1088 56.9145L9.0118 56.8683L6.57161 9.29494L5.66861 9.34114Z" fill="#D1D3D4"/>
<path d="M7.1849 11.8486C7.13366 11.8486 7.08452 11.8283 7.04829 11.792C7.01205 11.7558 6.9917 11.7066 6.9917 11.6554C6.9917 11.6042 7.01205 11.555 7.04829 11.5188C7.08452 11.4826 7.13366 11.4622 7.1849 11.4622L9.0077 11.3656C9.03307 11.3645 9.05842 11.3684 9.0823 11.3771C9.10617 11.3857 9.1281 11.399 9.14682 11.4162C9.16555 11.4334 9.1807 11.4541 9.19142 11.4771C9.20214 11.5001 9.20822 11.525 9.2093 11.5504C9.211 11.5756 9.20765 11.6008 9.19944 11.6247C9.19123 11.6485 9.17833 11.6705 9.1615 11.6893C9.14467 11.7081 9.12425 11.7233 9.10144 11.7341C9.07863 11.7448 9.0539 11.7509 9.0287 11.752L7.2059 11.8486H7.1849Z" fill="#D1D3D4"/>
<path d="M7.33132 15.07C7.2818 15.069 7.23446 15.0495 7.19867 15.0153C7.16288 14.981 7.14127 14.9346 7.13812 14.8852C7.13641 14.8597 7.13989 14.8341 7.14836 14.81C7.15683 14.7858 7.1701 14.7637 7.18737 14.7448C7.20465 14.726 7.22557 14.7109 7.24887 14.7003C7.27216 14.6898 7.29736 14.6841 7.32292 14.6836L9.20872 14.5828C9.26012 14.5815 9.31005 14.6 9.34831 14.6343C9.38656 14.6687 9.41025 14.7164 9.41452 14.7676C9.41564 14.793 9.41175 14.8183 9.40307 14.8422C9.39439 14.8661 9.38109 14.888 9.36392 14.9067C9.34676 14.9254 9.32607 14.9406 9.30304 14.9513C9.28001 14.962 9.25509 14.9681 9.22971 14.9692L7.33972 15.07H7.33132Z" fill="#D1D3D4"/>
<path d="M7.49583 18.2914C7.44896 18.2845 7.40612 18.261 7.37516 18.2251C7.34419 18.1892 7.32715 18.1434 7.32715 18.0961C7.32715 18.0487 7.34419 18.0029 7.37516 17.967C7.40612 17.9312 7.44896 17.9077 7.49583 17.9008L10.671 17.7412C10.7216 17.7389 10.771 17.7565 10.8087 17.7903C10.8464 17.824 10.8694 17.8713 10.8726 17.9218C10.875 17.9728 10.8575 18.0227 10.8238 18.0611C10.7901 18.0994 10.7429 18.1233 10.692 18.1276L7.51683 18.2872L7.49583 18.2914Z" fill="#D1D3D4"/>
<path d="M7.66385 21.5086C7.61443 21.5098 7.56652 21.4915 7.5304 21.4577C7.49428 21.424 7.47284 21.3774 7.47065 21.328C7.46894 21.3026 7.47226 21.2772 7.48042 21.2531C7.48858 21.229 7.50142 21.2067 7.5182 21.1876C7.53498 21.1685 7.55537 21.1529 7.57821 21.1416C7.60104 21.1304 7.62586 21.1238 7.65125 21.1222L9.47405 21.0298C9.49943 21.0287 9.52478 21.0326 9.54865 21.0413C9.57252 21.0499 9.59445 21.0632 9.61317 21.0804C9.6319 21.0976 9.64705 21.1183 9.65777 21.1413C9.66849 21.1643 9.67457 21.1892 9.67565 21.2146C9.67735 21.2398 9.674 21.265 9.66579 21.2889C9.65758 21.3127 9.64468 21.3347 9.62785 21.3535C9.61102 21.3723 9.5906 21.3875 9.56779 21.3983C9.54498 21.4091 9.52025 21.4152 9.49505 21.4162L7.67225 21.5086H7.66385Z" fill="#D1D3D4"/>
<path d="M7.82767 24.73C7.77854 24.7301 7.73122 24.7115 7.69533 24.6779C7.65944 24.6444 7.63768 24.5984 7.63447 24.5494C7.63217 24.4977 7.65024 24.4472 7.6848 24.4087C7.71936 24.3702 7.76765 24.3469 7.81927 24.3436L9.74707 24.247C9.79831 24.247 9.84745 24.2674 9.88368 24.3036C9.91992 24.3398 9.94027 24.389 9.94027 24.4402C9.94027 24.4914 9.91992 24.5406 9.88368 24.5768C9.84745 24.6131 9.79831 24.6334 9.74707 24.6334L7.81507 24.73H7.82767Z" fill="#D1D3D4"/>
<path d="M7.99076 27.9513C7.94192 27.9505 7.89513 27.9315 7.85944 27.8982C7.82376 27.8648 7.80171 27.8194 7.79756 27.7707C7.79526 27.7191 7.81333 27.6685 7.84789 27.6301C7.88245 27.5916 7.93074 27.5682 7.98236 27.5649L11.1576 27.4053C11.1827 27.4036 11.208 27.407 11.2318 27.4152C11.2557 27.4234 11.2776 27.4363 11.2964 27.4531C11.3152 27.47 11.3304 27.4904 11.3412 27.5132C11.352 27.536 11.3581 27.5607 11.3592 27.5859C11.3615 27.6376 11.3434 27.6881 11.3088 27.7266C11.2743 27.7651 11.226 27.7885 11.1744 27.7917L8.00336 27.9513H7.99076Z" fill="#D1D3D4"/>
<path d="M29.1327 21.24L25.1118 20.8889L21.6719 60.2862L25.6928 60.6373L29.1327 21.24Z" fill="white"/>
<path d="M25.686 60.8374L21.6666 60.4888C21.6415 60.4868 21.6171 60.4799 21.5947 60.4683C21.5724 60.4568 21.5526 60.4409 21.5364 60.4216C21.5032 60.3817 21.4867 60.3306 21.4902 60.2788L24.9132 20.8576C24.9195 20.8071 24.9447 20.7609 24.9836 20.7282C25.0225 20.6955 25.0724 20.6787 25.1232 20.6812L29.1468 21.034C29.1721 21.0361 29.1966 21.0432 29.2191 21.055C29.2415 21.0668 29.2613 21.0829 29.2774 21.1025C29.2935 21.1221 29.3054 21.1447 29.3126 21.169C29.3197 21.1933 29.3219 21.2188 29.319 21.244L25.8792 60.6442C25.8792 60.6954 25.8589 60.7446 25.8226 60.7808C25.7864 60.817 25.7373 60.8374 25.686 60.8374ZM21.885 60.115L25.518 60.4342L28.9284 21.4204L25.2912 21.1012L21.885 60.115Z" fill="#D1D3D4"/>
<path d="M29.1296 21.244C28.5248 21.6421 27.8067 21.8323 27.0842 21.7858C26.7069 21.8055 26.3305 21.7346 25.9863 21.5789C25.6421 21.4233 25.3403 21.1875 25.106 20.8912L26.6138 17.0398L27.7142 14.2342L28.3106 17.1742L29.1296 21.244Z" fill="white"/>
<path d="M27.0833 21.9832C26.6735 22.0052 26.2646 21.9268 25.892 21.7548C25.5194 21.5828 25.1945 21.3224 24.9455 20.9962C24.9278 20.9708 24.9166 20.9414 24.9129 20.9107C24.9093 20.8799 24.9132 20.8487 24.9245 20.8198L27.5327 14.1628C27.5467 14.123 27.574 14.0893 27.6099 14.0671C27.6458 14.045 27.6882 14.0358 27.7301 14.041C27.7715 14.0455 27.8105 14.0629 27.8414 14.0908C27.8723 14.1187 27.8936 14.1557 27.9023 14.1964L29.3177 21.202C29.3239 21.2367 29.321 21.2723 29.3092 21.3055C29.2974 21.3386 29.2772 21.3681 29.2505 21.391C29.2253 21.4162 28.5323 21.9832 27.0833 21.9832ZM25.3235 20.8576C25.5453 21.1009 25.818 21.2925 26.1221 21.4188C26.4262 21.5451 26.7543 21.603 27.0833 21.5884C27.7206 21.6189 28.3541 21.4736 28.9145 21.1684L27.6545 14.9272L25.3235 20.8576Z" fill="#D1D3D4"/>
<path d="M28.3106 17.1868L26.6138 17.0398L27.7142 14.2342L28.3106 17.1868Z" fill="#003C74"/>
<path d="M28.3108 17.38L26.6308 17.233C26.6016 17.2292 26.5736 17.2189 26.5489 17.203C26.5242 17.187 26.5034 17.1657 26.488 17.1406C26.4747 17.1146 26.4678 17.0858 26.4678 17.0566C26.4678 17.0274 26.4747 16.9986 26.488 16.9726L27.5842 14.1628C27.5989 14.1234 27.6262 14.0901 27.662 14.068C27.6977 14.046 27.7398 14.0365 27.7816 14.041C27.8225 14.0456 27.8608 14.0632 27.8911 14.0911C27.9213 14.1191 27.9418 14.156 27.9496 14.1964L28.5502 17.1364C28.5557 17.1644 28.5551 17.1932 28.5482 17.2209C28.5413 17.2486 28.5283 17.2744 28.5102 17.2965C28.4922 17.3186 28.4694 17.3364 28.4436 17.3487C28.4179 17.3609 28.3897 17.3673 28.3612 17.3674L28.3108 17.38ZM26.887 16.8718L28.0714 16.9768L27.6514 14.9104L26.887 16.8718Z" fill="#003C74"/>
<path d="M23.8043 20.2619L20.6411 19.9857L17.9341 50.9898L21.0972 51.266L23.8043 20.2619Z" fill="white"/>
<path d="M21.1 51.4587L17.9332 51.1815C17.908 51.1795 17.8834 51.1723 17.861 51.1605C17.8385 51.1488 17.8187 51.1326 17.8026 51.113C17.7866 51.0934 17.7746 51.0708 17.7674 51.0465C17.7603 51.0222 17.7581 50.9967 17.761 50.9715L20.4658 19.9672C20.4711 19.9163 20.496 19.8694 20.5352 19.8365C20.5743 19.8036 20.6248 19.7872 20.6758 19.7908L23.8426 20.068C23.893 20.0728 23.9396 20.0969 23.9728 20.1352C23.9898 20.1545 24.0027 20.1772 24.0107 20.2018C24.0186 20.2263 24.0215 20.2523 24.019 20.278L21.31 51.2823C21.3078 51.3078 21.3002 51.3325 21.288 51.3549C21.2757 51.3773 21.2589 51.397 21.2386 51.4125C21.2199 51.4293 21.1979 51.442 21.1741 51.4499C21.1502 51.4579 21.125 51.4609 21.1 51.4587ZM18.16 50.8119L20.9404 51.0555L23.599 20.4376L20.8186 20.1982L18.16 50.8119Z" fill="#D1D3D4"/>
<path d="M23.8081 20.257C23.618 20.4763 23.3792 20.6483 23.1109 20.7591C22.8425 20.87 22.552 20.9166 22.2625 20.8954C21.9407 20.8653 21.6288 20.7684 21.3467 20.6107C21.0647 20.453 20.8186 20.2381 20.6245 19.9798L21.8131 16.9516L22.6531 14.7424L23.1655 17.0776L23.8081 20.257Z" fill="white"/>
<path d="M22.3847 21.0928H22.2545C21.9069 21.0585 21.5702 20.9523 21.2658 20.781C20.9614 20.6096 20.6959 20.3768 20.4863 20.0974C20.4679 20.0716 20.456 20.0416 20.4516 20.0102C20.4472 19.9788 20.4505 19.9467 20.4611 19.9168L22.5149 14.6752C22.5301 14.6338 22.5596 14.5991 22.5981 14.5775C22.6367 14.556 22.6816 14.5489 22.7249 14.5576C22.7671 14.5612 22.807 14.5782 22.8388 14.6062C22.8705 14.6342 22.8924 14.6716 22.9013 14.713L23.9849 20.2192C23.9912 20.246 23.9915 20.2738 23.9857 20.3007C23.9799 20.3276 23.9681 20.3529 23.9513 20.3746C23.7578 20.6007 23.5175 20.782 23.247 20.906C22.9765 21.03 22.6823 21.0937 22.3847 21.0928ZM20.8643 19.9462C21.2164 20.3747 21.7237 20.6464 22.2755 20.7022C22.5193 20.7221 22.7644 20.6876 22.9932 20.6012C23.222 20.5148 23.4288 20.3785 23.5985 20.2024L22.6325 15.427L20.8643 19.9462Z" fill="#D1D3D4"/>
<path d="M23.1652 17.0692L21.8296 16.9516L22.6906 14.7424L23.1652 17.0692Z" fill="white"/>
<path d="M23.1446 17.2624L21.8132 17.1448C21.7829 17.1433 21.7533 17.1341 21.7276 17.1179C21.7018 17.1017 21.6807 17.0791 21.6662 17.0524C21.6529 17.0256 21.646 16.9961 21.646 16.9663C21.646 16.9364 21.6529 16.9069 21.6662 16.8802L22.5314 14.671C22.5468 14.6335 22.574 14.6021 22.6089 14.5816C22.6438 14.5612 22.6845 14.5527 22.7246 14.5576C22.7668 14.5611 22.8067 14.5781 22.8385 14.6061C22.8703 14.6341 22.8922 14.6716 22.901 14.713L23.3714 17.0398C23.3774 17.0694 23.3764 17.1001 23.3684 17.1293C23.3603 17.1584 23.3456 17.1853 23.3252 17.2077C23.3017 17.2306 23.273 17.2475 23.2416 17.257C23.2101 17.2665 23.1769 17.2683 23.1446 17.2624ZM22.0862 16.7836L22.9262 16.855L22.6364 15.427L22.0862 16.7836Z" fill="#D1D3D4"/>
<path d="M19.5321 51.358C19.5065 51.3564 19.4815 51.3497 19.4585 51.3381C19.4356 51.3266 19.4153 51.3105 19.3988 51.2909C19.3823 51.2712 19.3699 51.2484 19.3625 51.2238C19.3551 51.1993 19.3528 51.1734 19.3557 51.148L22.0857 20.8786C22.0937 20.8289 22.1194 20.7837 22.1579 20.7513C22.1965 20.719 22.2454 20.7015 22.2957 20.7022C22.3474 20.7075 22.3949 20.7329 22.4279 20.773C22.4609 20.8131 22.4768 20.8646 22.4721 20.9164L19.7421 51.1858C19.74 51.211 19.7329 51.2356 19.7211 51.258C19.7093 51.2804 19.6932 51.3003 19.6736 51.3163C19.654 51.3324 19.6314 51.3444 19.6071 51.3515C19.5828 51.3587 19.5573 51.3609 19.5321 51.358Z" fill="#D1D3D4"/>
<path d="M18.2568 28.5734L14.8994 28.442L14.4367 40.2728L17.7941 40.4041L18.2568 28.5734Z" fill="white"/>
<path d="M17.7893 40.5976L14.4293 40.4632C14.404 40.4636 14.3789 40.4585 14.3557 40.4484C14.3325 40.4382 14.3117 40.4232 14.2949 40.4044C14.2771 40.386 14.2631 40.3643 14.2537 40.3405C14.2443 40.3167 14.2398 40.2913 14.2403 40.2658L14.7065 28.4176C14.7097 28.3674 14.7319 28.3204 14.7686 28.2861C14.8052 28.2517 14.8536 28.2327 14.9039 28.2328L18.2639 28.363C18.3151 28.3662 18.3632 28.3888 18.3983 28.4263C18.4335 28.4637 18.453 28.5132 18.4529 28.5646L17.9867 40.3918C17.9884 40.4185 17.9846 40.4454 17.9754 40.4706C17.9662 40.4958 17.9519 40.5188 17.9333 40.5381C17.9147 40.5575 17.8923 40.5728 17.8675 40.583C17.8427 40.5932 17.8161 40.5982 17.7893 40.5976ZM14.6351 40.0852L17.6045 40.2028L18.0539 28.762L15.0845 28.6444L14.6351 40.0852Z" fill="#D1D3D4"/>
<path d="M19.394 16.7661L14.6895 16.5821L14.2267 28.4128L18.9313 28.5969L19.394 16.7661Z" fill="white"/>
<path d="M18.9447 28.7914L14.2407 28.6066C14.1895 28.6034 14.1415 28.5809 14.1063 28.5436C14.0891 28.525 14.0757 28.5032 14.067 28.4794C14.0584 28.4556 14.0546 28.4303 14.0559 28.405L14.5179 16.5778C14.5221 16.5269 14.545 16.4793 14.5823 16.4444C14.6195 16.4095 14.6685 16.3896 14.7195 16.3888L19.4235 16.5736C19.4747 16.5767 19.5228 16.5992 19.5579 16.6366C19.5752 16.6551 19.5885 16.6769 19.5972 16.7007C19.6058 16.7246 19.6096 16.7499 19.6083 16.7752L19.1463 28.6024C19.1458 28.6281 19.1401 28.6535 19.1296 28.677C19.1191 28.7005 19.1041 28.7217 19.0853 28.7393C19.0665 28.7569 19.0444 28.7706 19.0203 28.7795C18.9961 28.7885 18.9704 28.7925 18.9447 28.7914ZM14.4423 28.2286L18.7599 28.3966L19.2051 16.9516L14.8875 16.7836L14.4423 28.2286Z" fill="#D1D3D4"/>
<path d="M12.7288 27.2667C12.6783 27.2646 12.6307 27.2427 12.5961 27.2058C12.5616 27.1689 12.5428 27.1199 12.544 27.0693L12.8632 18.8415C12.8796 18.4586 13.047 18.0978 13.3288 17.8381C13.6106 17.5783 13.9838 17.4408 14.3668 17.4555H14.5936C14.6448 17.4555 14.694 17.4759 14.7302 17.5121C14.7664 17.5484 14.7868 17.5975 14.7868 17.6487C14.7868 17.7 14.7664 17.7491 14.7302 17.7854C14.694 17.8216 14.6448 17.8419 14.5936 17.8419H14.3668C14.228 17.8358 14.0893 17.8571 13.9588 17.9046C13.8282 17.9522 13.7084 18.0252 13.6061 18.1192C13.5038 18.2133 13.4212 18.3266 13.3629 18.4528C13.3046 18.5789 13.2718 18.7153 13.2664 18.8541L12.9472 27.0819C12.9463 27.1089 12.9397 27.1353 12.9279 27.1595C12.9162 27.1838 12.8995 27.2053 12.8789 27.2227C12.8583 27.2401 12.8344 27.253 12.8085 27.2606C12.7827 27.2682 12.7555 27.2703 12.7288 27.2667Z" fill="#D1D3D4"/>
<path d="M4.21582 29.6062H30.7052L29.1722 61.1776C29.1711 62.0101 28.8396 62.8081 28.2505 63.3964C27.6615 63.9846 26.8631 64.315 26.0306 64.315H8.90301C8.07092 64.315 7.27291 63.9845 6.68454 63.3961C6.09616 62.8077 5.76562 62.0097 5.76562 61.1776L4.21582 29.6062Z" fill="white"/>
<path d="M26.031 64.5082H8.90339C8.0204 64.5071 7.1739 64.1558 6.54953 63.5314C5.92516 62.9071 5.57391 62.0606 5.57279 61.1776L4.023 29.6188C4.02185 29.566 4.04145 29.5149 4.07757 29.4764C4.11369 29.438 4.16346 29.4152 4.2162 29.413H30.7056C30.7318 29.4133 30.7576 29.4191 30.7815 29.4299C30.8053 29.4408 30.8267 29.4565 30.8442 29.476C30.8631 29.4944 30.8779 29.5167 30.8873 29.5413C30.8967 29.566 30.9007 29.5924 30.8988 29.6188L29.3658 61.1776C29.3646 62.0613 29.0128 62.9084 28.3875 63.5329C27.7623 64.1574 26.9147 64.5082 26.031 64.5082ZM4.422 29.7994L5.95919 61.1776C5.95919 61.9573 6.26894 62.7051 6.8203 63.2565C7.37165 63.8078 8.11945 64.1176 8.89919 64.1176H26.031C26.8107 64.1176 27.5585 63.8078 28.1099 63.2565C28.6612 62.7051 28.971 61.9573 28.971 61.1776L30.5124 29.7994H4.422Z" fill="#D1D3D4"/>
<path d="M30.2215 35.5576H4.77377C4.72253 35.5576 4.67339 35.5372 4.63715 35.501C4.60092 35.4648 4.58057 35.4156 4.58057 35.3644C4.58164 35.3135 4.60234 35.2649 4.63834 35.2289C4.67434 35.1929 4.72286 35.1722 4.77377 35.1712H30.2215C30.2728 35.1712 30.3219 35.1915 30.3581 35.2278C30.3944 35.264 30.4147 35.3131 30.4147 35.3644C30.4153 35.3899 30.4107 35.4153 30.4012 35.439C30.3917 35.4627 30.3775 35.4842 30.3594 35.5023C30.3414 35.5203 30.3198 35.5345 30.2961 35.544C30.2724 35.5535 30.247 35.5581 30.2215 35.5576Z" fill="#D1D3D4"/>
<path d="M151.447 14.5114H133.53V32.269H151.447V14.5114Z" fill="white"/>
<path d="M151.451 32.4622H133.53C133.479 32.4611 133.43 32.4404 133.394 32.4044C133.358 32.3684 133.337 32.3199 133.336 32.269V14.5114C133.337 14.4605 133.358 14.412 133.394 14.376C133.43 14.34 133.479 14.3193 133.53 14.3182H151.451C151.502 14.3193 151.55 14.34 151.586 14.376C151.622 14.412 151.643 14.4605 151.644 14.5114V32.269C151.643 32.3199 151.622 32.3684 151.586 32.4044C151.55 32.4404 151.502 32.4611 151.451 32.4622ZM133.727 32.0758H151.245V14.7046H133.727V32.0758Z" fill="#D1D3D4"/>
<path d="M144.286 11.6133H141.027V16.6449H144.286V11.6133Z" fill="#D1D3D4"/>
<path d="M148.553 18.8079H138.964C138.913 18.8079 138.864 18.7876 138.828 18.7514C138.791 18.7151 138.771 18.666 138.771 18.6147C138.771 18.5635 138.791 18.5144 138.828 18.4781C138.864 18.4419 138.913 18.4215 138.964 18.4215H148.553C148.604 18.4215 148.653 18.4419 148.689 18.4781C148.726 18.5144 148.746 18.5635 148.746 18.6147C148.746 18.666 148.726 18.7151 148.689 18.7514C148.653 18.7876 148.604 18.8079 148.553 18.8079Z" fill="#D1D3D4"/>
<path d="M148.552 22.1722H136.246C136.195 22.1722 136.146 22.1518 136.11 22.1156C136.074 22.0794 136.053 22.0302 136.053 21.979C136.053 21.9278 136.074 21.8786 136.11 21.8424C136.146 21.8061 136.195 21.7858 136.246 21.7858H148.552C148.604 21.7858 148.653 21.8061 148.689 21.8424C148.725 21.8786 148.746 21.9278 148.746 21.979C148.746 22.0302 148.725 22.0794 148.689 22.1156C148.653 22.1518 148.604 22.1722 148.552 22.1722Z" fill="#D1D3D4"/>
<path d="M148.645 25.5364H136.246C136.195 25.5364 136.146 25.516 136.11 25.4798C136.074 25.4436 136.053 25.3944 136.053 25.3432C136.053 25.292 136.074 25.2428 136.11 25.2066C136.146 25.1704 136.195 25.15 136.246 25.15H148.645C148.67 25.15 148.695 25.155 148.719 25.1647C148.742 25.1744 148.763 25.1886 148.781 25.2066C148.799 25.2245 148.814 25.2458 148.823 25.2693C148.833 25.2927 148.838 25.3178 148.838 25.3432C148.838 25.3686 148.833 25.3937 148.823 25.4171C148.814 25.4406 148.799 25.4619 148.781 25.4798C148.763 25.4977 148.742 25.512 148.719 25.5217C148.695 25.5314 148.67 25.5364 148.645 25.5364Z" fill="#D1D3D4"/>
<path d="M143.84 28.9006H136.246C136.195 28.9006 136.146 28.8802 136.11 28.844C136.074 28.8078 136.053 28.7586 136.053 28.7074C136.053 28.6562 136.074 28.607 136.11 28.5708C136.146 28.5345 136.195 28.5142 136.246 28.5142H143.84C143.891 28.5142 143.94 28.5345 143.977 28.5708C144.013 28.607 144.033 28.6562 144.033 28.7074C144.033 28.7586 144.013 28.8078 143.977 28.844C143.94 28.8802 143.891 28.9006 143.84 28.9006Z" fill="#D1D3D4"/>
</svg>
