<svg width="133" height="78" viewBox="0 0 133 78" fill="none" xmlns="http://www.w3.org/2000/svg">
<path d="M54.3247 24.6681C54.4544 22.5258 54.9499 20.4215 55.7899 18.4464C55.913 18.1509 56.2003 17.798 56.4835 17.9498C56.3193 18.8609 56.1538 19.7693 55.9869 20.6749C57.671 19.5594 59.1324 18.1398 60.2962 16.4888C60.3948 16.3184 60.5363 16.1769 60.7066 16.0784C60.7924 16.0302 60.8936 16.0175 60.9886 16.0427C61.0837 16.068 61.1651 16.1294 61.2156 16.2138C61.2359 16.293 61.2384 16.3757 61.2228 16.4559C61.2071 16.5361 61.1738 16.6118 61.1253 16.6776C60.6285 17.5682 60.0515 18.4116 59.4015 19.1974C60.2224 17.9662 61.1212 16.6858 62.4263 15.9676C62.2902 17.3937 61.7539 18.7524 60.879 19.8869L62.968 17.564C63.1568 17.3506 63.4728 17.1249 63.6945 17.3014C63.9161 17.4779 63.7683 17.8267 63.6165 18.0565L62.1636 20.2234C62.9024 19.575 63.6698 18.9621 64.466 18.3848C64.3265 19.7063 63.3169 20.7652 62.2416 21.5408C61.1663 22.3165 59.9556 22.9403 59.0732 23.9294C58.544 24.5778 58.0922 25.2857 57.727 26.0388" fill="white"/>
<path d="M57.7231 26.2277C57.6932 26.2334 57.6626 26.2334 57.6328 26.2277C57.5895 26.2035 57.5575 26.1632 57.5437 26.1156C57.5299 26.068 57.5353 26.0169 57.5589 25.9732C57.9281 25.2054 58.3883 24.4847 58.9297 23.8268C59.5937 23.142 60.3459 22.5486 61.1664 22.0621C61.4907 21.8487 61.8149 21.6517 62.1268 21.4096C63.2513 20.5888 63.9449 19.7352 64.1789 18.8405C63.5263 19.333 62.8861 19.8501 62.2746 20.3836C62.2424 20.4206 62.1969 20.4433 62.1481 20.4468C62.0992 20.4503 62.051 20.4342 62.0139 20.4021C61.9769 20.37 61.9542 20.3245 61.9507 20.2756C61.9473 20.2267 61.9634 20.1785 61.9955 20.1415L63.4483 17.9745C63.5715 17.7858 63.6618 17.5641 63.5633 17.4697C63.4648 17.3754 63.2554 17.5313 63.0954 17.7078L61.0064 20.0348C60.9707 20.0679 60.9238 20.0864 60.875 20.0864C60.8263 20.0864 60.7794 20.0679 60.7437 20.0348C60.7058 20.0042 60.6815 19.9598 60.6761 19.9114C60.6707 19.863 60.6847 19.8144 60.715 19.7762C61.4879 18.7715 61.9922 17.5865 62.1802 16.3329C61.6485 16.7017 61.173 17.1454 60.7683 17.6503C60.3915 18.2298 59.9804 18.7862 59.5371 19.3166C59.5059 19.3534 59.4621 19.3772 59.4142 19.3832C59.3663 19.3893 59.3179 19.3772 59.2785 19.3494C59.2407 19.3201 59.2155 19.2775 59.2078 19.2303C59.2002 19.183 59.2108 19.1347 59.2375 19.0949C59.6187 18.5172 60.0297 17.9597 60.4687 17.4246C60.6452 17.1496 60.8094 16.8706 60.9694 16.6038C61.0228 16.5012 61.0844 16.3781 61.0515 16.3042C61.0454 16.2916 61.0368 16.2803 61.0263 16.2712C61.0157 16.262 61.0033 16.2551 60.99 16.2509C60.928 16.2264 60.859 16.2264 60.7971 16.2509C60.6599 16.3371 60.5458 16.4554 60.4646 16.5956C59.286 18.2671 57.8066 19.7047 56.1019 20.835C56.0707 20.8552 56.0344 20.8659 55.9973 20.8659C55.9601 20.8659 55.9238 20.8552 55.8926 20.835C55.8621 20.8151 55.8383 20.7864 55.8244 20.7527C55.8104 20.719 55.8071 20.6819 55.8146 20.6462C55.9665 19.8254 56.1224 18.9718 56.2702 18.1346C56.1323 18.2382 56.0293 18.3814 55.9747 18.545C55.143 20.499 54.653 22.5812 54.5259 24.701C54.5227 24.7511 54.4996 24.7978 54.4619 24.8309C54.4242 24.864 54.3749 24.8807 54.3248 24.8775C54.2748 24.8742 54.228 24.8512 54.1949 24.8135C54.1618 24.7758 54.1451 24.7264 54.1484 24.6764C54.2778 22.5124 54.779 20.387 55.6299 18.3931C55.728 18.1226 55.9284 17.9015 56.1881 17.7775C56.2543 17.751 56.3255 17.7399 56.3966 17.7448C56.4677 17.7498 56.5367 17.7708 56.5985 17.8063C56.6336 17.8243 56.6618 17.8533 56.6789 17.8889C56.6959 17.9245 56.7009 17.9646 56.6929 18.0033C56.5575 18.7666 56.4179 19.5259 56.2825 20.2892C57.7923 19.2275 59.1083 17.9143 60.1732 16.4068C60.29 16.2073 60.457 16.0417 60.6575 15.9266C60.8127 15.8632 60.9866 15.8632 61.1418 15.9266C61.2024 15.9485 61.2579 15.9822 61.3051 16.0259C61.3524 16.0697 61.3903 16.1224 61.4168 16.1811C61.4583 16.2767 61.4683 16.3831 61.4455 16.4848C61.7286 16.2397 62.0368 16.0251 62.3648 15.8446C62.3937 15.8263 62.4272 15.8167 62.4613 15.8167C62.4954 15.8167 62.5289 15.8263 62.5577 15.8446C62.5863 15.8629 62.6093 15.8886 62.6245 15.9189C62.6397 15.9493 62.6464 15.9831 62.6439 16.0169C62.5639 16.8385 62.3533 17.642 62.0201 18.3973L62.8409 17.4697C63.1857 17.084 63.5633 16.9773 63.8259 17.1907C64.0886 17.4041 64.064 17.7734 63.7849 18.1962L63.0667 19.2632C63.4771 18.9185 63.9285 18.586 64.3677 18.2659C64.3978 18.247 64.4326 18.2369 64.4682 18.2369C64.5038 18.2369 64.5387 18.247 64.5688 18.2659C64.6005 18.2834 64.6263 18.3099 64.6431 18.342C64.6599 18.3741 64.6669 18.4105 64.6632 18.4465C64.54 19.612 63.7685 20.7201 62.3607 21.7297C62.0447 21.9595 61.7164 22.1729 61.3881 22.3904C60.5948 22.8598 59.8674 23.4325 59.2252 24.0936C58.7064 24.7239 58.2629 25.4126 57.9036 26.1456C57.8841 26.1747 57.8569 26.1978 57.825 26.2123C57.7931 26.2268 57.7578 26.2321 57.7231 26.2277Z" fill="#231F20"/>
<path d="M2.66112 27.8036C4.30278 25.9773 6.90481 24.7707 9.08411 24.2618C14.44 23.0019 20.3787 22.5382 25.6772 24.385C33.947 27.2578 32.2151 37.5424 32.9579 44.6259C33.3396 48.2621 33.3971 52.2388 34.7432 55.6575C36.233 59.4373 35.4368 62.782 32.0673 65.5071C29.5351 67.5591 26.1615 68.3224 22.9069 68.265C19.2993 68.1993 13.5248 69.6439 10.4672 67.4852C6.10861 64.4072 5.30419 57.5987 4.12631 52.8093C2.58444 46.5275 1.56045 40.1298 1.06461 33.6805C0.910309 32.5403 0.967351 31.3814 1.23288 30.2619C1.51555 29.3444 2.00405 28.5036 2.66112 27.8036Z" fill="#231F20"/>
<path d="M15.5577 68.8642C13.5877 68.8642 11.7203 68.5974 10.3618 67.633C6.63115 64.9982 5.4943 59.8107 4.49289 55.2307C4.31231 54.4099 4.13583 53.5891 3.95525 52.8544C2.4093 46.562 1.38255 40.1533 0.885349 33.6928C0.727532 32.5307 0.785972 31.3494 1.05772 30.2085C1.35313 29.2657 1.85507 28.4007 2.52701 27.6764C4.0086 26.0348 6.44646 24.6887 9.04438 24.0813C15.5125 22.5628 21.1311 22.6038 25.74 24.2085C32.4626 26.5519 32.6883 33.7175 32.8895 40.0376C32.9428 41.6546 32.9921 43.1854 33.1398 44.6054C33.2178 45.3646 33.2834 46.1444 33.3532 46.9283C33.5995 49.8667 33.858 52.9078 34.9128 55.5877C36.4683 59.5358 35.5489 62.9216 32.1794 65.6466C29.8729 67.518 26.5814 68.5194 22.9041 68.4456C21.8945 68.425 20.7125 68.5276 19.4648 68.6343C18.2171 68.741 16.8546 68.8642 15.5577 68.8642ZM17.856 23.3384C14.9135 23.3679 11.9843 23.7369 9.12647 24.4383C6.59421 25.0293 4.23023 26.3385 2.79378 27.9226C2.1568 28.6053 1.68256 29.4233 1.40658 30.3152C1.14918 31.4137 1.09355 32.5498 1.24241 33.6682C1.74324 40.1087 2.76718 46.4979 4.3041 52.7724C4.48879 53.5234 4.66526 54.3196 4.84995 55.1609C5.83494 59.6753 6.95537 64.7889 10.5711 67.3416C12.7135 68.8518 16.2841 68.5481 19.432 68.2773C20.6919 68.1706 21.8945 68.068 22.9082 68.0885C26.5116 68.1583 29.7128 67.1856 31.9373 65.3717C35.1672 62.7533 36.0414 59.507 34.5598 55.7231C33.4887 52.994 33.226 49.9283 32.9756 46.9611C32.91 46.1813 32.8443 45.4057 32.7622 44.6464C32.6104 43.2141 32.5652 41.6792 32.5119 40.054C32.3149 33.8488 32.1015 26.8145 25.6046 24.5573C23.1083 23.7197 20.4889 23.3076 17.856 23.3384Z" fill="#231F20"/>
<path d="M18.7706 18.5654L19.9362 13.8951C21.1962 8.84305 22.9322 3.63507 28.4605 2.05914C30.1022 1.59538 31.7438 1.78006 32.8479 3.26161C33.9642 2.32179 35.7208 2.82658 36.8699 3.71715C38.4705 4.94835 39.5253 6.76643 40.223 8.64196C41.4542 11.9744 41.6718 15.5777 43.0959 18.902C36.045 24.1058 25.9734 24.8405 18.2412 20.7159L18.7706 18.5654Z" fill="white"/>
<path d="M29.1382 23.6134C25.3063 23.629 21.5293 22.7031 18.1391 20.9171C18.102 20.898 18.0725 20.8669 18.0554 20.8289C18.0383 20.7909 18.0345 20.7482 18.0447 20.7078L18.5905 18.5409L19.7561 13.8705C20.9873 8.91698 22.7809 3.49559 28.4076 1.90323C30.2914 1.36561 31.8715 1.7637 32.8812 3.01952C34.0878 2.1741 35.832 2.70352 36.9853 3.58998C38.4258 4.69396 39.575 6.38481 40.3999 8.61328C40.9356 10.1678 41.3648 11.757 41.6845 13.3698C42.0407 15.245 42.5654 17.0842 43.2523 18.8651C43.2682 18.9043 43.2708 18.9476 43.2597 18.9883C43.2485 19.0291 43.2243 19.0651 43.1908 19.0908C39.1059 22.0527 34.1839 23.6368 29.1382 23.6134ZM18.4428 20.6544C22.2847 22.6189 26.592 23.4916 30.8956 23.1775C35.1992 22.8635 39.3341 21.3747 42.8501 18.8733C42.1836 17.114 41.6714 15.3 41.3193 13.4519C41.0017 11.8479 40.5767 10.267 40.047 8.71999C39.2508 6.56128 38.1427 4.92789 36.7637 3.86495C35.6761 3.04415 34.0221 2.52704 32.9755 3.4053C32.9559 3.42199 32.9329 3.43429 32.9082 3.44137C32.8834 3.44845 32.8574 3.45014 32.8319 3.44634C32.8067 3.44365 32.7823 3.43568 32.7604 3.42295C32.7385 3.41022 32.7195 3.39302 32.7047 3.37247C31.5432 1.78832 29.7907 1.88271 28.5184 2.23976C23.0722 3.76645 21.369 8.86773 20.1378 13.9403L18.4428 20.6544Z" fill="#231F20"/>
<path d="M40.6588 24.4711C42.0829 25.8008 45.2636 30.8118 48.1612 36.0649L54.1655 23.4656L59.0413 24.9184C59.0413 24.9184 54.6293 48.184 50.2789 49.132C45.9285 50.0801 39.998 39.6928 39.998 39.6928L33.3452 21.4259C33.3452 21.4259 38.5329 22.4806 40.6588 24.4711Z" fill="#003C74"/>
<path d="M32.8607 23.6339C32.8607 23.6339 39.4273 27.3275 40.7201 33.7174C42.0129 40.1073 39.4889 59.6465 39.4889 59.6465L23.1955 58.9693C23.1955 58.9693 25.8508 35.6832 24.2584 30.6148C22.666 25.5463 22.7153 24.1387 24.2584 23.638C25.8016 23.1373 29.9878 20.4656 32.8607 23.6339Z" fill="white"/>
<path d="M39.4934 59.8353L23.1917 59.1705C23.1403 59.1685 23.0916 59.1464 23.0563 59.1089C23.0398 59.0892 23.0276 59.0662 23.0206 59.0414C23.0135 59.0167 23.0117 58.9908 23.0152 58.9653C23.0399 58.7314 25.646 35.6586 24.0864 30.6887C22.4776 25.5792 22.5022 24.0279 24.2054 23.4738C24.4476 23.3959 24.7677 23.2563 25.1371 23.0963C27.0086 22.2755 30.4725 20.7816 32.9719 23.5067C33.4397 23.7775 39.6616 27.5163 40.897 33.6969C42.1652 40.0335 39.7027 59.4906 39.6657 59.6876C39.6576 59.7279 39.6362 59.7643 39.6049 59.7911C39.5737 59.8178 39.5344 59.8334 39.4934 59.8353ZM23.4215 58.7888L39.3415 59.4537C39.5836 57.5125 41.7342 39.7134 40.544 33.7544C39.3128 27.5286 32.8364 23.835 32.7749 23.7981C32.7553 23.7906 32.7382 23.7778 32.7256 23.7611C30.4191 21.2084 27.2138 22.5956 25.2971 23.4246C24.9195 23.5887 24.5953 23.7283 24.3327 23.8145C23.0563 24.2249 22.7895 25.2591 24.4558 30.5615C25.9702 35.4124 23.6801 56.3551 23.4215 58.7888Z" fill="#231F20"/>
<path d="M36.9073 63.0324C36.4723 52.6821 35.475 44.3017 35.2657 41.3714C35.0318 38.1621 34.2068 28.846 33.3203 24.7707C32.1712 22.2345 32.6678 21.4875 32.6678 21.4875C32.6678 21.4875 39.1523 20.5764 41.0813 30.2537C41.6517 33.106 43.1005 49.7313 44.4959 62.6466L36.9073 63.0324Z" fill="#003C74"/>
<path d="M33.3368 19.772L33.3655 24.7543C33.3655 24.7543 32.8607 27.5696 29.8318 26.7078C28.9378 26.4475 28.1128 25.9918 27.4165 25.3736C26.7202 24.7554 26.17 23.9901 25.8057 23.1332L26.1504 14.5148C26.5489 13.007 26.7177 11.4477 26.6511 9.88959C30.3448 9.82803 33.2177 7.04962 33.2177 7.04962C33.2177 7.04962 34.4818 8.95388 35.0318 9.55306C35.4727 10.0047 35.856 10.5092 36.1727 11.0551C36.6816 12.0155 36.6611 13.2097 36.6365 14.2727C36.6252 15.5317 36.5002 16.7872 36.263 18.0237C35.7869 20.3671 33.3368 19.772 33.3368 19.772Z" fill="white"/>
<path d="M30.9072 27.0567C30.5265 27.0515 30.1482 26.9949 29.7827 26.8884C28.8576 26.6239 28.0039 26.1546 27.2849 25.5152C26.5659 24.8758 26 24.0827 25.6293 23.1948C25.6236 23.1719 25.6236 23.148 25.6293 23.1251C25.6293 23.1251 25.9699 14.5518 25.9699 14.5066C25.9859 14.3671 26.0162 14.2296 26.0602 14.0962C26.4017 12.7286 26.54 11.3181 26.4707 9.91016C26.4697 9.88512 26.4739 9.86015 26.4831 9.83683C26.4923 9.81351 26.5062 9.79236 26.524 9.77473C26.5407 9.7565 26.561 9.74196 26.5836 9.73206C26.6062 9.72217 26.6306 9.71713 26.6553 9.71727C30.2177 9.65982 33.0783 6.95938 33.107 6.93065C33.1274 6.91235 33.1513 6.89857 33.1774 6.89023C33.2034 6.88189 33.2309 6.87919 33.2581 6.88229C33.2853 6.88539 33.3115 6.89424 33.3349 6.90824C33.3584 6.92224 33.3787 6.94107 33.3943 6.96349C33.3943 6.98401 34.6584 8.85954 35.192 9.42589C35.6432 9.88971 36.0348 10.4081 36.3575 10.969C36.8952 11.9786 36.8705 13.2508 36.8459 14.2768C36.8366 15.547 36.7102 16.8137 36.4683 18.0607C36.4169 18.3823 36.3001 18.6899 36.125 18.9645C35.9499 19.2391 35.7204 19.4748 35.4505 19.6572C34.8699 19.988 34.1947 20.1138 33.5339 20.0142L33.5626 24.7749C33.4163 25.5459 32.9745 26.2293 32.3314 26.6791C31.9036 26.9411 31.4086 27.0723 30.9072 27.0567ZM25.9823 23.1045C26.343 23.9236 26.878 24.6541 27.5499 25.2452C28.2219 25.8363 29.0146 26.2739 29.873 26.5273C30.2339 26.6582 30.6185 26.7108 31.0012 26.6818C31.384 26.6528 31.7563 26.5428 32.0933 26.359C32.6485 25.9695 33.0334 25.382 33.1686 24.7174L33.1481 19.7721C33.1479 19.7438 33.1541 19.7158 33.1662 19.6903C33.1782 19.6647 33.1959 19.6422 33.2179 19.6243C33.2404 19.6073 33.2664 19.5951 33.2939 19.5888C33.3215 19.5824 33.3501 19.5819 33.3779 19.5874C34.011 19.7222 34.6714 19.6277 35.2412 19.3206C35.4685 19.1647 35.6613 18.9636 35.8074 18.7299C35.9536 18.4962 36.05 18.2348 36.0908 17.9622C36.3283 16.7451 36.4533 15.5087 36.4642 14.2686C36.4642 13.2385 36.5135 12.0689 36.0169 11.1414C35.7112 10.609 35.3403 10.1168 34.9129 9.67623C34.4573 9.17554 33.5339 7.82533 33.2014 7.33285C32.5448 7.91151 30.0207 9.93889 26.8482 10.0661C26.9091 11.4467 26.7708 12.8289 26.4378 14.1701C26.4023 14.2838 26.3776 14.4006 26.3639 14.519C26.3639 14.519 26.3311 14.6544 25.9946 23.1045H25.9823Z" fill="#231F20"/>
<path d="M33.3076 22.2344C33.3076 22.2344 31.2843 22.3247 29.9873 20.9786C28.6904 19.6325 28.8792 18.27 28.8792 18.27C28.8792 18.27 31.0667 19.7392 33.3363 19.7884L33.3076 22.2344Z" fill="#231F20"/>
<path d="M33.218 22.4191C32.783 22.4191 31.0469 22.337 29.8567 21.1017C28.5106 19.7064 28.6912 18.3069 28.6994 18.2289C28.7038 18.1985 28.7159 18.1697 28.7346 18.1453C28.7533 18.1209 28.7779 18.1016 28.8061 18.0894C28.8323 18.0743 28.862 18.0663 28.8923 18.0663C28.9225 18.0663 28.9523 18.0743 28.9785 18.0894C28.9785 18.0894 31.1495 19.5258 33.3412 19.575C33.3883 19.5761 33.4332 19.5956 33.4662 19.6293C33.4992 19.6631 33.5177 19.7084 33.5176 19.7556L33.4889 22.218C33.4879 22.2638 33.4696 22.3075 33.4376 22.3403C33.4056 22.373 33.3623 22.3924 33.3165 22.3945L33.218 22.4191ZM29.0523 18.5942C29.1237 19.4499 29.5011 20.2513 30.1153 20.8514C31.129 21.902 32.627 22.0374 33.1277 22.0538L33.1524 19.9608C31.7002 19.8199 30.2986 19.3527 29.0523 18.5942Z" fill="#231F20"/>
<path d="M31.5715 12.6311C31.5715 12.6311 33.1762 15.0237 32.8028 15.4423C32.4293 15.861 31.354 15.5819 31.354 15.5819" fill="white"/>
<path d="M32.0386 15.8528C31.7841 15.85 31.5308 15.8184 31.2835 15.7584C31.237 15.7458 31.1973 15.7157 31.1728 15.6743C31.1482 15.6329 31.1408 15.5835 31.1521 15.5368C31.1579 15.5135 31.1682 15.4916 31.1825 15.4723C31.1968 15.4531 31.2148 15.4369 31.2354 15.4246C31.256 15.4124 31.2789 15.4044 31.3026 15.4011C31.3264 15.3978 31.3506 15.3993 31.3738 15.4054C31.6241 15.467 32.3916 15.5901 32.6419 15.3193C32.7774 15.1264 32.1987 13.9198 31.4107 12.7337C31.3903 12.6936 31.3853 12.6474 31.3965 12.6038C31.4078 12.5602 31.4346 12.5223 31.4719 12.497C31.5092 12.4718 31.5545 12.4611 31.5991 12.4669C31.6438 12.4727 31.6848 12.4946 31.7144 12.5285C32.2192 13.2878 33.3561 15.0935 32.9169 15.5655C32.7978 15.6707 32.6585 15.7505 32.5075 15.7999C32.3564 15.8493 32.1969 15.8673 32.0386 15.8528Z" fill="#231F20"/>
<path d="M34.8618 12.7381C35.0135 12.7322 35.1274 12.496 35.1162 12.2106C35.105 11.9253 34.9729 11.6988 34.8212 11.7047C34.6694 11.7107 34.5555 11.9469 34.5667 12.2322C34.5779 12.5176 34.71 12.7441 34.8618 12.7381Z" fill="#231F20"/>
<path d="M30.3461 12.3452C30.4979 12.3392 30.6118 12.1031 30.6006 11.8177C30.5894 11.5323 30.4573 11.3058 30.3055 11.3118C30.1538 11.3177 30.0399 11.5539 30.0511 11.8393C30.0623 12.1246 30.1944 12.3512 30.3461 12.3452Z" fill="#231F20"/>
<path d="M32.663 16.8459L31.3866 16.5176C31.3866 16.5176 31.1281 18.3808 31.8463 18.545C32.5645 18.7091 32.663 16.8459 32.663 16.8459Z" fill="white"/>
<path d="M31.9318 18.7378C31.8896 18.7438 31.8468 18.7438 31.8046 18.7378C30.9468 18.5408 31.1767 16.7022 31.2177 16.4888C31.2219 16.4637 31.2314 16.4397 31.2456 16.4185C31.2597 16.3973 31.2782 16.3793 31.2998 16.3657C31.3202 16.3508 31.3438 16.3409 31.3687 16.3366C31.3937 16.3323 31.4192 16.3339 31.4434 16.3411L32.7198 16.6653C32.7603 16.6757 32.7959 16.6998 32.8206 16.7334C32.8453 16.7671 32.8575 16.8083 32.8553 16.85C32.8553 16.9936 32.7691 18.2454 32.2725 18.6188C32.1759 18.6962 32.0556 18.7383 31.9318 18.7378ZM31.5419 16.7474C31.4886 17.3425 31.5132 18.2823 31.8867 18.389C31.9137 18.3963 31.9421 18.3967 31.9693 18.3903C31.9966 18.3838 32.0218 18.3707 32.0426 18.3521C32.2889 18.1674 32.4284 17.482 32.4531 17.0059L31.5419 16.7474Z" fill="#231F20"/>
<path d="M27.8129 11.9744C27.4805 11.1003 26.3682 10.7761 25.5228 10.9443C25.2439 10.9902 24.9848 11.1175 24.7781 11.3103C24.5714 11.5031 24.4264 11.7527 24.3613 12.0278C24.2936 12.3692 24.2936 12.7206 24.3613 13.062C24.4574 13.6887 24.6645 14.2932 24.9728 14.8472C25.1155 15.1362 25.3286 15.3846 25.5925 15.5695C25.7623 15.6709 25.9589 15.7181 26.1561 15.7049C26.3533 15.6917 26.5418 15.6187 26.6966 15.4957" fill="white"/>
<path d="M26.0707 15.902C25.864 15.9008 25.662 15.8411 25.4879 15.7296C25.1985 15.528 24.9643 15.2571 24.8066 14.9416C24.4819 14.3616 24.265 13.7276 24.1664 13.0702C24.0936 12.7044 24.0936 12.3279 24.1664 11.9621C24.2382 11.6523 24.4007 11.3709 24.6332 11.1538C24.8656 10.9367 25.1575 10.7938 25.4715 10.7432C26.4155 10.5545 27.6098 10.932 27.975 11.8883C27.9925 11.9346 27.9912 11.9859 27.9712 12.0312C27.9512 12.0764 27.9143 12.1121 27.8683 12.1304C27.8215 12.1477 27.7698 12.1457 27.7244 12.125C27.679 12.1042 27.6437 12.0663 27.6262 12.0196C27.3307 11.2521 26.3375 10.9525 25.5454 11.1085C25.3005 11.1452 25.0723 11.255 24.8908 11.4233C24.7092 11.5917 24.5826 11.811 24.5275 12.0524C24.4652 12.3695 24.4652 12.6957 24.5275 13.0128C24.6214 13.6266 24.8243 14.2187 25.1268 14.7611C25.2552 15.0207 25.4455 15.2447 25.6808 15.4136C25.8198 15.4953 25.9805 15.5324 26.1412 15.5199C26.3019 15.5075 26.4549 15.446 26.5796 15.3438C26.6001 15.3298 26.6231 15.32 26.6474 15.3149C26.6717 15.3098 26.6968 15.3095 26.7212 15.3141C26.7455 15.3186 26.7688 15.328 26.7896 15.3415C26.8104 15.3551 26.8283 15.3726 26.8423 15.3931C26.8563 15.4136 26.8661 15.4366 26.8712 15.4609C26.8764 15.4852 26.8766 15.5102 26.8721 15.5346C26.8675 15.559 26.8582 15.5823 26.8446 15.603C26.831 15.6238 26.8135 15.6417 26.793 15.6557C26.5826 15.8089 26.3308 15.8947 26.0707 15.902Z" fill="#231F20"/>
<path d="M15.9346 63.0324C16.5353 60.5441 16.9794 58.0207 17.2643 55.4769C17.7896 49.5753 17.2643 29.4862 18.5202 25.4889C19.1276 23.5806 25.5506 22.1811 25.5506 22.1811C25.5506 22.1811 31.7068 54.7505 31.7068 63.5495L15.9346 63.0324Z" fill="#003C74"/>
<path d="M26.8223 46.1362C28.3326 45.8776 29.6952 45.1758 31.1111 44.5807C31.6775 44.3427 32.2562 44.1252 32.8431 43.9446C33.5326 43.7312 34.1933 43.3208 34.9321 43.3003C35.3917 43.3003 35.2727 43.9364 35.1003 44.1703C34.9236 44.3833 34.7111 44.5638 34.4724 44.7039C34.0415 44.9993 33.1304 45.5247 32.9744 46.0582C33.5478 46.1561 34.1288 46.2028 34.7105 46.1977C35.3343 46.2675 35.9417 46.3619 36.5655 46.4809C37.1894 46.5999 37.7639 46.7394 38.3549 46.8913C38.8836 46.9861 39.4038 47.1233 39.9104 47.3017C40.0294 47.3633 40.1566 47.4535 40.1649 47.5849C40.1936 48.0527 39.1429 47.9953 38.8803 47.9707L34.0415 47.4864C35.7357 47.6457 37.4134 47.9477 39.0567 48.3893C39.2166 48.4144 39.3622 48.4959 39.4672 48.6191C39.8776 49.2388 38.1456 49.2716 37.9527 49.2757C37.0602 49.2976 36.167 49.2743 35.2768 49.206L37.452 49.5671C37.9363 49.6492 38.4247 49.7272 38.9049 49.8503C39.1709 49.901 39.4188 50.0214 39.6231 50.1991C39.651 50.2231 39.6686 50.2569 39.6724 50.2935C39.6724 50.3428 39.619 50.3756 39.5739 50.3961C39.1639 50.563 38.7234 50.6413 38.2811 50.6259C37.3746 50.6439 36.4683 50.5835 35.5723 50.4454L38.2564 50.7326C38.4966 50.7317 38.7293 50.8161 38.9131 50.9707C38.934 51.0472 38.9298 51.1284 38.9009 51.2023C38.8721 51.2763 38.8202 51.3389 38.753 51.3811C38.6134 51.4642 38.4556 51.5121 38.2934 51.5206C37.3039 51.5822 36.3115 51.5822 35.322 51.5206C34.2419 51.5261 33.1627 51.4576 32.092 51.3154C29.9746 51.0512 27.9161 50.4354 26.0015 49.4932" fill="white"/>
<path d="M37.2391 51.7833C36.919 51.7833 36.6071 51.7833 36.2952 51.7587C35.9833 51.734 35.6467 51.734 35.3184 51.7587C34.2302 51.762 33.143 51.6935 32.0638 51.5535C29.9235 51.2861 27.8428 50.6633 25.9076 49.7108C25.863 49.6879 25.829 49.6485 25.8129 49.601C25.7968 49.5535 25.7999 49.5016 25.8214 49.4563C25.845 49.4124 25.8847 49.3793 25.9321 49.364C25.9796 49.3487 26.0311 49.3524 26.0759 49.3742C27.9703 50.3092 30.0083 50.9196 32.1049 51.18C33.1715 51.3203 34.2467 51.3848 35.3225 51.3729C35.6549 51.3729 35.9874 51.3729 36.3157 51.3975C36.9667 51.4401 37.6201 51.4291 38.2693 51.3647C38.4013 51.3564 38.5301 51.3201 38.6469 51.258C38.6755 51.2398 38.6993 51.215 38.7165 51.1857C38.7336 51.1565 38.7435 51.1236 38.7454 51.0897C38.5945 50.9936 38.4194 50.9424 38.2406 50.942L36.9806 50.8065C36.5004 50.7778 36.0202 50.7245 35.5441 50.6547C35.4959 50.6457 35.4528 50.6186 35.4239 50.5789C35.3949 50.5392 35.3821 50.49 35.3882 50.4413C35.3953 50.3934 35.4206 50.35 35.4588 50.3202C35.497 50.2904 35.5452 50.2765 35.5934 50.2812L37.0093 50.4331C37.4307 50.4577 37.8534 50.4659 38.2775 50.4577C38.6625 50.4712 39.0467 50.4128 39.4102 50.2853C39.2428 50.1716 39.0545 50.0921 38.8562 50.0514C38.3842 49.9324 37.8958 49.8503 37.4197 49.7723L35.2486 49.4112C35.2244 49.4085 35.2009 49.401 35.1795 49.3893C35.1581 49.3775 35.1393 49.3616 35.1241 49.3426C35.1088 49.3235 35.0975 49.3016 35.0907 49.2782C35.0839 49.2548 35.0818 49.2302 35.0845 49.206C35.0872 49.1817 35.0946 49.1582 35.1064 49.1369C35.1181 49.1155 35.134 49.0966 35.1531 49.0814C35.1721 49.0661 35.194 49.0548 35.2174 49.048C35.2409 49.0412 35.2654 49.0391 35.2897 49.0418C36.1721 49.1075 37.0668 49.128 37.9492 49.1075C38.8315 49.087 39.283 48.9269 39.3364 48.8243C39.3364 48.8038 39.3364 48.7627 39.3117 48.7422C39.2294 48.6604 39.1229 48.6071 39.008 48.5904C37.3748 48.1455 35.7066 47.8407 34.0215 47.6793C33.9758 47.6743 33.9334 47.6528 33.9024 47.6188C33.8715 47.5848 33.854 47.5406 33.8532 47.4946V47.4741C33.8594 47.4251 33.8841 47.3804 33.9223 47.3491C33.9605 47.3178 34.0092 47.3023 34.0584 47.3058L38.8972 47.7942C39.2536 47.8572 39.6208 47.813 39.952 47.667C39.9766 47.6423 39.9807 47.6259 39.9766 47.6054C39.9725 47.5849 39.9438 47.5356 39.8289 47.4823C39.521 47.3514 39.1986 47.2577 38.8685 47.2032C38.6756 47.1622 38.4827 47.1252 38.3021 47.0719C37.7193 46.9077 37.1242 46.7641 36.5291 46.6615C35.934 46.5589 35.2979 46.4481 34.6905 46.3824C34.4804 46.3622 34.2695 46.3526 34.0584 46.3537C33.6772 46.3649 33.2962 46.3249 32.9257 46.2347C32.9013 46.2285 32.8785 46.2172 32.8587 46.2017C32.8389 46.1861 32.8226 46.1666 32.8108 46.1444C32.7923 46.0983 32.7923 46.0468 32.8108 46.0007C32.9667 45.4836 33.6767 45.0158 34.1939 44.671L34.4483 44.4987C34.645 44.3836 34.82 44.235 34.9654 44.0595C35.0168 43.9818 35.0514 43.8942 35.0669 43.8023C35.0825 43.7105 35.0787 43.6163 35.0557 43.526C35.0557 43.526 35.0229 43.4809 34.9531 43.485C34.4861 43.5232 34.0307 43.65 33.6111 43.8585C33.3854 43.9487 33.1514 44.0472 32.9134 44.1211C32.3319 44.3007 31.7606 44.5117 31.2019 44.7531C30.9434 44.8598 30.6848 44.9747 30.4304 45.0855C29.2981 45.6411 28.1016 46.0546 26.868 46.3168C26.8221 46.3184 26.7772 46.3034 26.7417 46.2744C26.7061 46.2453 26.6824 46.2044 26.6748 46.1591C26.6673 46.1139 26.6765 46.0674 26.7007 46.0285C26.7249 45.9895 26.7625 45.9607 26.8064 45.9474C28.0083 45.6891 29.1743 45.2853 30.2785 44.7449L31.0542 44.4043C31.6259 44.1604 32.2094 43.9454 32.8026 43.76C33.0283 43.6878 33.2502 43.6042 33.4674 43.5096C33.9313 43.2853 34.4318 43.1462 34.9449 43.0992C35.0344 43.0948 35.1234 43.1155 35.2017 43.1591C35.28 43.2026 35.3446 43.2671 35.3882 43.3455C35.4449 43.4974 35.4638 43.661 35.443 43.8219C35.4223 43.9828 35.3626 44.1362 35.2692 44.2689C35.1003 44.4817 34.8946 44.6624 34.6617 44.8024L34.3991 44.9788C33.9712 45.2277 33.5871 45.5452 33.2622 45.9187C33.534 45.9577 33.8085 45.9755 34.0831 45.972C34.305 45.9694 34.527 45.979 34.7479 46.0007C35.3718 46.0664 35.9792 46.1649 36.6194 46.2839C37.2597 46.4029 37.8301 46.5466 38.4211 46.7148C38.5935 46.7641 38.7782 46.801 38.9588 46.838C39.3188 46.8979 39.6702 47.0012 40.0053 47.1458C40.1008 47.1781 40.1855 47.2362 40.25 47.3137C40.3145 47.3913 40.3562 47.4851 40.3706 47.5849C40.3753 47.6514 40.3649 47.7181 40.34 47.78C40.3151 47.8419 40.2764 47.8972 40.227 47.9419C39.9397 48.2169 39.242 48.2005 38.9629 48.1759L39.1229 48.221C39.3256 48.258 39.5079 48.3674 39.636 48.5288C39.6867 48.5939 39.7179 48.672 39.7259 48.7541C39.7339 48.8362 39.7183 48.9189 39.6811 48.9926C39.5251 49.2881 38.9506 49.4522 37.9779 49.4727C38.3062 49.5302 38.6428 49.5917 38.9711 49.6779C39.2782 49.7339 39.5629 49.8763 39.7919 50.0883C39.8231 50.1179 39.8479 50.1536 39.8649 50.1931C39.8818 50.2326 39.8905 50.2752 39.8904 50.3182C39.8858 50.3777 39.8639 50.4347 39.8275 50.4821C39.7911 50.5294 39.7416 50.5652 39.6852 50.5849C39.4675 50.6835 39.2366 50.7498 38.9998 50.7819C39.0306 50.8071 39.0594 50.8345 39.086 50.864C39.1007 50.8791 39.112 50.8974 39.1188 50.9173C39.1586 51.0345 39.1579 51.1616 39.117 51.2784C39.0761 51.3952 38.9973 51.4949 38.8931 51.5617C38.728 51.6623 38.5404 51.7202 38.3473 51.7299C37.9796 51.7738 37.6093 51.7917 37.2391 51.7833Z" fill="#231F20"/>
<path d="M18.4944 25.4808C18.4944 25.4808 5.866 48.4632 10.3929 50.0063C12.2479 50.6383 28.8615 51.611 28.8615 51.611L30.6222 44.4454L18.1784 42.5206L18.4944 25.4808Z" fill="#003C74"/>
<path d="M34.8437 15.1386C34.2635 15.137 33.6968 14.9634 33.2152 14.6398C32.7337 14.3162 32.3588 13.8571 32.1381 13.3206C31.9174 12.784 31.8607 12.194 31.9752 11.6253C32.0897 11.0565 32.3702 10.5344 32.7813 10.125C33.1924 9.71562 33.7157 9.43728 34.285 9.32519C34.8543 9.21309 35.444 9.27227 35.9796 9.49523C36.5153 9.71819 36.9728 10.0949 37.2944 10.5778C37.616 11.0608 37.7872 11.6282 37.7864 12.2084C37.7859 12.594 37.7093 12.9758 37.5611 13.3319C37.4128 13.688 37.1959 14.0114 36.9226 14.2835C36.6493 14.5557 36.325 14.7713 35.9683 14.918C35.6116 15.0647 35.2294 15.1397 34.8437 15.1386ZM34.8437 9.65156C34.338 9.65156 33.8437 9.80151 33.4232 10.0825C33.0027 10.3634 32.675 10.7627 32.4815 11.2299C32.288 11.6971 32.2373 12.2112 32.336 12.7072C32.4346 13.2031 32.6782 13.6587 33.0357 14.0163C33.3933 14.3739 33.8489 14.6174 34.3449 14.716C34.8409 14.8147 35.355 14.764 35.8222 14.5705C36.2894 14.377 36.6887 14.0493 36.9697 13.6288C37.2507 13.2084 37.4006 12.714 37.4006 12.2084C37.3995 11.5306 37.1298 10.8809 36.6505 10.4016C36.1712 9.92237 35.5215 9.65264 34.8437 9.65156Z" fill="#231F20"/>
<path d="M29.1652 14.6667C28.5857 14.6667 28.0191 14.4948 27.5372 14.1728C27.0553 13.8509 26.6797 13.3932 26.4579 12.8578C26.2361 12.3223 26.1781 11.7332 26.2912 11.1647C26.4042 10.5963 26.6833 10.0742 27.0931 9.66441C27.503 9.2546 28.0251 8.97552 28.5935 8.86246C29.162 8.74939 29.7512 8.80742 30.2866 9.02921C30.8221 9.25099 31.2797 9.62657 31.6017 10.1085C31.9237 10.5903 32.0956 11.1569 32.0956 11.7364C32.0945 12.5132 31.7854 13.2579 31.2361 13.8072C30.6868 14.3565 29.9421 14.6656 29.1652 14.6667ZM29.1652 9.17962C28.6593 9.17881 28.1646 9.32807 27.7436 9.60852C27.3226 9.88897 26.9942 10.288 26.8 10.7551C26.6059 11.2222 26.5547 11.7365 26.6529 12.2327C26.7511 12.7289 26.9943 13.1849 27.3517 13.5429C27.7091 13.9009 28.1647 14.1448 28.6608 14.2438C29.1569 14.3428 29.6712 14.2924 30.1386 14.099C30.6061 13.9056 31.0057 13.5779 31.2868 13.1573C31.5679 12.7368 31.718 12.2423 31.718 11.7364C31.7169 11.0594 31.4477 10.4103 30.9694 9.93113C30.491 9.45199 29.8423 9.18179 29.1652 9.17962Z" fill="#231F20"/>
<path d="M30.6273 44.63H30.5986L18.1549 42.7052C18.129 42.7015 18.1042 42.6923 18.0822 42.6781C18.0603 42.664 18.0416 42.6452 18.0276 42.6231C18.0127 42.6019 18.0025 42.5778 17.9975 42.5523C17.9926 42.5269 17.9931 42.5006 17.9989 42.4754L20.9949 29.5478C21.0047 29.4982 21.0338 29.4546 21.0757 29.4265C21.1177 29.3984 21.1691 29.3882 21.2186 29.398C21.2681 29.4078 21.3117 29.4368 21.3398 29.4788C21.3679 29.5207 21.3782 29.5721 21.3684 29.6216L18.4175 42.3441L30.6643 44.236C30.6888 44.24 30.7124 44.2488 30.7335 44.2619C30.7546 44.275 30.773 44.2921 30.7875 44.3123C30.802 44.3326 30.8123 44.3554 30.8179 44.3797C30.8236 44.4039 30.8244 44.429 30.8202 44.4535C30.8192 44.4778 30.8134 44.5016 30.8031 44.5236C30.7928 44.5456 30.7783 44.5654 30.7604 44.5817C30.7425 44.5981 30.7215 44.6108 30.6987 44.6191C30.6758 44.6274 30.6516 44.6311 30.6273 44.63Z" fill="#231F20"/>
<path d="M42.9751 47.9953C42.9295 47.9956 42.8853 47.9789 42.8512 47.9486C42.8171 47.9183 42.7955 47.8764 42.7904 47.8311L40.8327 31.6039C40.451 28.4274 40.451 28.4274 40.6234 28.3904L40.6973 28.7598L40.6603 28.5751H40.8491C40.8738 28.8542 43.1393 47.6095 43.1639 47.7983C43.1697 47.8478 43.1557 47.8975 43.1249 47.9368C43.0942 47.976 43.0492 48.0014 42.9997 48.0076L42.9751 47.9953Z" fill="#231F20"/>
<path d="M45.7779 40.5793C45.7461 40.579 45.7148 40.5707 45.6871 40.5551C45.6594 40.5395 45.636 40.5172 45.6192 40.4902C45.6025 40.4632 45.5928 40.4323 45.5911 40.4006C45.5894 40.3688 45.5958 40.3371 45.6096 40.3085L53.0463 25.3986C53.0684 25.3543 53.107 25.3204 53.1538 25.3043C53.2007 25.2882 53.252 25.2911 53.2967 25.3124C53.3413 25.3353 53.3752 25.3747 53.3913 25.4222C53.4074 25.4697 53.4044 25.5216 53.3828 25.5669L45.9461 40.4767C45.9306 40.508 45.9066 40.5342 45.8768 40.5524C45.8471 40.5705 45.8127 40.5799 45.7779 40.5793Z" fill="#231F20"/>
<path d="M8.77717 40.9036H8.75255C8.69876 40.8974 8.64959 40.8702 8.61577 40.8279C8.58194 40.7857 8.5662 40.7317 8.57197 40.6779C8.57197 40.6081 9.36817 33.6477 8.57197 30.1429C8.16155 28.2756 7.55414 27.5861 7.12731 27.3358C7.04265 27.2771 6.94711 27.236 6.84632 27.2149C6.74552 27.1937 6.64151 27.193 6.54042 27.2127C6.48817 27.2282 6.43192 27.2227 6.38363 27.1974C6.33535 27.1721 6.29884 27.129 6.28186 27.0772C6.26627 27.0261 6.27127 26.9708 6.2958 26.9233C6.32034 26.8758 6.36246 26.8397 6.41319 26.8228C6.56519 26.7851 6.72327 26.7788 6.8778 26.8042C7.03233 26.8296 7.18006 26.8862 7.312 26.9705C8.04253 27.3809 8.6007 28.4192 8.95365 30.0567C9.77448 33.6231 8.99059 40.4358 8.95365 40.7271C8.94841 40.7721 8.92813 40.814 8.8961 40.8461C8.86407 40.8781 8.82217 40.8984 8.77717 40.9036Z" fill="white"/>
<path d="M26.4281 37.9118C26.4007 37.9096 26.3742 37.9011 26.3507 37.8868C26.3272 37.8726 26.3073 37.853 26.2927 37.8297L22.4964 33.4795C22.4637 33.4452 22.4455 33.3996 22.4455 33.3523C22.4455 33.3049 22.4637 33.2594 22.4964 33.2251L24.9588 30.7093L22.4964 28.407C22.4647 28.3767 22.4446 28.3365 22.4393 28.2931C22.4341 28.2497 22.4441 28.2058 22.4676 28.1689C22.878 27.5656 24.8644 24.5492 25.0327 24.3809C25.0681 24.3456 25.1161 24.3257 25.1661 24.3257C25.2161 24.3257 25.2641 24.3456 25.2995 24.3809C25.3169 24.3981 25.3306 24.4186 25.3401 24.4411C25.3495 24.4636 25.3543 24.4878 25.3543 24.5123C25.3543 24.5367 25.3495 24.5609 25.3401 24.5834C25.3306 24.606 25.3169 24.6264 25.2995 24.6436C25.1682 24.7913 23.8056 26.8269 22.8698 28.2428L25.3323 30.5657C25.3507 30.5831 25.3652 30.6041 25.3751 30.6274C25.385 30.6507 25.39 30.6758 25.3898 30.7011C25.3888 30.7512 25.3698 30.7992 25.3364 30.8365L22.8739 33.3646L26.5677 37.5999C26.5994 37.6384 26.615 37.6877 26.6112 37.7374C26.6073 37.7872 26.5844 37.8335 26.5471 37.8667C26.5136 37.8945 26.4717 37.9104 26.4281 37.9118Z" fill="#231F20"/>
<path d="M35.7326 36.8612C35.6933 36.8604 35.655 36.8491 35.6217 36.8283C35.5819 36.7988 35.5549 36.755 35.5465 36.7061C35.5381 36.6571 35.5489 36.6069 35.5766 36.5657L38.5521 32.3262L35.4494 29.8638C35.4292 29.8472 35.4125 29.8266 35.4005 29.8033C35.3886 29.78 35.3814 29.7545 35.3796 29.7284C35.3769 29.7029 35.38 29.6772 35.3885 29.6531C35.397 29.6289 35.4108 29.607 35.4288 29.5889L37.3085 27.6189L34.0252 24.66C33.9909 24.6241 33.9717 24.5763 33.9717 24.5266C33.9717 24.4769 33.9909 24.4291 34.0252 24.3932C34.0606 24.3579 34.1086 24.338 34.1586 24.338C34.2086 24.338 34.2566 24.3579 34.292 24.3932L37.6984 27.4835C37.7172 27.5 37.7324 27.5201 37.743 27.5427C37.7536 27.5653 37.7594 27.5899 37.76 27.6148C37.7615 27.6399 37.7575 27.6651 37.7483 27.6885C37.7391 27.7119 37.7249 27.733 37.7066 27.7503L35.8393 29.7079L38.9215 32.1703C38.9595 32.1996 38.9846 32.2425 38.9915 32.29C38.9984 32.3375 38.9865 32.3858 38.9584 32.4247L35.8803 36.8119C35.8605 36.8299 35.8371 36.8436 35.8116 36.8521C35.7862 36.8606 35.7593 36.8637 35.7326 36.8612Z" fill="#231F20"/>
<path d="M108.671 20.0429C109.537 20.006 110.399 19.8582 111.404 19.7721C112.34 19.69 113.543 19.3617 113.559 18.4054C113.559 17.5846 112.611 16.9444 112.825 16.1687C112.898 15.9604 113.011 15.7682 113.157 15.6024C114.493 13.8099 115.084 11.5702 114.806 9.35189C114.529 7.13359 113.404 5.10864 111.667 3.70077C111.734 3.71245 111.803 3.70983 111.869 3.69311C111.935 3.67638 111.997 3.64591 112.05 3.60369C112.104 3.56148 112.148 3.50846 112.179 3.44811C112.211 3.38775 112.229 3.32142 112.234 3.25344C112.238 2.97199 112.13 2.70042 111.934 2.4983C111.24 1.72928 110.337 1.17885 109.336 0.914156C106.173 -0.0606595 102.789 -0.0606595 99.6256 0.914156C97.1959 1.62415 94.2902 3.55713 94.6062 6.48739C94.7211 7.53802 95.5461 8.56812 96.6049 8.61327C97.1467 11.7528 98.7924 13.8951 100.861 16.1687C102.247 17.7259 103.997 18.9158 105.954 19.6325C106.824 19.9481 107.747 20.0876 108.671 20.0429Z" fill="white"/>
<path d="M108.289 20.2564C107.471 20.2614 106.658 20.1225 105.888 19.846C103.896 19.1201 102.116 17.91 100.709 16.3247C98.7963 14.2276 97.0356 12.0689 96.4323 8.8267C95.2996 8.67896 94.5157 7.57088 94.4008 6.52846C94.0889 3.65566 96.7689 1.55441 99.5679 0.737711C102.771 -0.245822 106.195 -0.245822 109.397 0.737711C110.434 1.01684 111.37 1.58639 112.094 2.37931C112.208 2.49971 112.297 2.64145 112.356 2.79639C112.415 2.95132 112.443 3.11642 112.438 3.28219C112.426 3.39046 112.391 3.49488 112.335 3.58836C112.279 3.68183 112.204 3.76217 112.114 3.82392C113.766 5.2983 114.806 7.33763 115.029 9.54038C115.253 11.7431 114.643 13.9497 113.321 15.7255L113.292 15.7625C113.177 15.8993 113.085 16.0547 113.021 16.2221C113.005 16.4074 113.025 16.5941 113.08 16.7716C113.136 16.9491 113.226 17.1138 113.345 17.2563C113.588 17.5943 113.731 17.9941 113.756 18.4096C113.756 19.2673 112.865 19.8501 111.412 19.9732C111.002 20.0101 110.592 20.0594 110.226 20.1004C109.689 20.1661 109.184 20.2276 108.671 20.2481L108.289 20.2564ZM104.632 0.413496C102.957 0.417098 101.29 0.660327 99.6828 1.1358C97.7046 1.71446 94.4788 3.48329 94.8317 6.48742C94.9302 7.3903 95.6526 8.39168 96.6334 8.43682C96.6801 8.4381 96.7249 8.4556 96.7601 8.4863C96.7953 8.51701 96.8187 8.559 96.8263 8.60509C97.3311 11.523 98.7512 13.5299 101.033 16.0539C102.396 17.5867 104.118 18.7584 106.044 19.4643C106.889 19.7636 107.785 19.8906 108.679 19.8377C109.18 19.8377 109.676 19.7557 110.206 19.6941C110.588 19.649 110.986 19.6038 111.408 19.5669C111.831 19.5299 113.358 19.3289 113.374 18.4013C113.341 18.0625 113.216 17.7392 113.013 17.4656C112.767 17.0552 112.508 16.6161 112.648 16.1154C112.721 15.8961 112.835 15.6927 112.984 15.5162L113.013 15.4793C114.315 13.7313 114.89 11.5476 114.619 9.3852C114.347 7.22275 113.25 5.24911 111.556 3.87727C111.519 3.84679 111.494 3.80419 111.485 3.75694C111.476 3.70968 111.483 3.66076 111.507 3.61872C111.529 3.57614 111.565 3.54282 111.61 3.52476C111.654 3.50671 111.704 3.5051 111.749 3.52023C111.774 3.52792 111.801 3.52932 111.826 3.52431C111.852 3.5193 111.876 3.50803 111.897 3.4915C111.938 3.46435 111.973 3.42868 111.999 3.38691C112.025 3.34514 112.042 3.29823 112.049 3.24936C112.045 3.02174 111.954 2.80425 111.794 2.64197C111.121 1.82117 110.042 1.37383 109.291 1.12759C107.786 0.643048 106.213 0.401979 104.632 0.413496Z" fill="#231F20"/>
<path d="M95.767 13.2056C95.767 13.2056 93.5262 16.8992 94.0474 17.6215C94.5686 18.3438 96.1856 17.7898 96.1856 17.7898" fill="white"/>
<path d="M95.0157 18.192C94.8023 18.2101 94.5876 18.1767 94.3898 18.0946C94.192 18.0124 94.0168 17.884 93.8789 17.7201C93.3248 16.9444 95.0486 13.9731 95.5903 13.0785C95.603 13.0531 95.6209 13.0306 95.6428 13.0125C95.6646 12.9943 95.69 12.9809 95.7173 12.9731C95.7446 12.9653 95.7733 12.9633 95.8014 12.9671C95.8296 12.9709 95.8566 12.9805 95.8808 12.9954C95.9051 13.0102 95.926 13.0299 95.9422 13.0532C95.9584 13.0765 95.9696 13.1029 95.9751 13.1308C95.9806 13.1587 95.9802 13.1874 95.974 13.2151C95.9678 13.2428 95.956 13.269 95.9392 13.2919C94.8967 15.0114 93.9404 17.1004 94.2154 17.4779C94.5684 17.9745 95.7052 17.716 96.1156 17.5764C96.1674 17.5593 96.2238 17.563 96.2728 17.5867C96.3219 17.6105 96.3597 17.6524 96.3783 17.7037C96.3953 17.7548 96.3915 17.8106 96.3677 17.859C96.3439 17.9074 96.302 17.9445 96.2511 17.9622C95.8531 18.1004 95.4367 18.1778 95.0157 18.192Z" fill="#231F20"/>
<path d="M96.0937 8.42857C94.6285 9.72543 95.1662 12.3151 95.2442 14.0264C95.3536 16.415 95.5191 18.7994 95.7408 21.1797C95.8803 22.69 99.8039 22.571 100.477 22.0908L100.095 28.095C100.095 28.095 101.995 28.5382 105.102 26.954C108.209 25.3699 108.209 24.6189 108.209 24.6189L107.68 17.72C107.68 17.72 105.094 17.8308 103.452 14.8062C101.811 11.7815 101.671 7.04962 101.671 7.04962C101.671 7.04962 97.522 7.16864 96.0937 8.42857Z" fill="white"/>
<path d="M100.798 28.3495C100.544 28.3556 100.291 28.3336 100.043 28.2838C99.9948 28.2739 99.9524 28.2466 99.9235 28.2072C99.8947 28.1677 99.8816 28.119 99.8867 28.0704L100.248 22.4028C99.3695 22.6778 97.4734 22.7147 96.4022 22.2222C96.1752 22.1481 95.9734 22.012 95.8196 21.8292C95.6659 21.6465 95.5663 21.4244 95.5322 21.188C95.3146 18.8159 95.1464 16.4068 95.0356 14.0224C95.0356 13.7392 94.9986 13.4314 94.9699 13.1031C94.8304 11.4615 94.658 9.4095 95.9549 8.27679C97.4242 6.97993 101.491 6.83629 101.664 6.83219C101.69 6.8294 101.717 6.83277 101.742 6.84202C101.767 6.85128 101.789 6.86617 101.807 6.88554C101.828 6.90365 101.844 6.92577 101.855 6.95049C101.867 6.97521 101.873 7.002 101.873 7.02918C101.873 7.07842 102.013 11.7611 103.617 14.7078C105.181 17.5806 107.57 17.5108 107.668 17.5067C107.695 17.505 107.721 17.5086 107.746 17.5172C107.771 17.5258 107.794 17.5392 107.814 17.5568C107.834 17.5743 107.85 17.5956 107.862 17.6194C107.873 17.6432 107.88 17.6691 107.882 17.6955L108.407 24.5902C108.407 24.7544 108.255 25.5588 105.189 27.1224C103.842 27.8715 102.338 28.292 100.798 28.3495ZM100.305 27.9104C100.831 27.9678 102.53 28.0212 105.005 26.7571C107.836 25.3125 108.001 24.5943 108.001 24.5861L107.488 17.913C106.827 17.8802 104.701 17.5518 103.256 14.9048C101.812 12.2577 101.516 8.21523 101.471 7.25079C100.63 7.29594 97.4078 7.54218 96.2258 8.5846C95.0848 9.59008 95.249 11.519 95.3803 13.0703C95.409 13.4027 95.4337 13.7146 95.446 14.006C95.5568 16.3822 95.7251 18.783 95.9426 21.147C95.9672 21.4342 96.1806 21.6682 96.5746 21.8487C97.7197 22.3782 99.9154 22.2263 100.355 21.9144C100.387 21.8936 100.425 21.8825 100.463 21.8825C100.502 21.8825 100.54 21.8936 100.572 21.9144C100.606 21.9331 100.635 21.9611 100.654 21.9953C100.672 22.0295 100.681 22.0683 100.679 22.1073L100.305 27.9104Z" fill="#231F20"/>
<path d="M95.7266 19.3863C95.7266 19.3863 97.6227 20.4533 98.5338 18.4998L95.7266 19.3863Z" fill="white"/>
<path d="M96.8839 19.8829C96.4542 19.8734 96.0326 19.7638 95.6526 19.5628C95.6288 19.55 95.6078 19.5325 95.5909 19.5113C95.574 19.4902 95.5616 19.4659 95.5543 19.4398C95.547 19.4138 95.5451 19.3865 95.5486 19.3597C95.5521 19.3329 95.5609 19.307 95.5747 19.2837C95.6014 19.2364 95.6458 19.2017 95.6981 19.187C95.7504 19.1724 95.8064 19.1792 95.8537 19.2057C96.3195 19.453 96.8595 19.5216 97.3723 19.3986C97.5993 19.3144 97.8058 19.1831 97.9784 19.0133C98.151 18.8436 98.2857 18.6392 98.3737 18.4137C98.3851 18.389 98.4014 18.3669 98.4214 18.3486C98.4415 18.3303 98.465 18.3161 98.4906 18.3069C98.5162 18.2978 98.5433 18.2938 98.5705 18.2952C98.5976 18.2966 98.6242 18.3034 98.6487 18.3152C98.6974 18.3383 98.7351 18.3797 98.7535 18.4304C98.7719 18.4811 98.7697 18.537 98.7472 18.586C98.6365 18.8642 98.4675 19.1154 98.2515 19.3228C98.0356 19.5303 97.7778 19.689 97.4954 19.7885C97.2978 19.8518 97.0914 19.8836 96.8839 19.8829Z" fill="#231F20"/>
<path d="M100.482 15.311C100.55 14.8152 100.775 14.3539 101.122 13.9936C101.359 13.6548 101.646 13.3533 101.972 13.0989C102.339 12.8261 102.792 12.6936 103.248 12.7255C103.434 12.7452 103.613 12.8023 103.776 12.8933C103.939 12.9842 104.082 13.1073 104.196 13.2549C104.386 13.5224 104.495 13.8384 104.512 14.166C104.644 15.5613 103.732 17.0388 102.226 17.8596L102.353 17.7406" fill="white"/>
<path d="M102.22 18.0524C102.187 18.0519 102.155 18.0439 102.126 18.029C102.097 18.014 102.071 17.9926 102.052 17.9662C102.023 17.9254 102.009 17.8753 102.015 17.8253C102.02 17.7754 102.043 17.7292 102.081 17.6954L102.212 17.5763C102.232 17.5567 102.257 17.5418 102.284 17.5326C102.311 17.5234 102.34 17.5201 102.368 17.523C103.648 16.7268 104.42 15.4135 104.305 14.1864C104.293 13.8917 104.196 13.6068 104.026 13.3656C103.927 13.2388 103.803 13.1337 103.662 13.0567C103.521 12.9798 103.365 12.9327 103.205 12.9183C102.798 12.8911 102.395 13.0105 102.068 13.2548C101.754 13.4977 101.478 13.7853 101.247 14.1085C100.932 14.4354 100.723 14.8504 100.648 15.2986C100.648 15.353 100.627 15.4052 100.588 15.4437C100.55 15.4822 100.497 15.5038 100.443 15.5038C100.389 15.5038 100.336 15.4822 100.298 15.4437C100.259 15.4052 100.238 15.353 100.238 15.2986C100.305 14.7558 100.545 14.2491 100.923 13.854C101.172 13.5005 101.472 13.1864 101.814 12.9224C102.222 12.6178 102.726 12.4719 103.234 12.512C103.447 12.5352 103.653 12.6014 103.84 12.7065C104.027 12.8116 104.191 12.9534 104.321 13.1235C104.535 13.4217 104.659 13.7749 104.678 14.1413C104.814 15.6064 103.858 17.1659 102.286 18.0196C102.266 18.0342 102.244 18.0453 102.22 18.0524Z" fill="#231F20"/>
<path d="M100.476 22.0784C100.476 22.0784 102.483 21.3725 103.378 19.9402C103.378 19.9402 103.378 23.5805 100.308 24.7542L100.476 22.0784Z" fill="#231F20"/>
<path d="M100.305 24.9594C100.261 24.9604 100.217 24.9459 100.182 24.9184C100.155 24.8986 100.132 24.8719 100.118 24.841C100.104 24.8101 100.097 24.7759 100.1 24.7419L100.269 22.0661C100.271 22.0261 100.285 21.9876 100.309 21.9555C100.333 21.9234 100.366 21.8991 100.404 21.8855C100.424 21.8855 102.358 21.1838 103.199 19.8335C103.222 19.7947 103.257 19.7646 103.299 19.7478C103.341 19.731 103.387 19.7285 103.431 19.7406C103.474 19.7528 103.512 19.7789 103.539 19.815C103.567 19.8511 103.581 19.8951 103.581 19.9402C103.581 19.9772 103.548 23.7364 100.375 24.9471C100.353 24.9555 100.329 24.9597 100.305 24.9594ZM100.671 22.2262L100.531 24.4382C102.399 23.56 102.944 21.6516 103.104 20.6256C102.413 21.3244 101.585 21.8722 100.671 22.2344V22.2262Z" fill="#231F20"/>
<path d="M97.2389 12.3284C97.4208 12.2904 97.4901 11.8855 97.3936 11.424C97.2971 10.9625 97.0714 10.6193 96.8895 10.6573C96.7075 10.6954 96.6383 11.1003 96.7348 11.5618C96.8313 12.0232 97.057 12.3665 97.2389 12.3284Z" fill="#231F20"/>
<path d="M86.003 49.3208C84.9318 49.9446 83.5405 49.5383 82.5145 48.8365C81.6563 48.2371 80.9428 47.4537 80.4259 46.5435C79.9091 45.6333 79.6018 44.6192 79.5266 43.5752C79.4486 42.8764 79.5815 42.1703 79.9083 41.5478C82.6868 36.898 90.378 46.7763 86.003 49.3208Z" fill="white"/>
<path d="M84.8087 49.8297C83.9453 49.7969 83.1106 49.5115 82.4078 49.0089C81.5287 48.3919 80.7977 47.5873 80.2675 46.6533C79.7373 45.7192 79.4212 44.6791 79.342 43.608C79.2586 42.8715 79.4018 42.127 79.7524 41.474C80.3721 40.4357 81.271 39.9965 82.3668 40.1976C84.5091 40.608 86.9757 43.4808 87.4395 46.1074C87.7062 47.6382 87.2302 48.8407 86.1015 49.5014C85.7084 49.7263 85.2615 49.8398 84.8087 49.8297ZM81.8619 40.5136C81.4876 40.523 81.123 40.6347 80.8075 40.8366C80.4921 41.0384 80.2379 41.3227 80.0725 41.6586C79.76 42.2458 79.6353 42.9149 79.7155 43.5752C79.7911 44.5901 80.0909 45.5755 80.5934 46.4605C81.0958 47.3455 81.7884 48.1079 82.6212 48.6929C83.5323 49.3208 84.8744 49.7723 85.9045 49.169C87.1645 48.4344 87.2302 47.117 87.0619 46.1648C86.6269 43.7024 84.267 40.9199 82.2888 40.5547C82.1479 40.5294 82.0051 40.5157 81.8619 40.5136Z" fill="#231F20"/>
<path d="M65.757 50.9419L84.8946 50.708L76.0297 28.1483L56.8921 28.3781L65.757 50.9419Z" fill="white"/>
<path d="M65.7537 51.1267C65.716 51.1279 65.6789 51.1169 65.6479 51.0955C65.6169 51.0741 65.5936 51.0433 65.5813 51.0077L56.7123 28.4356C56.6982 28.4091 56.6909 28.3795 56.6909 28.3495C56.6909 28.3194 56.6982 28.2898 56.7123 28.2633C56.7284 28.2377 56.7509 28.2168 56.7775 28.2024C56.8041 28.188 56.8339 28.1807 56.8641 28.1812L76.0017 27.9473C76.0387 27.9511 76.0741 27.9639 76.1049 27.9847C76.1357 28.0054 76.1608 28.0335 76.1782 28.0663L85.0473 50.6383C85.0577 50.6665 85.0613 50.6968 85.0577 50.7266C85.0541 50.7565 85.0434 50.785 85.0266 50.8099C85.0097 50.8348 84.9872 50.8553 84.9608 50.8697C84.9344 50.8841 84.9049 50.892 84.8749 50.8928L65.7373 51.1226L65.7537 51.1267ZM57.1596 28.5547L65.8809 50.745L84.6204 50.5152L75.8991 28.3289L57.1596 28.5547Z" fill="#231F20"/>
<path d="M66.4065 50.392L85.5441 50.1622L76.6791 27.6025L57.5415 27.8323L66.4065 50.392Z" fill="white"/>
<path d="M66.405 50.5808C66.3675 50.5813 66.3307 50.5702 66.2998 50.5488C66.2689 50.5275 66.2455 50.4971 66.2327 50.4618L57.3636 27.8897C57.3505 27.8629 57.3438 27.8334 57.3438 27.8036C57.3438 27.7737 57.3505 27.7442 57.3636 27.7174C57.3801 27.6918 57.4025 27.6707 57.429 27.6557C57.4554 27.6407 57.4851 27.6323 57.5155 27.6312L76.6572 27.4014C76.6944 27.404 76.7303 27.4164 76.7613 27.4373C76.7923 27.4582 76.8172 27.4868 76.8336 27.5204L85.6986 50.0924C85.7096 50.1206 85.7134 50.1511 85.7098 50.1812C85.7063 50.2112 85.6954 50.2399 85.6781 50.2648C85.6616 50.2903 85.6392 50.3115 85.6127 50.3265C85.5863 50.3415 85.5566 50.3499 85.5262 50.351L66.3886 50.5808H66.405ZM57.8151 28.0088L66.5323 50.195L85.2718 49.9693L76.5505 27.783L57.8151 28.0088Z" fill="#231F20"/>
<path d="M64.6329 39.2866C64.5788 39.2855 64.5273 39.2636 64.489 39.2253C64.4507 39.1871 64.4288 39.1355 64.4277 39.0814C64.4277 39.027 64.4494 38.9748 64.4878 38.9363C64.5263 38.8978 64.5785 38.8762 64.6329 38.8762L78.2915 38.712C78.3452 38.712 78.3968 38.7331 78.4352 38.7707C78.4736 38.8083 78.4957 38.8594 78.4967 38.9131C78.4967 38.9679 78.4753 39.0206 78.4369 39.0597C78.3985 39.0988 78.3463 39.1214 78.2915 39.1224L64.6329 39.2866Z" fill="#D1D3D4"/>
<path d="M65.5348 41.5849C65.4804 41.5849 65.4282 41.5632 65.3897 41.5248C65.3512 41.4863 65.3296 41.4341 65.3296 41.3797C65.3296 41.3252 65.3512 41.273 65.3897 41.2346C65.4282 41.1961 65.4804 41.1745 65.5348 41.1745L79.1934 41.0103C79.2208 41.0079 79.2483 41.0114 79.2743 41.0206C79.3002 41.0297 79.3238 41.0443 79.3436 41.0634C79.3635 41.0824 79.379 41.1055 79.3892 41.131C79.3994 41.1565 79.404 41.1839 79.4027 41.2114C79.4032 41.2383 79.3985 41.2651 79.3887 41.2902C79.3788 41.3153 79.3642 41.3383 79.3455 41.3577C79.3268 41.3771 79.3045 41.3927 79.2798 41.4035C79.2551 41.4143 79.2285 41.4202 79.2016 41.4207L65.5389 41.5849H65.5348Z" fill="#D1D3D4"/>
<path d="M66.4376 43.8832C66.3832 43.8832 66.331 43.8615 66.2925 43.823C66.254 43.7846 66.2324 43.7324 66.2324 43.678C66.2324 43.6235 66.254 43.5713 66.2925 43.5329C66.331 43.4944 66.3832 43.4728 66.4376 43.4728L80.1003 43.3086C80.1547 43.3086 80.2069 43.3302 80.2454 43.3687C80.2839 43.4072 80.3055 43.4594 80.3055 43.5138C80.3055 43.5682 80.2839 43.6204 80.2454 43.6589C80.2069 43.6974 80.1547 43.719 80.1003 43.719L66.4376 43.8832Z" fill="#D1D3D4"/>
<path d="M72.3409 46.1239C72.2869 46.1228 72.2353 46.1008 72.197 46.0626C72.1587 46.0243 72.1368 45.9728 72.1357 45.9187C72.1357 45.8642 72.1574 45.812 72.1958 45.7736C72.2343 45.7351 72.2865 45.7135 72.3409 45.7135L81.0007 45.6068C81.0551 45.6068 81.1073 45.6284 81.1458 45.6669C81.1843 45.7053 81.2059 45.7575 81.2059 45.812C81.2059 45.8664 81.1843 45.9186 81.1458 45.9571C81.1073 45.9955 81.0551 46.0172 81.0007 46.0172L72.3409 46.1239Z" fill="#D1D3D4"/>
<path d="M63.908 37.4398C63.8667 37.441 63.826 37.4294 63.7915 37.4066C63.757 37.3839 63.7303 37.351 63.7152 37.3125L60.7684 29.794C60.7574 29.7631 60.7539 29.7301 60.758 29.6975C60.7622 29.665 60.7739 29.6339 60.7923 29.6068C60.8107 29.5796 60.8351 29.5572 60.8638 29.5412C60.8924 29.5253 60.9244 29.5163 60.9572 29.5149L68.4021 29.4246C68.4433 29.424 68.4837 29.4358 68.5181 29.4585C68.5525 29.4812 68.5793 29.5137 68.595 29.5519L71.5459 37.0704C71.5579 37.1012 71.5623 37.1344 71.5588 37.1673C71.5552 37.2002 71.5437 37.2317 71.5253 37.2592C71.5072 37.2873 71.4823 37.3103 71.4529 37.3261C71.4234 37.3419 71.3905 37.3499 71.3571 37.3495L63.9122 37.4398H63.908ZM61.2527 29.9212L64.0435 37.0294L71.0534 36.9432L68.2584 29.835L61.2527 29.9212Z" fill="#D1D3D4"/>
<path d="M75.3382 31.9281H74.8826L74.5133 30.9842H74.1808L73.9592 31.9322H73.4092L73.7006 30.939C73.5139 30.9232 73.335 30.8565 73.1835 30.7462C73.0414 30.6431 72.9328 30.5003 72.8716 30.3358C72.8252 30.2388 72.8095 30.13 72.8265 30.0238C72.8456 29.9437 72.8939 29.8735 72.9619 29.8269C73.0423 29.7728 73.1332 29.7365 73.2287 29.7201C73.3423 29.6983 73.4577 29.6873 73.5734 29.6873H74.464L75.3382 31.9281ZM74.3778 30.6518L74.1398 30.0444H73.7294H73.5529C73.5006 30.0507 73.4494 30.0645 73.401 30.0854C73.3615 30.105 73.3308 30.1387 73.3149 30.1798C73.3042 30.2044 73.2988 30.231 73.2988 30.2578C73.2988 30.2846 73.3042 30.3111 73.3149 30.3358C73.3378 30.4021 73.3774 30.4614 73.4298 30.5081C73.4803 30.5477 73.5372 30.5782 73.598 30.5984C73.6611 30.6156 73.7257 30.6266 73.7909 30.6312H73.992L74.3778 30.6518Z" fill="#D1D3D4"/>
<path d="M73.0795 31.957L71.3189 31.9775L71.1793 31.6204H72.4844L72.2464 31.0171H71.0726L70.929 30.6601H72.1069L71.8893 30.1143H70.6581L70.5186 29.7572L72.2136 29.7367L73.0795 31.957Z" fill="#D1D3D4"/>
<path d="M74.0352 32.6751C74.1069 32.589 74.2026 32.5262 74.3101 32.4945C74.4308 32.4559 74.5569 32.4365 74.6836 32.4371C74.8049 32.4341 74.926 32.4451 75.0448 32.4699C75.1654 32.4973 75.2825 32.5386 75.3936 32.593C75.5023 32.6455 75.602 32.7148 75.6891 32.7982C75.7776 32.8819 75.8462 32.9843 75.8902 33.0978C75.9395 33.1956 75.9511 33.308 75.9231 33.4138C75.8959 33.4923 75.8441 33.56 75.7753 33.6067C75.6984 33.6579 75.6139 33.6967 75.525 33.7216C75.4373 33.7473 75.351 33.7774 75.2664 33.8119C75.1992 33.8379 75.1378 33.877 75.0858 33.9268C75.0669 33.9547 75.0568 33.9876 75.0568 34.0212C75.0568 34.0549 75.0669 34.0877 75.0858 34.1156C75.1071 34.167 75.1393 34.2132 75.1802 34.251C75.2231 34.2895 75.2715 34.3213 75.3239 34.3454C75.3762 34.3699 75.4313 34.3879 75.488 34.3988C75.5438 34.4067 75.6005 34.4067 75.6563 34.3988C75.7476 34.4007 75.838 34.3796 75.919 34.3372C75.9883 34.2975 76.0419 34.2352 76.0708 34.1607L76.5264 34.448C76.4621 34.5591 76.3602 34.6435 76.2391 34.6861C76.1001 34.7329 75.9548 34.7578 75.8081 34.7599C75.6811 34.7605 75.5545 34.7467 75.4306 34.7189C75.3092 34.692 75.1919 34.6492 75.0817 34.5917C74.9735 34.5336 74.8752 34.4588 74.7903 34.3701C74.7034 34.2803 74.635 34.1743 74.5892 34.0581C74.5421 33.9598 74.5305 33.8481 74.5564 33.7421C74.5843 33.6629 74.6359 33.5941 74.7041 33.5451C74.781 33.4939 74.8655 33.4551 74.9545 33.4302C75.0489 33.4015 75.1351 33.3687 75.213 33.3399C75.2801 33.3149 75.3425 33.2788 75.3977 33.2332C75.4187 33.2094 75.4319 33.1797 75.4356 33.1482C75.4392 33.1167 75.4332 33.0848 75.4183 33.0568C75.3978 33.0093 75.3685 32.9661 75.3321 32.9295C75.2927 32.8935 75.2485 32.8631 75.2007 32.8393C75.1502 32.8185 75.098 32.8021 75.0448 32.79H74.8847C74.8032 32.7896 74.7224 32.8049 74.6467 32.8352C74.6152 32.8466 74.5865 32.8646 74.5624 32.888C74.5384 32.9113 74.5195 32.9395 74.5071 32.9706L74.0352 32.6751Z" fill="#D1D3D4"/>
<path d="M71.4414 32.5315H71.897L72.4469 33.9269C72.4703 33.9884 72.5021 34.0464 72.5413 34.0992C72.5872 34.1608 72.641 34.216 72.7014 34.2634C72.7719 34.3149 72.8493 34.3564 72.9312 34.3865C73.0248 34.419 73.1235 34.4343 73.2226 34.4317C73.3105 34.4346 73.3978 34.4163 73.4771 34.3783C73.5318 34.3504 73.5764 34.3058 73.6043 34.2511C73.6288 34.2 73.6387 34.1432 73.633 34.0869C73.6295 34.0279 73.617 33.9698 73.5961 33.9146L73.0379 32.4946H73.4935L74.0475 33.9063C74.097 34.0215 74.1195 34.1464 74.1132 34.2716C74.1076 34.373 74.0687 34.4697 74.0024 34.5466C73.9346 34.6295 73.8451 34.6921 73.7438 34.7271C73.6217 34.7723 73.4923 34.7946 73.3621 34.7928C73.2164 34.7965 73.0709 34.7771 72.9312 34.7354C72.7864 34.7012 72.6479 34.6445 72.5208 34.5671C72.3998 34.4902 72.2894 34.3977 72.1925 34.2921C72.0979 34.1858 72.0228 34.0635 71.9708 33.931L71.4414 32.5315Z" fill="#D1D3D4"/>
<path d="M77.3925 37.0951H77.0436L76.4567 35.6053L76.4157 37.1033H76.1612L74.9505 35.6217L75.5333 37.1115H75.1844L74.4785 35.318H75.0326L76.0832 36.5698L76.1366 35.3057H76.6948L77.3925 37.0951Z" fill="#D1D3D4"/>
<path d="M74.7199 37.128H73.3039L73.189 36.8407H74.2397L74.0509 36.3564H73.1028L72.992 36.0691H73.936L73.7636 35.63H72.7663L72.6514 35.3386H74.0139L74.7199 37.128Z" fill="#D1D3D4"/>
<path d="M64.0273 35.1702C63.6169 34.686 63.7564 34.1196 63.7277 33.5697C63.699 33.0197 63.4815 32.4862 63.4609 31.9609C63.4768 31.6085 63.5824 31.2659 63.7677 30.9657C63.953 30.6655 64.2119 30.4176 64.5198 30.2454C64.7066 30.12 64.9282 30.0569 65.153 30.065C65.3778 30.0731 65.5943 30.1521 65.7716 30.2906C65.9727 29.9746 66.4734 29.9992 66.8592 30.1633C67.39 30.4087 67.8512 30.7825 68.2012 31.2509C68.6472 31.7833 68.9546 32.4177 69.0959 33.0977C69.1646 33.4136 69.1654 33.7406 69.0982 34.0569C69.031 34.3731 68.8973 34.6715 68.706 34.9322C68.3063 35.3879 67.7524 35.6802 67.1506 35.753C66.5229 35.8321 65.8872 35.8211 65.2627 35.7202C64.8635 35.6951 64.4808 35.5523 64.1627 35.3098C64.1145 35.2663 64.0693 35.2197 64.0273 35.1702Z" fill="white"/>
<path d="M66.4262 35.9994C66.0279 35.9956 65.6303 35.9655 65.236 35.9091C64.797 35.8868 64.3749 35.7323 64.0253 35.4658C63.9678 35.4153 63.9143 35.3604 63.8652 35.3017C63.5821 34.9138 63.46 34.4314 63.5246 33.9556C63.5246 33.8283 63.5246 33.7052 63.5246 33.5821C63.5026 33.322 63.46 33.064 63.3974 32.8105C63.3257 32.5418 63.2789 32.2671 63.2578 31.9897C63.2711 31.5992 63.385 31.2187 63.5885 30.8851C63.7919 30.5515 64.0781 30.2761 64.4193 30.0855C64.6141 29.9571 64.8405 29.885 65.0737 29.877C65.3069 29.8691 65.5377 29.9256 65.7408 30.0403C65.9183 29.9268 66.1228 29.8624 66.3334 29.8537C66.5439 29.8451 66.753 29.8925 66.9392 29.9911C67.5028 30.2486 67.9926 30.6438 68.3634 31.1402C68.8317 31.6985 69.1546 32.364 69.3032 33.0773C69.3766 33.4222 69.3757 33.7788 69.3007 34.1234C69.2257 34.468 69.0782 34.7927 68.8682 35.0759C68.4348 35.5675 67.836 35.8829 67.1855 35.9624C66.9338 35.9953 66.6799 36.0077 66.4262 35.9994ZM64.1812 35.039C64.2177 35.0831 64.2575 35.1242 64.3003 35.1621C64.5887 35.3717 64.9331 35.4903 65.2894 35.5028C65.8933 35.6017 66.5083 35.6142 67.1157 35.5397C67.6661 35.4764 68.1742 35.2136 68.5439 34.801C68.7179 34.5644 68.8391 34.2932 68.8993 34.0057C68.9595 33.7183 68.9573 33.4213 68.8928 33.1348C68.7558 32.4884 68.4627 31.8854 68.0391 31.3782C67.7097 30.938 67.277 30.5856 66.7792 30.3522C66.4714 30.225 66.0732 30.1963 65.9583 30.4015C65.9442 30.4259 65.9246 30.4467 65.9011 30.4624C65.8776 30.478 65.8509 30.4881 65.8229 30.4918C65.7951 30.4972 65.7665 30.4968 65.7389 30.4904C65.7113 30.484 65.6854 30.4719 65.6628 30.4548C65.5182 30.3395 65.3402 30.2739 65.1553 30.268C64.9704 30.2621 64.7885 30.3161 64.6368 30.422C64.361 30.5756 64.1287 30.7965 63.9614 31.0642C63.7942 31.3319 63.6976 31.6376 63.6805 31.9528C63.6986 32.2121 63.7412 32.469 63.8078 32.7203C63.8777 32.9894 63.9243 33.264 63.9473 33.5411C63.9473 33.6724 63.9473 33.8078 63.9473 33.9515C63.8866 34.3283 63.9749 34.7139 64.1936 35.0267L64.1812 35.039Z" fill="#D1D3D4"/>
<path d="M67.7013 35.6012L67.73 35.634C67.7992 35.728 67.8732 35.8184 67.9516 35.9049C68.2439 36.2953 68.4904 36.7181 68.6863 37.1648H70.2335H70.644C70.5824 37.0376 70.529 36.9432 70.488 36.8734C69.819 35.7366 69.109 35.2769 68.5508 35.1046C68.2576 35.0123 67.9464 34.9926 67.6438 35.0471C67.5851 35.057 67.5275 35.0721 67.4715 35.0923C67.4715 35.0923 67.4304 35.2318 67.7013 35.6012Z" fill="#D1D3D4"/>
<path d="M67.4788 34.5956L67.9631 35.9007C67.9631 35.9007 68.0986 36.6599 67.2326 36.6271C66.968 36.6091 66.7095 36.5388 66.4722 36.4205C66.2348 36.3022 66.0232 36.1381 65.8495 35.9376L65.1107 33.6517C65.0674 33.2283 64.9623 32.8135 64.7988 32.4205C65.4044 32.2323 65.9162 31.8217 66.2312 31.2714C66.2312 31.2714 66.7442 31.6818 66.9412 31.8172C67.0999 31.9074 67.2474 32.0162 67.3803 32.1414C67.5797 32.379 67.7203 32.6602 67.7907 32.9622C67.9061 33.2909 67.9939 33.6286 68.0534 33.9718C68.156 34.5956 67.4788 34.5956 67.4788 34.5956Z" fill="white"/>
<path d="M67.2863 36.8324H67.2207C66.9275 36.8115 66.6414 36.733 66.3787 36.6013C66.116 36.4696 65.8819 36.2873 65.6898 36.065C65.6764 36.0444 65.6654 36.0224 65.657 35.9993C65.107 34.2961 64.9634 33.8488 64.9264 33.7175C64.9109 33.6697 64.9026 33.6199 64.9018 33.5697C64.8575 33.1956 64.7608 32.8295 64.6145 32.4822C64.6025 32.4565 64.5962 32.4285 64.5962 32.4001C64.5962 32.3717 64.6025 32.3437 64.6145 32.318C64.6274 32.2918 64.6457 32.2686 64.6684 32.2502C64.6911 32.2318 64.7175 32.2185 64.7459 32.2113C65.2952 32.0375 65.7594 31.6641 66.0469 31.1648C66.0617 31.1377 66.0822 31.1141 66.107 31.0957C66.1318 31.0772 66.1603 31.0644 66.1905 31.0581C66.2201 31.0522 66.2507 31.0532 66.2799 31.0611C66.3091 31.0689 66.3361 31.0833 66.3588 31.1032C66.4983 31.2181 66.8923 31.5136 67.0483 31.6326C67.2186 31.7303 67.377 31.8473 67.5203 31.9815C67.7487 32.2377 67.9132 32.5442 68.0004 32.8762C68.1225 33.2146 68.2132 33.5635 68.2713 33.9186C68.2938 34.0244 68.2921 34.134 68.2666 34.2391C68.241 34.3442 68.1921 34.4423 68.1236 34.526C68.0258 34.6373 67.8973 34.7173 67.7542 34.7558L68.1646 35.8269C68.1925 35.9542 68.1919 36.0861 68.1629 36.2131C68.1338 36.3401 68.0769 36.4591 67.9963 36.5616C67.906 36.6572 67.7952 36.7313 67.6723 36.7782C67.5494 36.8251 67.4174 36.8436 67.2863 36.8324ZM66.0264 35.8352C66.3458 36.1821 66.7869 36.3923 67.2576 36.422C67.335 36.4332 67.4139 36.4277 67.4889 36.4057C67.564 36.3838 67.6335 36.3459 67.6926 36.2948C67.7662 36.1897 67.797 36.0606 67.7788 35.9336L67.3027 34.6655C67.2926 34.6342 67.2895 34.601 67.2937 34.5683C67.298 34.5357 67.3095 34.5044 67.3274 34.4767C67.3469 34.4504 67.3722 34.4289 67.4014 34.414C67.4306 34.399 67.4628 34.391 67.4956 34.3905C67.6217 34.3912 67.7433 34.3443 67.8363 34.2592C67.8643 34.2191 67.8832 34.1733 67.8917 34.1251C67.9002 34.0769 67.8981 34.0274 67.8855 33.9801C67.8305 33.6493 67.7467 33.3238 67.6352 33.0075C67.5642 32.7385 67.4338 32.4889 67.2535 32.277C67.129 32.1624 66.9912 32.0632 66.8431 31.9815C66.7117 31.8994 66.4614 31.7024 66.289 31.5711C65.9839 32.01 65.5554 32.3485 65.0578 32.5437C65.1761 32.8611 65.2547 33.192 65.2917 33.5287C65.2917 33.5615 65.2917 33.5821 65.2917 33.5985C65.2917 33.6149 65.9279 35.5356 66.0264 35.8352Z" fill="#D1D3D4"/>
<path d="M64.8968 32.4944C64.8227 32.445 64.7356 32.4186 64.6465 32.4186C64.5574 32.4186 64.4703 32.445 64.3961 32.4944C64.338 32.5695 64.3027 32.6598 64.2947 32.7545C64.2867 32.8492 64.3063 32.9441 64.351 33.0279C64.4345 33.2433 64.5493 33.4452 64.6916 33.6271C64.7677 33.7424 64.8687 33.8392 64.9871 33.9103C65.0422 33.9456 65.1073 33.9619 65.1726 33.9567C65.2378 33.9515 65.2995 33.9251 65.3483 33.8816" fill="white"/>
<path d="M65.169 34.1607C65.0748 34.1604 64.982 34.1379 64.8982 34.095C64.75 34.0102 64.6236 33.8922 64.5288 33.7503C64.375 33.5516 64.2506 33.3319 64.1594 33.0978C64.0978 32.9756 64.0747 32.8377 64.093 32.7022C64.1113 32.5667 64.1702 32.4399 64.262 32.3385C64.3684 32.2603 64.4962 32.2164 64.6282 32.2127C64.7602 32.209 64.8902 32.2458 65.0008 32.318C65.0481 32.3452 65.0827 32.3901 65.097 32.4428C65.1112 32.4956 65.1039 32.5518 65.0767 32.5991C65.0495 32.6465 65.0046 32.6811 64.9518 32.6953C64.8991 32.7095 64.8429 32.7023 64.7956 32.675C64.7582 32.6475 64.7142 32.6303 64.6681 32.6252C64.622 32.6202 64.5753 32.6275 64.5329 32.6463C64.4877 32.6873 64.496 32.8187 64.5329 32.9582C64.6091 33.1547 64.7142 33.3386 64.8448 33.5041C64.9025 33.595 64.9796 33.6721 65.0705 33.7298C65.1061 33.7437 65.1457 33.7437 65.1813 33.7298C65.1981 33.7087 65.2189 33.6911 65.2425 33.6782C65.2661 33.6653 65.2921 33.6573 65.3189 33.6546C65.3457 33.6519 65.3728 33.6547 65.3985 33.6626C65.4242 33.6706 65.4481 33.6837 65.4686 33.701C65.5106 33.7362 65.5371 33.7864 65.5424 33.8409C65.5478 33.8953 65.5316 33.9497 65.4974 33.9924C65.4596 34.0441 65.4102 34.0863 65.3532 34.1155C65.2962 34.1448 65.2331 34.1602 65.169 34.1607Z" fill="#D1D3D4"/>
<path d="M64.178 36.3974C64.2078 36.6751 64.2614 36.9497 64.3381 37.2182H65.6268H66.4189C66.1726 36.7134 65.9551 36.262 65.795 35.9419C65.7622 35.8803 65.7335 35.8187 65.7089 35.7695L65.5365 35.4207C65.332 35.4906 65.1319 35.5728 64.9373 35.6669C64.5679 35.8352 64.1657 36.1019 64.178 36.3974Z" fill="#D1D3D4"/>
<path d="M67.7555 33.0057C68 32.7049 67.9229 32.2374 67.5834 31.9615C67.2439 31.6856 66.7706 31.7058 66.5261 32.0066C66.2817 32.3074 66.3587 32.7749 66.6982 33.0508C67.0377 33.3266 67.5111 33.3065 67.7555 33.0057Z" fill="white"/>
<path d="M67.2408 33.459C67.0225 33.455 66.8103 33.3856 66.6318 33.2597C66.4533 33.1339 66.3166 32.9574 66.2394 32.7531C66.1943 32.6337 66.1751 32.5062 66.1828 32.3789C66.1906 32.2515 66.2253 32.1273 66.2846 32.0143C66.3412 31.9103 66.4197 31.8198 66.5146 31.7489C66.6095 31.6781 66.7187 31.6286 66.8345 31.6039C67.0874 31.5497 67.3514 31.5888 67.5777 31.7141C67.804 31.8393 67.9774 32.0421 68.0658 32.2852C68.1102 32.4045 68.1295 32.5317 68.1225 32.6589C68.1154 32.786 68.0821 32.9103 68.0247 33.0239C67.9677 33.1284 67.8886 33.2193 67.7929 33.2901C67.6972 33.361 67.5873 33.4102 67.4707 33.4343C67.3954 33.4522 67.3182 33.4604 67.2408 33.459ZM66.6252 32.6135C66.6828 32.7552 66.787 32.8731 66.9205 32.9477C67.054 33.0223 67.209 33.0492 67.3599 33.0239C67.4198 33.0098 67.4762 32.9836 67.5256 32.9469C67.575 32.9102 67.6163 32.8638 67.6472 32.8105C67.6764 32.7461 67.6915 32.6761 67.6915 32.6053C67.6915 32.5345 67.6764 32.4646 67.6472 32.4001C67.5915 32.257 67.4877 32.1378 67.3536 32.0629C67.2195 31.988 67.0636 31.9621 66.9125 31.9897C66.8524 32.0019 66.7957 32.0273 66.7467 32.0643C66.6977 32.1012 66.6576 32.1486 66.6293 32.2031C66.6001 32.2676 66.5849 32.3375 66.5849 32.4083C66.5849 32.4791 66.6001 32.5491 66.6293 32.6135H66.6252Z" fill="#D1D3D4"/>
<path d="M66.4112 32.8724C66.6554 32.5701 66.5767 32.1016 66.2355 31.826C65.8943 31.5504 65.4197 31.572 65.1755 31.8744C64.9314 32.1767 65.01 32.6452 65.3512 32.9208C65.6925 33.1964 66.167 33.1747 66.4112 32.8724Z" fill="white"/>
<path d="M65.7257 33.6846C65.5073 33.6806 65.2952 33.6112 65.1166 33.4854C64.9381 33.3595 64.8014 33.183 64.7243 32.9787C64.6792 32.8594 64.6599 32.7318 64.6677 32.6045C64.6755 32.4772 64.7102 32.3529 64.7694 32.24C64.8261 32.136 64.9045 32.0454 64.9995 31.9746C65.0944 31.9037 65.2035 31.8543 65.3194 31.8296C65.5723 31.7754 65.8363 31.8145 66.0626 31.9397C66.2889 32.0649 66.4622 32.2678 66.5506 32.5109C66.5951 32.6302 66.6144 32.7574 66.6073 32.8845C66.6003 33.0116 66.567 33.1359 66.5096 33.2496C66.4525 33.3541 66.3734 33.4449 66.2778 33.5158C66.1821 33.5866 66.0721 33.6358 65.9555 33.66C65.8802 33.6775 65.803 33.6858 65.7257 33.6846ZM65.1101 32.8392C65.1671 32.9813 65.2711 33.0996 65.4048 33.1743C65.5385 33.249 65.6938 33.2756 65.8447 33.2496C65.9046 33.2355 65.961 33.2093 66.0104 33.1726C66.0598 33.1359 66.1012 33.0894 66.132 33.0362C66.1613 32.9717 66.1764 32.9017 66.1764 32.831C66.1764 32.7602 66.1613 32.6902 66.132 32.6258C66.0757 32.4831 65.9718 32.3644 65.8379 32.2896C65.704 32.2148 65.5484 32.1886 65.3974 32.2154C65.3378 32.2291 65.2818 32.2551 65.233 32.2919C65.1843 32.3287 65.1438 32.3753 65.1142 32.4288C65.0849 32.4932 65.0698 32.5632 65.0698 32.634C65.0698 32.7048 65.0849 32.7747 65.1142 32.8392H65.1101Z" fill="#D1D3D4"/>
<path d="M66.3359 32.8269C66.3359 32.8269 66.9803 33.3563 66.9228 33.4876C66.8654 33.619 66.5576 33.6149 66.5576 33.6149" fill="white"/>
<path d="M66.5719 33.82H66.5514C66.497 33.82 66.4448 33.7984 66.4063 33.7599C66.3678 33.7215 66.3462 33.6693 66.3462 33.6148C66.3462 33.5604 66.3678 33.5082 66.4063 33.4697C66.4448 33.4313 66.497 33.4096 66.5514 33.4096H66.6417C66.5026 33.2623 66.3531 33.1252 66.1944 32.9992C66.1519 32.9644 66.125 32.9141 66.1197 32.8595C66.1143 32.8048 66.1308 32.7503 66.1656 32.7079C66.2005 32.6654 66.2507 32.6385 66.3054 32.6331C66.36 32.6278 66.4146 32.6443 66.457 32.6791C67.2204 33.3111 67.1424 33.4999 67.0973 33.5861C67.007 33.7954 66.6951 33.82 66.5719 33.82Z" fill="#D1D3D4"/>
<path d="M66.7398 34.292C66.6138 34.2915 66.4888 34.2693 66.3704 34.2263C66.3443 34.2177 66.3203 34.204 66.2996 34.1859C66.279 34.1678 66.2621 34.1458 66.2501 34.1211C66.2382 34.0965 66.2312 34.0696 66.2298 34.0422C66.2283 34.0148 66.2324 33.9874 66.2417 33.9616C66.2511 33.9358 66.2655 33.9122 66.2841 33.892C66.3027 33.8719 66.3252 33.8557 66.3502 33.8444C66.3752 33.8331 66.4023 33.827 66.4297 33.8263C66.4571 33.8256 66.4844 33.8305 66.5099 33.8405C66.6387 33.88 66.7754 33.8856 66.907 33.8568C67.0385 33.8281 67.1604 33.7659 67.261 33.6764C67.2801 33.6571 67.3028 33.6419 67.3278 33.6314C67.3528 33.621 67.3796 33.6157 67.4067 33.6157C67.4338 33.6157 67.4606 33.621 67.4856 33.6314C67.5106 33.6419 67.5333 33.6571 67.5524 33.6764C67.572 33.6948 67.5877 33.717 67.5984 33.7417C67.6091 33.7664 67.6146 33.7931 67.6146 33.82C67.6146 33.8469 67.6091 33.8736 67.5984 33.8983C67.5877 33.923 67.572 33.9452 67.5524 33.9636C67.3291 34.1662 67.041 34.2826 66.7398 34.292Z" fill="#D1D3D4"/>
<path d="M60.7686 32.3098C60.5531 32.3055 60.3432 32.2409 60.1626 32.1234C59.9819 32.0059 59.8379 31.8401 59.7466 31.6449L58.4046 28.2222C58.3515 28.1043 58.3286 27.975 58.338 27.8461C58.3473 27.7171 58.3885 27.5925 58.4579 27.4835C58.5438 27.3701 58.6559 27.2791 58.7845 27.2184C58.9131 27.1577 59.0546 27.1289 59.1967 27.1346C59.4961 27.1401 59.7881 27.2291 60.0397 27.3915C60.2913 27.5539 60.4925 27.7833 60.6208 28.0539L61.0312 29.1374C61.0412 29.1624 61.0462 29.1892 61.0458 29.2162C61.0455 29.2432 61.0398 29.2698 61.0291 29.2946C61.0184 29.3194 61.003 29.3418 60.9836 29.3606C60.9643 29.3794 60.9414 29.3942 60.9163 29.4041C60.8656 29.4232 60.8095 29.4219 60.7598 29.4005C60.71 29.3791 60.6705 29.3392 60.6496 29.2892L60.2391 28.2017C60.1418 28.0084 59.9938 27.8452 59.8109 27.7296C59.628 27.6139 59.4171 27.5501 59.2008 27.545C59.1238 27.5366 59.0459 27.5475 58.9742 27.5769C58.9025 27.6063 58.8393 27.6532 58.7904 27.7133C58.7628 27.7695 58.7485 27.8313 58.7485 27.8939C58.7485 27.9565 58.7628 28.0182 58.7904 28.0744L60.1365 31.4931C60.1956 31.6143 60.2871 31.7168 60.4008 31.7892C60.5145 31.8616 60.6461 31.9012 60.7809 31.9035C60.8214 31.9072 60.8622 31.9014 60.9 31.8864C60.9378 31.8714 60.9715 31.8477 60.9984 31.8173C61.0135 31.7889 61.0214 31.7571 61.0214 31.725C61.0214 31.6928 61.0135 31.661 60.9984 31.6326L59.9478 28.9117C59.9269 28.8721 59.8956 28.8389 59.8572 28.8158C59.8189 28.7926 59.775 28.7804 59.7302 28.7803L60.6906 31.2427C60.7027 31.2682 60.7094 31.2959 60.7104 31.3242C60.7113 31.3524 60.7063 31.3805 60.6959 31.4067C60.6855 31.4329 60.6697 31.4567 60.6497 31.4766C60.6296 31.4965 60.6057 31.512 60.5793 31.5222C60.553 31.5323 60.5249 31.537 60.4967 31.5358C60.4684 31.5346 60.4408 31.5276 60.4154 31.5153C60.39 31.5029 60.3675 31.4855 60.3491 31.464C60.3308 31.4425 60.3171 31.4175 60.3089 31.3905L59.3362 28.9281C59.3095 28.8682 59.2985 28.8024 59.3042 28.7371C59.31 28.6717 59.3323 28.6089 59.3691 28.5546C59.4087 28.4973 59.4623 28.451 59.5248 28.4202C59.5872 28.3893 59.6565 28.3748 59.7261 28.3781C59.8548 28.3821 59.9796 28.4228 60.0858 28.4956C60.192 28.5683 60.2752 28.67 60.3253 28.7885L61.3924 31.5054C61.4313 31.5957 61.4475 31.6941 61.4396 31.7921C61.4317 31.8901 61.4 31.9847 61.3473 32.0676C61.2842 32.1545 61.2006 32.2243 61.1039 32.2709C61.0072 32.3174 60.9004 32.3393 60.7932 32.3344L60.7686 32.3098Z" fill="#231F20"/>
<path d="M86.819 44.7655C86.2313 43.1812 85.1657 41.8188 83.7697 40.8667C83.103 40.358 82.3389 39.992 81.5247 39.7914C80.6546 39.6437 80.4781 40.5014 81.1594 40.9693L82.8709 42.1348C82.994 42.221 83.1417 42.299 83.2566 42.3975C83.4536 42.5739 83.4249 42.4795 83.3839 42.7053C83.2431 43.4088 83.2783 44.1363 83.4865 44.8229C83.6627 45.3373 83.8795 45.8368 84.1349 46.3168" fill="white"/>
<path d="M84.1614 46.5056C84.1265 46.5061 84.0922 46.4967 84.0624 46.4786C84.0327 46.4604 84.0086 46.4342 83.9931 46.403C83.7327 45.9132 83.5105 45.4042 83.3283 44.8804C83.1138 44.164 83.0771 43.4061 83.2215 42.6724V42.6067L83.1436 42.5411C83.0707 42.4795 82.9924 42.4245 82.9096 42.3769L82.7742 42.2907L81.0587 41.1129C80.8698 41.008 80.7222 40.842 80.6402 40.6421C80.5581 40.4422 80.5465 40.2204 80.6072 40.013C80.6945 39.8455 80.8368 39.7132 81.0103 39.6384C81.1837 39.5637 81.3777 39.551 81.5594 39.6026C82.3996 39.8085 83.1887 40.1842 83.8782 40.7066C85.3048 41.6825 86.3943 43.0759 86.9974 44.6957C87.0146 44.7425 87.0127 44.7942 86.9919 44.8396C86.9712 44.885 86.9333 44.9203 86.8865 44.9378C86.8397 44.9551 86.788 44.9531 86.7426 44.9324C86.6972 44.9116 86.6619 44.8737 86.6444 44.827C86.071 43.2777 85.0297 41.9452 83.6648 41.0144C83.019 40.5237 82.2805 40.169 81.4937 39.972C81.2228 39.9268 81.0217 39.9966 80.9561 40.1567C80.8904 40.3167 80.9561 40.5958 81.268 40.8092L82.9794 41.9747L83.1025 42.0568C83.2015 42.1135 83.295 42.1795 83.3816 42.2538L83.4719 42.3277C83.5262 42.3595 83.5676 42.4095 83.5886 42.4688C83.6096 42.5281 83.609 42.593 83.5868 42.6519V42.734C83.4528 43.4074 83.4852 44.1033 83.6812 44.7613C83.8575 45.2664 84.0715 45.7576 84.3215 46.2306C84.3333 46.2522 84.3406 46.2761 84.3429 46.3007C84.3451 46.3253 84.3423 46.3501 84.3346 46.3735C84.3269 46.397 84.3145 46.4186 84.2981 46.4371C84.2817 46.4556 84.2618 46.4705 84.2394 46.4809C84.216 46.4957 84.1891 46.5042 84.1614 46.5056Z" fill="#231F20"/>
<path d="M76.6607 75.1762H97.5713V58.0133H76.6607V75.1762Z" fill="#D1D3D4"/>
<path d="M97.568 75.3813H76.6368C76.5824 75.3813 76.5302 75.3596 76.4917 75.3212C76.4533 75.2827 76.4316 75.2305 76.4316 75.1761V58.0172C76.4316 57.9628 76.4533 57.9106 76.4917 57.8721C76.5302 57.8336 76.5824 57.812 76.6368 57.812H97.568C97.6224 57.812 97.6746 57.8336 97.7131 57.8721C97.7516 57.9106 97.7732 57.9628 97.7732 58.0172V75.1761C97.7732 75.2305 97.7516 75.2827 97.7131 75.3212C97.6746 75.3596 97.6224 75.3813 97.568 75.3813ZM76.8626 74.9709H97.3833V58.2224H76.8626V74.9709Z" fill="#D1D3D4"/>
<path d="M78.6272 58.0131H96.394V55.6738H78.6272V58.0131Z" fill="white"/>
<path d="M96.3946 58.2019H78.6278C78.5784 58.202 78.531 58.1826 78.4957 58.1481C78.4604 58.1136 78.44 58.0666 78.439 58.0173V55.6739C78.44 55.6245 78.4604 55.5776 78.4957 55.543C78.531 55.5085 78.5784 55.4892 78.6278 55.4892H96.3946C96.444 55.4892 96.4914 55.5085 96.5266 55.543C96.5619 55.5776 96.5823 55.6245 96.5834 55.6739V58.0173C96.5823 58.0666 96.5619 58.1136 96.5266 58.1481C96.4914 58.1826 96.444 58.202 96.3946 58.2019ZM78.8248 57.8285H96.214V55.8627H78.8248V57.8285Z" fill="#231F20"/>
<path d="M53.0873 55.5795L98.9839 55.5795V51.6725L53.0873 51.6725V55.5795Z" fill="white"/>
<path d="M98.9852 55.7683H53.0885C53.0639 55.7683 53.0396 55.7634 53.0169 55.7538C52.9942 55.7443 52.9737 55.7303 52.9565 55.7127C52.9393 55.6951 52.9258 55.6743 52.9167 55.6514C52.9077 55.6285 52.9033 55.6041 52.9039 55.5795V51.6766C52.9033 51.652 52.9077 51.6275 52.9167 51.6046C52.9258 51.5818 52.9393 51.5609 52.9565 51.5433C52.9737 51.5257 52.9942 51.5118 53.0169 51.5022C53.0396 51.4927 53.0639 51.4878 53.0885 51.4878H98.9852C99.0352 51.4878 99.0833 51.5077 99.1187 51.5431C99.1541 51.5785 99.1739 51.6265 99.1739 51.6766V55.5795C99.1739 55.6296 99.1541 55.6776 99.1187 55.713C99.0833 55.7484 99.0352 55.7683 98.9852 55.7683ZM53.2773 55.3948H98.8005V51.8613H53.2773V55.3948Z" fill="#231F20"/>
<path d="M6.05592 55.5795L56.2988 55.5795V51.6725L6.05592 51.6725V55.5795Z" fill="white"/>
<path d="M56.2989 55.7683H6.05192C6.02732 55.7683 6.00296 55.7634 5.98028 55.7538C5.9576 55.7443 5.93706 55.7303 5.91985 55.7127C5.90265 55.6951 5.88913 55.6743 5.8801 55.6514C5.87106 55.6285 5.86669 55.6041 5.86723 55.5795V51.6766C5.86669 51.652 5.87106 51.6275 5.8801 51.6046C5.88913 51.5818 5.90265 51.5609 5.91985 51.5433C5.93706 51.5257 5.9576 51.5118 5.98028 51.5022C6.00296 51.4927 6.02732 51.4878 6.05192 51.4878H56.2989C56.349 51.4878 56.397 51.5077 56.4324 51.5431C56.4678 51.5785 56.4877 51.6265 56.4877 51.6766V55.5795C56.4877 55.6296 56.4678 55.6776 56.4324 55.713C56.397 55.7484 56.349 55.7683 56.2989 55.7683ZM6.2284 55.3948H56.1101V51.8613H6.24071L6.2284 55.3948Z" fill="#231F20"/>
<path d="M97.5083 29.2195L98.444 25.3371L111.881 22.9896L112.23 27.6723L97.5083 29.2195Z" fill="white"/>
<path d="M97.5083 29.4247C97.4772 29.4242 97.4467 29.4168 97.4189 29.4031C97.391 29.3893 97.3666 29.3695 97.3473 29.3452C97.3281 29.3208 97.3145 29.2925 97.3076 29.2622C97.3006 29.232 97.3005 29.2006 97.3072 29.1702L98.2429 25.2879C98.252 25.2486 98.2724 25.2129 98.3015 25.1852C98.3307 25.1575 98.3674 25.1389 98.4071 25.1319L111.848 22.7885C111.876 22.7841 111.905 22.7855 111.932 22.7926C111.96 22.7996 111.986 22.8122 112.008 22.8296C112.03 22.8477 112.049 22.8701 112.062 22.8955C112.076 22.9209 112.084 22.9487 112.086 22.9773L112.435 27.6559C112.439 27.7094 112.421 27.7623 112.387 27.8036C112.353 27.8448 112.304 27.8713 112.25 27.8775L97.5288 29.4206L97.5083 29.4247ZM98.6082 25.5177L97.7874 28.9856L112.021 27.4917L111.704 23.2359L98.6082 25.5177Z" fill="#231F20"/>
<path d="M122.551 30.4424C122.551 30.4424 116.493 24.7748 104.525 26.3795C92.5578 27.9841 93.6824 33.7667 92.8205 39.4507C91.9586 45.1348 92.8205 65.7369 92.8205 65.7369C92.8205 65.7369 76.9046 63.0364 75.1727 65.7369C73.4407 68.4373 74.8936 75.7219 74.8936 75.7219H93.313L118.976 73.6248L122.551 30.4424Z" fill="#003C74"/>
<path d="M100.717 69.4305C100.717 69.4305 104.23 30.0321 109.606 25.5833C114.983 21.1346 129.717 22.7105 131.769 28.0457C133.821 33.3809 124.615 67.6042 122.575 72.2294C120.536 76.8547 119.702 76.6413 109.992 76.6413C103.836 76.6413 81.0127 78.3075 79.3464 75.1597C77.6801 72.0119 82.9498 69.0694 100.717 69.4305Z" fill="#231F20"/>
<path d="M92.3128 77.2732C85.3358 77.2732 80.0004 76.8259 79.159 75.2623C78.9522 74.9214 78.8428 74.5303 78.8428 74.1316C78.8428 73.7329 78.9522 73.3418 79.159 73.001C80.8007 70.3457 88.3852 69.016 100.529 69.2581C100.821 66.0857 104.223 29.7776 109.464 25.4437C113.063 22.4642 120.344 22.2672 125.363 23.5928C128.848 24.5121 131.167 26.0552 131.893 27.9964C134.003 33.5574 124.645 67.8956 122.7 72.3197C120.705 76.8341 119.806 76.8341 111.18 76.8341H109.948C108.672 76.8341 106.64 76.908 104.285 76.9942C100.139 77.146 95.9983 77.2732 92.3128 77.2732ZM97.8944 69.5905C87.5561 69.5905 80.9074 70.8792 79.4833 73.1897C79.3068 73.476 79.2133 73.8056 79.2133 74.1419C79.2133 74.4781 79.3068 74.8078 79.4833 75.094C80.7514 77.4825 96.064 76.9326 104.293 76.6371C106.649 76.5509 108.684 76.4771 109.969 76.4771H111.2C119.782 76.4771 120.492 76.4771 122.388 72.172C124.481 67.4154 133.551 33.3357 131.577 28.1237C130.892 26.3179 128.659 24.8404 125.294 23.9417C118.682 22.1934 112.333 23.5559 109.698 25.7228C104.449 30.0648 100.915 69.0652 100.882 69.4551C100.877 69.5001 100.856 69.5419 100.823 69.5728C100.79 69.6037 100.747 69.6217 100.702 69.6234C99.7386 69.6042 98.8028 69.5933 97.8944 69.5905Z" fill="#231F20"/>
<path d="M90.5829 59.5808C88.1204 59.9133 85.4897 60.6397 83.9876 62.6178C82.1243 65.0802 82.6332 68.5235 83.2283 71.5481C84.3913 71.6576 85.5383 71.8985 86.647 72.2663C85.9758 70.5157 85.808 68.6121 86.1627 66.7711C86.2679 65.9053 86.673 65.1037 87.3078 64.5056C87.9506 64.0703 88.6996 63.8178 89.4748 63.7751C94.3998 63.1062 98.8651 63.8531 103.7 64.4687C104.48 61.6369 103.417 60.0651 100.724 59.6793C97.3645 59.1788 93.9517 59.1457 90.5829 59.5808Z" fill="#231F20"/>
<path d="M86.6438 72.4265H86.5863C85.4912 72.0618 84.3579 71.8236 83.2086 71.7165C83.1701 71.7129 83.1337 71.697 83.1049 71.6711C83.0761 71.6452 83.0563 71.6108 83.0486 71.5728C82.4412 68.4907 81.9487 65.0064 83.8407 62.4989C85.507 60.2991 88.4701 59.6712 90.555 59.3881C93.9405 58.9535 97.3697 58.988 100.746 59.4907C102.137 59.6876 103.11 60.2006 103.643 61.0132C104.177 61.8258 104.271 63.0283 103.861 64.5057C103.848 64.5468 103.821 64.5822 103.785 64.6061C103.749 64.63 103.707 64.6409 103.664 64.6371L102.133 64.436C97.8768 63.8778 93.8589 63.3484 89.488 63.9435C88.7461 63.9812 88.0284 64.2194 87.4113 64.633C86.8818 65.0434 86.5289 65.7657 86.3278 66.7958C85.9849 68.6028 86.1497 70.4695 86.8039 72.1884C86.8166 72.2201 86.8199 72.2548 86.8134 72.2883C86.8068 72.3218 86.7907 72.3527 86.7669 72.3772C86.7334 72.4083 86.6895 72.4259 86.6438 72.4265ZM83.3605 71.3635C84.368 71.4665 85.3632 71.6672 86.3319 71.9627C85.7595 70.2753 85.6323 68.4688 85.9625 66.7178C86.18 65.6015 86.5781 64.8259 87.1732 64.3457C87.8429 63.8908 88.6225 63.6243 89.4305 63.5741C93.8466 62.9749 97.8891 63.5044 102.153 64.0707L103.528 64.2472C103.861 62.9585 103.787 61.9325 103.307 61.2061C102.826 60.4797 101.944 60.0242 100.664 59.8395C97.3203 59.3402 93.9239 59.3071 90.5715 59.741C88.5522 60.0119 85.6834 60.6193 84.0951 62.7082C82.355 65.0475 82.7941 68.3881 83.3769 71.3635H83.3605Z" fill="#231F20"/>
<path d="M99.0516 68.6098C99.0246 68.616 98.9965 68.616 98.9695 68.6098L92.7394 65.9381C92.6914 65.9155 92.654 65.8752 92.6351 65.8257C92.6162 65.7761 92.6172 65.7212 92.6379 65.6723C92.6586 65.6235 92.6974 65.5846 92.7461 65.5637C92.7949 65.5429 92.8499 65.5418 92.8995 65.5606L99.1296 68.2364C99.1547 68.2463 99.1775 68.2611 99.1967 68.28C99.2159 68.2988 99.2311 68.3214 99.2415 68.3463C99.2518 68.3712 99.2571 68.3979 99.2569 68.4248C99.2567 68.4518 99.2511 68.4784 99.2404 68.5031C99.222 68.5368 99.1946 68.5646 99.1613 68.5835C99.1279 68.6023 99.0899 68.6114 99.0516 68.6098Z" fill="#231F20"/>
<path d="M53.0869 77.1009H78.627V55.5836H53.0869V77.1009Z" fill="white"/>
<path d="M78.6286 77.2855H53.0885C53.0639 77.2855 53.0396 77.2806 53.0169 77.2711C52.9942 77.2616 52.9737 77.2476 52.9565 77.23C52.9393 77.2124 52.9258 77.1916 52.9167 77.1687C52.9077 77.1458 52.9033 77.1213 52.9039 77.0968V55.5795C52.9039 55.5305 52.9233 55.4835 52.9579 55.4489C52.9926 55.4142 53.0396 55.3948 53.0885 55.3948H78.6286C78.678 55.3948 78.7254 55.4141 78.7607 55.4486C78.796 55.4831 78.8163 55.5301 78.8174 55.5795V77.0968C78.8174 77.1468 78.7975 77.1948 78.7621 77.2302C78.7267 77.2656 78.6787 77.2855 78.6286 77.2855ZM53.2773 76.9121H78.4398V55.7682H53.2773V76.9121Z" fill="#231F20"/>
<path d="M8.24604 77.1009H53.0879V55.5836L8.24604 55.5836V77.1009Z" fill="white"/>
<path d="M53.0884 77.2855H8.23425C8.2093 77.2861 8.1845 77.2816 8.16134 77.2723C8.13818 77.263 8.11715 77.2491 8.0995 77.2315C8.08186 77.2138 8.06797 77.1928 8.05868 77.1696C8.0494 77.1465 8.0449 77.1217 8.04546 77.0967V55.5794C8.04545 55.5548 8.05036 55.5305 8.0599 55.5078C8.06943 55.4851 8.08341 55.4646 8.10099 55.4474C8.11858 55.4302 8.13943 55.4167 8.16231 55.4076C8.18519 55.3986 8.20965 55.3942 8.23425 55.3948H53.0884C53.1378 55.3947 53.1852 55.4141 53.2205 55.4486C53.2558 55.4831 53.2761 55.5301 53.2772 55.5794V77.0967C53.2772 77.1468 53.2573 77.1948 53.2219 77.2302C53.1865 77.2656 53.1385 77.2855 53.0884 77.2855ZM8.43535 76.9121H52.9037V55.7682H8.43535V76.9121Z" fill="#231F20"/>
<path d="M76.0383 74.187H56.0758C56.0214 74.187 55.9692 74.1654 55.9307 74.1269C55.8922 74.0884 55.8706 74.0362 55.8706 73.9818V58.7067C55.8706 58.6522 55.8922 58.6001 55.9307 58.5616C55.9692 58.5231 56.0214 58.5015 56.0758 58.5015H76.0383C76.0924 58.5025 76.144 58.5245 76.1823 58.5627C76.2205 58.601 76.2425 58.6526 76.2436 58.7067V73.9818C76.2436 74.0362 76.2219 74.0884 76.1835 74.1269C76.145 74.1654 76.0928 74.187 76.0383 74.187ZM56.281 73.7766H75.8331V58.9119H56.281V73.7766Z" fill="#D1D3D4"/>
<path d="M65.9754 63.9107C65.6643 63.9115 65.36 63.82 65.101 63.6478C64.842 63.4756 64.6399 63.2304 64.5202 62.9432C64.4006 62.6561 64.3689 62.3399 64.4291 62.0347C64.4893 61.7296 64.6387 61.4491 64.8584 61.2289C65.078 61.0086 65.3581 60.8585 65.6631 60.7975C65.9682 60.7366 66.2844 60.7674 66.5719 60.8863C66.8593 61.0051 67.1051 61.2066 67.278 61.4652C67.4509 61.7237 67.5432 62.0278 67.5432 62.3389C67.5421 62.7547 67.3767 63.1532 67.0831 63.4477C66.7894 63.7421 66.3912 63.9085 65.9754 63.9107ZM65.9754 61.1815C65.7453 61.1807 65.5202 61.2482 65.3286 61.3756C65.137 61.5029 64.9874 61.6842 64.899 61.8966C64.8106 62.109 64.7873 62.3429 64.832 62.5685C64.8766 62.7942 64.9873 63.0015 65.15 63.1642C65.3127 63.3269 65.52 63.4376 65.7457 63.4823C65.9714 63.527 66.2053 63.5036 66.4177 63.4152C66.6301 63.3268 66.8114 63.1773 66.9387 62.9857C67.0661 62.794 67.1336 62.5689 67.1328 62.3389C67.1317 62.0322 67.0094 61.7385 66.7926 61.5217C66.5758 61.3049 66.282 61.1826 65.9754 61.1815Z" fill="#D1D3D4"/>
<path d="M63.5669 42.4262C63.7968 43.169 64.0553 43.8995 64.3549 44.6136C63.4601 43.8616 62.5198 43.1654 61.5395 42.5288C61.3654 42.3853 61.1453 42.3095 60.9197 42.3154C60.7922 42.353 60.675 42.4196 60.5775 42.51C60.4799 42.6005 60.4046 42.7122 60.3575 42.8366C59.512 44.4782 59.9183 46.563 60.9403 48.1143C62.5819 50.5768 65.3933 52.719 68.4344 52.5508C68.6319 52.5545 68.8266 52.5034 68.9967 52.403C69.1205 52.2976 69.2211 52.1676 69.2922 52.0214C69.8066 51.1021 70.2786 50.1623 70.7081 49.2019C70.8016 49.0514 70.8339 48.8707 70.7984 48.6971C70.7256 48.5477 70.604 48.4275 70.4537 48.3565C68.2785 46.9857 67.0719 44.9789 65.6477 42.9474C65.3604 42.537 64.7038 41.0514 64.084 41.076C63.3904 41.1129 63.4069 41.905 63.5669 42.4262Z" fill="white"/>
<path d="M68.1006 52.7477C64.9281 52.7477 62.1988 50.3387 60.7911 48.2333C59.6337 46.4768 59.3998 44.3304 60.2001 42.7668C60.256 42.6152 60.348 42.4795 60.4681 42.3715C60.5883 42.2636 60.7329 42.1865 60.8896 42.1471C61.1612 42.1325 61.4287 42.2187 61.6407 42.3892C62.4204 42.894 63.1797 43.4439 63.9102 44.0308C63.7173 43.526 63.545 43.013 63.389 42.5041C63.312 42.2965 63.2788 42.0752 63.2916 41.8541C63.3043 41.633 63.3626 41.417 63.4629 41.2196C63.5342 41.1223 63.6276 41.0434 63.7353 40.9891C63.843 40.9349 63.962 40.907 64.0826 40.9077C64.6613 40.9077 65.1907 41.7941 65.5683 42.459C65.6419 42.5998 65.7227 42.7368 65.8105 42.8694L66.3276 43.6204C67.5588 45.381 68.6875 47.0432 70.559 48.2251C70.6608 48.2644 70.7523 48.3265 70.8265 48.4065C70.9007 48.4864 70.9558 48.5823 70.9874 48.6867C71.0191 48.7912 71.0265 48.9015 71.0092 49.0092C70.9918 49.117 70.9501 49.2193 70.8873 49.3086C70.4769 50.2689 69.9762 51.221 69.4631 52.1403C69.3796 52.3123 69.2591 52.4636 69.1102 52.5836C68.912 52.7063 68.6825 52.769 68.4494 52.7641C68.3345 52.7436 68.2155 52.7477 68.1006 52.7477ZM60.9922 42.4877H60.9471C60.7993 42.5082 60.6639 42.6478 60.5366 42.8981C59.7979 44.3427 60.0236 46.3414 61.1112 47.983C62.5107 50.1047 65.2728 52.4974 68.433 52.3373C68.5953 52.3428 68.7559 52.303 68.8968 52.2224C68.9997 52.1345 69.0823 52.0253 69.1389 51.9023C69.6478 50.9953 70.1198 50.0514 70.5507 49.1034C70.617 48.9922 70.6458 48.8627 70.6328 48.734C70.6 48.6355 70.4728 48.5575 70.362 48.4878C68.4248 47.2566 67.2592 45.5739 66.0239 43.7805L65.5068 43.0294C65.437 42.935 65.3508 42.7791 65.2482 42.619C64.9732 42.1389 64.4848 41.2442 64.1031 41.2565C64.0401 41.2555 63.9777 41.2691 63.9208 41.2962C63.8638 41.3232 63.8139 41.363 63.7748 41.4125C63.7071 41.5621 63.6701 41.7239 63.6658 41.8881C63.6616 42.0523 63.6903 42.2157 63.7502 42.3687C63.9718 43.0992 64.2345 43.8297 64.53 44.5397C64.5451 44.5787 64.5469 44.6216 64.535 44.6617C64.5231 44.7019 64.4983 44.7369 64.4643 44.7613C64.4319 44.788 64.3913 44.8026 64.3494 44.8026C64.3074 44.8026 64.2668 44.788 64.2345 44.7613C63.3477 44.0182 62.4141 43.3328 61.4395 42.7093C61.3125 42.5997 61.1577 42.5273 60.9922 42.5V42.4877Z" fill="#231F20"/>
<path d="M103.451 30.9473C103.451 30.9473 100.989 56.1253 92.5424 55.9817C84.0961 55.8381 66.2759 53.1951 66.2759 52.8257C66.2759 52.4564 68.4716 45.8489 68.4716 45.8489C68.4716 45.8489 87.4122 47.8229 89.2632 44.8598C91.1141 41.8968 93.9829 32.5725 93.9829 32.5725" fill="#003C74"/>
<path d="M93.1903 55.8873C86.127 55.8873 73.4288 54.2457 72.727 54.1554C72.6732 54.1482 72.6244 54.12 72.5913 54.0769C72.5582 54.0338 72.5435 53.9794 72.5505 53.9255C72.5577 53.8714 72.5858 53.8222 72.6287 53.7885C72.6716 53.7548 72.7261 53.7391 72.7804 53.745C80.5003 54.7546 95.583 56.3059 97.3806 54.9762C99.6379 53.314 103.192 38.5889 103.225 38.437C103.239 38.3846 103.273 38.3396 103.32 38.3114C103.366 38.2832 103.422 38.2738 103.475 38.2852C103.528 38.2997 103.573 38.3337 103.601 38.3802C103.629 38.4267 103.638 38.4823 103.627 38.5355C103.479 39.147 100.003 53.5562 97.6268 55.3086C97.0605 55.7108 95.4024 55.8873 93.1903 55.8873Z" fill="#231F20"/>
<path d="M105.536 70.0255H105.503C105.477 70.0201 105.452 70.0096 105.43 69.9944C105.408 69.9793 105.389 69.9599 105.374 69.9373C105.36 69.9147 105.35 69.8895 105.345 69.863C105.341 69.8366 105.341 69.8095 105.347 69.7833C108.319 56.3058 113.859 30.3849 113.584 28.7433C113.133 26.0429 110.535 26.4286 110.424 26.4451C110.37 26.4538 110.314 26.4405 110.269 26.4082C110.225 26.3758 110.195 26.3271 110.186 26.2727C110.177 26.2183 110.191 26.1626 110.223 26.118C110.255 26.0733 110.304 26.0434 110.359 26.0347C110.391 26.0347 113.465 25.5627 113.987 28.6694C114.348 30.7994 106.098 68.2772 105.75 69.8695C105.737 69.9161 105.71 69.957 105.671 69.9854C105.632 70.0139 105.584 70.028 105.536 70.0255Z" fill="white"/>
</svg>
