<svg width="10" height="11" viewBox="0 0 10 11" fill="none" xmlns="http://www.w3.org/2000/svg">
<path d="M5.52485 1.6389C5.52485 1.2506 5.21113 0.93689 4.82283 0.93689C4.43453 0.93689 4.12082 1.2506 4.12082 1.6389V4.79795H0.961776C0.573477 4.79795 0.259766 5.11166 0.259766 5.49996C0.259766 5.88826 0.573477 6.20197 0.961776 6.20197H4.12082V9.36101C4.12082 9.74931 4.43453 10.063 4.82283 10.063C5.21113 10.063 5.52485 9.74931 5.52485 9.36101V6.20197H8.68389C9.07219 6.20197 9.3859 5.88826 9.3859 5.49996C9.3859 5.11166 9.07219 4.79795 8.68389 4.79795H5.52485V1.6389Z" fill="black"/>
</svg>
