<svg width="102" height="94" viewBox="0 0 102 94" fill="none" xmlns="http://www.w3.org/2000/svg">
<path d="M87.7948 16.3054H38.0659V55.2159H100.825V28.3337C100.825 21.7002 94.9895 16.3054 87.7948 16.3054Z" fill="#003C74"/>
<path d="M100.823 55.4287H38.0639C38.0057 55.4274 37.9504 55.4034 37.9097 55.3618C37.869 55.3202 37.8462 55.2643 37.8462 55.2061V16.3054C37.8462 16.2476 37.8691 16.1922 37.91 16.1514C37.9508 16.1106 38.0062 16.0876 38.0639 16.0876H87.7928C95.0988 16.0876 101.045 21.5889 101.045 28.3482V55.2158C101.042 55.2728 101.017 55.3262 100.975 55.3657C100.934 55.4051 100.88 55.4276 100.823 55.4287ZM38.2865 54.9836H100.6V28.3336C100.6 21.8163 94.8569 16.5134 87.7928 16.5134H38.2865V54.9836Z" fill="#231F20"/>
<path d="M51.0943 28.8175V55.2013H25.0347V28.8175C25.0262 25.6783 26.205 22.652 28.3345 20.3455C29.5067 19.0661 30.9325 18.0449 32.5211 17.3469C34.1096 16.6488 35.8261 16.2892 37.5613 16.2909H38.6741C41.1953 16.3103 43.6521 17.0894 45.7236 18.5265C47.7952 19.9637 49.3853 21.9921 50.2862 24.3468C50.4705 24.8199 50.6224 25.3048 50.7411 25.7984C50.7585 25.8468 50.7699 25.8972 50.7749 25.9484C50.9939 26.8889 51.101 27.8519 51.0943 28.8175Z" fill="#231F20"/>
<path d="M51.0939 55.4625H25.0344C24.9706 55.4613 24.9098 55.4354 24.8647 55.3903C24.8196 55.3452 24.7937 55.2844 24.7925 55.2206V28.8174C24.7938 25.4314 26.1394 22.1844 28.5337 19.7901C30.928 17.3958 34.175 16.0502 37.561 16.0489H38.6738C41.2432 16.0726 43.7458 16.8701 45.8552 18.3374C47.9645 19.8046 49.5828 21.8735 50.4988 24.2742C50.6935 24.7463 50.8551 25.2313 50.9827 25.7257C51.003 25.7885 51.016 25.8534 51.0214 25.9192C51.2462 26.859 51.3583 27.8221 51.3552 28.7884V55.1771C51.3622 55.214 51.3604 55.252 51.3501 55.2881C51.3398 55.3242 51.3213 55.3574 51.2959 55.3851C51.2706 55.4128 51.2391 55.4342 51.2041 55.4476C51.169 55.4611 51.1313 55.4662 51.0939 55.4625ZM25.2763 54.9787H50.852V28.8174C50.8537 27.8774 50.7449 26.9404 50.5279 26.0257C50.5319 25.9871 50.5319 25.9482 50.5279 25.9096V25.8563C50.3986 25.3825 50.2402 24.9172 50.0537 24.4629C49.169 22.1558 47.6105 20.1685 45.5809 18.7593C43.5513 17.3501 41.1445 16.5844 38.6738 16.5618H37.5658C35.9539 16.5586 34.3572 16.8732 32.8669 17.4875C31.3766 18.1019 30.0221 19.004 28.8807 20.1422C27.7393 21.2804 26.8335 22.6325 26.215 24.1211C25.5966 25.6096 25.2776 27.2055 25.2763 28.8174V54.9787Z" fill="#231F20"/>
<path d="M25.0395 55.2158H51.0942V78.3047C51.0942 81.4537 49.8433 84.4738 47.6166 86.7005C45.3899 88.9272 42.3698 90.1781 39.2208 90.1781H36.9081C33.759 90.1781 30.739 88.9272 28.5123 86.7005C26.2856 84.4738 25.0347 81.4537 25.0347 78.3047V55.2158H25.0395Z" fill="white"/>
<path d="M39.2213 90.4007H36.9133C33.7053 90.4007 30.6286 89.1263 28.3602 86.8579C26.0918 84.5894 24.8174 81.5128 24.8174 78.3047V55.2158C24.8186 55.1572 24.8425 55.1013 24.8839 55.0598C24.9254 55.0184 24.9813 54.9945 25.04 54.9933H51.0947C51.1533 54.9945 51.2092 55.0184 51.2507 55.0598C51.2921 55.1013 51.316 55.1572 51.3172 55.2158V78.3047C51.3172 81.5128 50.0428 84.5894 47.7744 86.8579C45.506 89.1263 42.4293 90.4007 39.2213 90.4007ZM25.2577 55.4287V78.295C25.2615 81.3847 26.4909 84.3466 28.6761 86.5309C30.8612 88.7152 33.8237 89.9433 36.9133 89.9459H39.2213C42.3105 89.9433 45.2724 88.715 47.4568 86.5306C49.6412 84.3462 50.8695 81.3842 50.8721 78.295V55.4287H25.2577Z" fill="#231F20"/>
<path d="M44.5036 76.3741H31.6286C31.5645 76.3741 31.5029 76.3486 31.4576 76.3032C31.4122 76.2579 31.3867 76.1963 31.3867 76.1322C31.3867 76.068 31.4122 76.0065 31.4576 75.9611C31.5029 75.9158 31.5645 75.8903 31.6286 75.8903H44.5036C44.5677 75.8903 44.6293 75.9158 44.6746 75.9611C44.72 76.0065 44.7455 76.068 44.7455 76.1322C44.7455 76.1963 44.72 76.2579 44.6746 76.3032C44.6293 76.3486 44.5677 76.3741 44.5036 76.3741Z" fill="#D1D3D4"/>
<path d="M65.0836 35.8815C66.4597 35.8815 67.5753 34.7659 67.5753 33.3897C67.5753 32.0136 66.4597 30.8979 65.0836 30.8979C63.7074 30.8979 62.5918 32.0136 62.5918 33.3897C62.5918 34.7659 63.7074 35.8815 65.0836 35.8815Z" fill="white"/>
<path d="M65.0839 36.0993C64.5467 36.1002 64.0212 35.9417 63.5741 35.6438C63.127 35.346 62.7783 34.9221 62.5723 34.4259C62.3662 33.9297 62.3121 33.3836 62.4167 32.8566C62.5212 32.3296 62.7799 31.8455 63.1598 31.4656C63.5397 31.0857 64.0237 30.8271 64.5507 30.7225C65.0777 30.6179 65.6239 30.6721 66.12 30.8781C66.6162 31.0842 67.0401 31.4328 67.338 31.8799C67.6359 32.3271 67.7944 32.8525 67.7934 33.3898C67.7921 34.108 67.5063 34.7964 66.9984 35.3043C66.4906 35.8121 65.8021 36.098 65.0839 36.0993ZM65.0839 31.1206C64.6351 31.1206 64.1964 31.2536 63.8232 31.503C63.45 31.7523 63.1592 32.1067 62.9874 32.5214C62.8157 32.936 62.7708 33.3923 62.8583 33.8325C62.9459 34.2727 63.162 34.677 63.4793 34.9943C63.7967 35.3117 64.201 35.5278 64.6412 35.6154C65.0814 35.7029 65.5377 35.658 65.9523 35.4863C66.3669 35.3145 66.7213 35.0236 66.9707 34.6505C67.22 34.2773 67.3531 33.8386 67.3531 33.3898C67.3531 33.0918 67.2944 32.7967 67.1804 32.5214C67.0663 32.2461 66.8992 31.9959 66.6885 31.7852C66.4778 31.5745 66.2276 31.4073 65.9523 31.2933C65.677 31.1793 65.3819 31.1206 65.0839 31.1206Z" fill="#231F20"/>
<path d="M65.0814 31.1205C65.0228 31.1192 64.9669 31.0954 64.9254 31.0539C64.884 31.0124 64.8601 30.9565 64.8589 30.8979V0.241775C64.8602 0.183589 64.8842 0.128215 64.9258 0.0875161C64.9674 0.0468175 65.0232 0.0240341 65.0814 0.0240479C65.1392 0.0240479 65.1946 0.0469868 65.2354 0.0878188C65.2762 0.128651 65.2992 0.184029 65.2992 0.241775V30.8979C65.2992 30.9561 65.2764 31.012 65.2357 31.0536C65.195 31.0952 65.1396 31.1192 65.0814 31.1205Z" fill="#231F20"/>
<path d="M74.2426 2.55954L65.0835 6.68186V0.241943H74.2426V2.55954Z" fill="white"/>
<path d="M65.0838 6.92376C65.0374 6.92364 64.9921 6.9102 64.9531 6.88505C64.9184 6.86388 64.8899 6.83397 64.8703 6.79831C64.8508 6.76265 64.841 6.72249 64.8418 6.68184V0.24192C64.8418 0.177759 64.8673 0.116225 64.9127 0.0708566C64.9581 0.0254878 65.0196 0 65.0838 0H74.2477C74.3114 0.00123867 74.3723 0.0271248 74.4174 0.072228C74.4625 0.117331 74.4884 0.178147 74.4896 0.24192V2.55468C74.4891 2.60176 74.4753 2.64773 74.4495 2.68717C74.4238 2.7266 74.3873 2.75786 74.3444 2.77724L65.1805 6.89956C65.1505 6.91484 65.1174 6.92312 65.0838 6.92376ZM65.3257 0.48384V6.28993L74.0009 2.38533V0.449972L65.3257 0.48384Z" fill="#231F20"/>
<path d="M70.2942 55.2157H59.7949V57.722H70.2942V55.2157Z" fill="white"/>
<path d="M70.2951 57.9397H59.7958C59.7376 57.9398 59.6817 57.917 59.6401 57.8763C59.5985 57.8356 59.5745 57.7802 59.5732 57.722V55.2157C59.5745 55.1571 59.5983 55.1012 59.6398 55.0597C59.6813 55.0182 59.7372 54.9944 59.7958 54.9932H70.2951C70.3538 54.9944 70.4097 55.0182 70.4511 55.0597C70.4926 55.1012 70.5164 55.1571 70.5177 55.2157V57.722C70.5164 57.7802 70.4924 57.8356 70.4508 57.8763C70.4092 57.917 70.3533 57.9398 70.2951 57.9397ZM60.0184 57.4995H70.0725V55.4286H60.0184V57.4995Z" fill="#231F20"/>
<path d="M61.4824 92.7958V57.7222H67.8014V92.7958" fill="white"/>
<path d="M67.8012 93.0182C67.7431 93.017 67.6877 92.993 67.647 92.9514C67.6063 92.9097 67.5835 92.8539 67.5835 92.7957V57.9592H61.7V92.7957C61.7047 92.8273 61.7026 92.8596 61.6937 92.8903C61.6848 92.9211 61.6693 92.9495 61.6484 92.9737C61.6275 92.998 61.6017 93.0174 61.5726 93.0307C61.5435 93.044 61.5119 93.051 61.4799 93.051C61.4479 93.051 61.4163 93.044 61.3872 93.0307C61.3581 93.0174 61.3322 92.998 61.3113 92.9737C61.2904 92.9495 61.275 92.9211 61.2661 92.8903C61.2572 92.8596 61.255 92.8273 61.2597 92.7957V57.7221C61.2597 57.6929 61.2655 57.6639 61.2767 57.6369C61.2879 57.6099 61.3043 57.5854 61.3249 57.5647C61.3456 57.544 61.3701 57.5276 61.3971 57.5165C61.4241 57.5053 61.4531 57.4995 61.4823 57.4995H67.8012C67.8305 57.4995 67.8594 57.5053 67.8864 57.5165C67.9134 57.5276 67.9379 57.544 67.9586 57.5647C67.9793 57.5854 67.9957 57.6099 68.0069 57.6369C68.018 57.6639 68.0238 57.6929 68.0238 57.7221V92.7957C68.0238 92.8249 68.018 92.8538 68.0069 92.8808C67.9957 92.9078 67.9793 92.9324 67.9586 92.953C67.9379 92.9737 67.9134 92.9901 67.8864 93.0013C67.8594 93.0125 67.8305 93.0182 67.8012 93.0182Z" fill="#231F20"/>
<path d="M61.4824 63.1992L67.8014 67.8489V57.7222H61.4824V63.1992Z" fill="#231F20"/>
<path d="M67.8025 68.0908C67.7524 68.0912 67.7034 68.0759 67.6622 68.0472L61.3385 63.3975C61.3087 63.3747 61.2845 63.3455 61.2677 63.3119C61.251 63.2784 61.2421 63.2415 61.2417 63.204V57.7221C61.2417 57.6579 61.2672 57.5964 61.3126 57.551C61.3579 57.5056 61.4195 57.4802 61.4836 57.4802H67.8025C67.8667 57.4802 67.9282 57.5056 67.9736 57.551C68.019 57.5964 68.0445 57.6579 68.0445 57.7221V67.8489C68.0456 67.8938 68.0339 67.9381 68.0108 67.9767C67.9876 68.0152 67.954 68.0464 67.9138 68.0666C67.8795 68.0842 67.8411 68.0925 67.8025 68.0908ZM61.7255 63.0782L67.5606 67.3747V57.964H61.7255V63.0782Z" fill="#231F20"/>
<path d="M13.4865 44.6732C13.4865 44.6732 13.4865 50.7502 7.4917 51.834C7.4917 51.834 12.9059 52.3178 13.9897 57.911C13.9897 57.911 14.9864 52.1678 19.4812 51.0018C19.4812 51.0018 13.8203 51.834 13.4865 44.6732Z" fill="#D1D3D4"/>
<path d="M4.22583 28.5417C4.22583 28.5417 4.22583 31.856 0.955078 32.4463C1.82051 32.552 2.62996 32.93 3.26656 33.5257C3.90316 34.1214 4.33396 34.9041 4.49678 35.7606C4.49678 35.7606 5.05803 32.6301 7.47722 31.9915C7.47722 31.9915 4.40485 32.4463 4.22583 28.5417Z" fill="#D1D3D4"/>
<path d="M21.3885 12.696C21.3885 12.696 21.3885 16.0104 18.1226 16.6006C18.9874 16.7078 19.7961 17.0863 20.4325 17.6817C21.0688 18.2772 21.5 19.059 21.6643 19.9149C21.6643 19.9149 22.2062 16.7845 24.6592 16.1507C24.6592 16.1507 21.5723 16.6006 21.3885 12.696Z" fill="#D1D3D4"/>
<path d="M43.1824 41.0634C43.1824 41.0634 43.1824 44.3777 39.9165 44.968C40.7819 45.0737 41.5914 45.4517 42.228 46.0474C42.8646 46.6432 43.2954 47.4258 43.4582 48.2823C43.4582 48.2823 44.0001 45.1519 46.4532 44.5132C46.4532 44.5132 43.3663 44.968 43.1824 41.0634Z" fill="#D1D3D4"/>
<path d="M34.7992 26.6595C34.7992 26.6595 34.7992 30.5303 30.9575 31.2464C31.9707 31.3701 32.9188 31.8112 33.6662 32.5064C34.4136 33.2017 34.9219 34.1154 35.1185 35.1171C35.1185 35.1171 35.7572 31.4399 38.636 30.6899C38.636 30.7093 35.0121 31.2367 34.7992 26.6595Z" fill="#D1D3D4"/>
<path d="M91.1365 19.1697H75.1698C75.1112 19.1684 75.0553 19.1446 75.0138 19.1031C74.9723 19.0616 74.9485 19.0057 74.9473 18.9471C74.9485 18.8889 74.9725 18.8335 75.0141 18.7928C75.0557 18.7521 75.1116 18.7294 75.1698 18.7294H91.1365C91.1943 18.7294 91.2496 18.7523 91.2905 18.7931C91.3313 18.834 91.3542 18.8894 91.3542 18.9471C91.3542 19.0053 91.3315 19.0612 91.2908 19.1028C91.2501 19.1444 91.1947 19.1684 91.1365 19.1697Z" fill="white"/>
<path d="M72.1079 19.1697H70.2548C70.1958 19.1697 70.1392 19.1463 70.0974 19.1045C70.0557 19.0628 70.0322 19.0062 70.0322 18.9472C70.0322 18.9181 70.038 18.8894 70.0493 18.8627C70.0605 18.836 70.077 18.8117 70.0977 18.7915C70.1184 18.7712 70.143 18.7552 70.17 18.7446C70.197 18.7339 70.2258 18.7288 70.2548 18.7294H72.1079C72.1369 18.7288 72.1657 18.7339 72.1927 18.7446C72.2197 18.7552 72.2443 18.7712 72.265 18.7915C72.2857 18.8117 72.3022 18.836 72.3134 18.8627C72.3247 18.8894 72.3305 18.9181 72.3305 18.9472C72.3305 19.0062 72.307 19.0628 72.2653 19.1045C72.2235 19.1463 72.1669 19.1697 72.1079 19.1697Z" fill="white"/>
</svg>
