<svg width="20" height="18" viewBox="0 0 20 18" fill="none" xmlns="http://www.w3.org/2000/svg">
<path d="M1.875 0.783813C0.839844 0.783813 0 1.73564 0 2.90881C0 3.5773 0.277344 4.20595 0.75 4.60881L9.25 11.8338C9.69531 12.2101 10.3047 12.2101 10.75 11.8338L19.25 4.60881C19.7227 4.20595 20 3.5773 20 2.90881C20 1.73564 19.1602 0.783813 18.125 0.783813H1.875ZM0 5.74215V14.9505C0 16.5132 1.12109 17.7838 2.5 17.7838H17.5C18.8789 17.7838 20 16.5132 20 14.9505V5.74215L11.5 12.9671C10.6094 13.7242 9.39062 13.7242 8.5 12.9671L0 5.74215Z" fill="white"/>
</svg>
