<svg width="23" height="20" viewBox="0 0 23 20" fill="none" xmlns="http://www.w3.org/2000/svg">
<path d="M3.37177 0.375C2.0339 0.375 0.946167 1.6082 0.946167 3.125V16.875C0.946167 18.3918 2.0339 19.625 3.37177 19.625H20.351C21.6889 19.625 22.7766 18.3918 22.7766 16.875V3.125C22.7766 1.6082 21.6889 0.375 20.351 0.375H3.37177ZM6.40378 11.375H8.82939C10.5046 11.375 11.8614 12.9133 11.8614 14.8125C11.8614 15.1906 11.5885 15.5 11.255 15.5H3.97818C3.64466 15.5 3.37177 15.1906 3.37177 14.8125C3.37177 12.9133 4.7286 11.375 6.40378 11.375ZM5.19098 7.25C5.19098 6.52065 5.44654 5.82118 5.90142 5.30546C6.35631 4.78973 6.97328 4.5 7.61659 4.5C8.2599 4.5 8.87686 4.78973 9.33175 5.30546C9.78664 5.82118 10.0422 6.52065 10.0422 7.25C10.0422 7.97935 9.78664 8.67882 9.33175 9.19454C8.87686 9.71027 8.2599 10 7.61659 10C6.97328 10 6.35631 9.71027 5.90142 9.19454C5.44654 8.67882 5.19098 7.97935 5.19098 7.25ZM14.8934 5.875H19.7446C20.0781 5.875 20.351 6.18437 20.351 6.5625C20.351 6.94063 20.0781 7.25 19.7446 7.25H14.8934C14.5599 7.25 14.287 6.94063 14.287 6.5625C14.287 6.18437 14.5599 5.875 14.8934 5.875ZM14.8934 8.625H19.7446C20.0781 8.625 20.351 8.93437 20.351 9.3125C20.351 9.69063 20.0781 10 19.7446 10H14.8934C14.5599 10 14.287 9.69063 14.287 9.3125C14.287 8.93437 14.5599 8.625 14.8934 8.625ZM14.8934 11.375H19.7446C20.0781 11.375 20.351 11.6844 20.351 12.0625C20.351 12.4406 20.0781 12.75 19.7446 12.75H14.8934C14.5599 12.75 14.287 12.4406 14.287 12.0625C14.287 11.6844 14.5599 11.375 14.8934 11.375Z" fill="white"/>
</svg>
