<svg width="43" height="46" viewBox="0 0 43 46" fill="none" xmlns="http://www.w3.org/2000/svg">
<path d="M17.4076 11.2504C17.0617 10.3058 16.1498 9.8031 15.2783 10.0722L11.3252 11.291C10.5436 11.5347 10 12.3371 10 13.2511C10 25.8144 19.0113 36.0011 30.125 36.0011C30.9336 36.0011 31.6434 35.3867 31.859 34.5031L32.9371 30.0343C33.1752 29.0492 32.7305 28.0183 31.8949 27.6273L27.5824 25.5961C26.8502 25.2508 26.0012 25.4894 25.5025 26.1851L23.6877 28.6886C20.5252 26.9976 17.9646 24.1031 16.4688 20.5281L18.6834 18.4816C19.2988 17.9129 19.51 16.9582 19.2045 16.1304L17.4076 11.2554V11.2504Z" fill="white"/>
</svg>
